# MagicaVoxel @ Ephtracy

# group
o 

# material
mtllib Door.mtl
usemtl palette

# normals
vn -1 0 0
vn 1 0 0
vn 0 0 1
vn 0 0 -1
vn 0 -1 0
vn 0 1 0

# texcoords
vt 0.974609 0.5
vt 0.986328 0.5
vt 0.990234 0.5
vt 0.994141 0.5

# verts
v -0.5 -0.4 0.5
v -0.5 -0.4 -0.5
v -0.5 -0.3 0.5
v -0.5 -0.3 -0.5
v -0.5 -0.1 0.5
v -0.5 -0.1 -0.5
v -0.5 0 0.5
v -0.5 0 -0.5
v -0.5 0.2 0.5
v -0.5 0.2 -0.5
v -0.5 0.3 0.5
v -0.5 0.3 -0.5
v -0.4 0.3 0.4
v -0.4 0.3 -0.4
v -0.4 0.4 0.4
v -0.4 0.4 -0.4
v -0.4 0.5 0.4
v -0.4 0.5 -0.4
v -0.2 -0.8 0.2
v -0.2 -0.8 -0.2
v -0.2 -0.4 0.2
v -0.2 -0.4 -0.2
v 0.2 -0.8 0.2
v 0.2 -0.8 -0.2
v 0.2 -0.4 0.2
v 0.2 -0.4 -0.2
v 0.4 0.3 0.4
v 0.4 0.3 -0.4
v 0.4 0.4 0.4
v 0.4 0.4 -0.4
v 0.4 0.5 0.4
v 0.4 0.5 -0.4
v 0.5 -0.4 0.5
v 0.5 -0.4 -0.5
v 0.5 -0.3 0.5
v 0.5 -0.3 -0.5
v 0.5 -0.1 0.5
v 0.5 -0.1 -0.5
v 0.5 0 0.5
v 0.5 0 -0.5
v 0.5 0.2 0.5
v 0.5 0.2 -0.5
v 0.5 0.3 0.5
v 0.5 0.3 -0.5
v -0.5 -0.4 0.5
v -0.5 -0.3 0.5
v -0.5 -0.1 0.5
v -0.5 0 0.5
v -0.5 0.2 0.5
v -0.5 0.3 0.5
v 0.5 -0.4 0.5
v 0.5 -0.3 0.5
v 0.5 -0.1 0.5
v 0.5 0 0.5
v 0.5 0.2 0.5
v 0.5 0.3 0.5
v -0.4 0.3 0.4
v -0.4 0.4 0.4
v -0.4 0.5 0.4
v 0.4 0.3 0.4
v 0.4 0.4 0.4
v 0.4 0.5 0.4
v -0.2 -0.8 0.2
v -0.2 -0.4 0.2
v 0.2 -0.8 0.2
v 0.2 -0.4 0.2
v -0.2 -0.8 -0.2
v -0.2 -0.4 -0.2
v 0.2 -0.8 -0.2
v 0.2 -0.4 -0.2
v -0.4 0.3 -0.4
v -0.4 0.4 -0.4
v -0.4 0.5 -0.4
v 0.4 0.3 -0.4
v 0.4 0.4 -0.4
v 0.4 0.5 -0.4
v -0.5 -0.4 -0.5
v -0.5 -0.3 -0.5
v -0.5 -0.1 -0.5
v -0.5 0 -0.5
v -0.5 0.2 -0.5
v -0.5 0.3 -0.5
v 0.5 -0.4 -0.5
v 0.5 -0.3 -0.5
v 0.5 -0.1 -0.5
v 0.5 0 -0.5
v 0.5 0.2 -0.5
v 0.5 0.3 -0.5
v -0.2 -0.8 0.2
v 0.2 -0.8 0.2
v -0.2 -0.8 -0.2
v 0.2 -0.8 -0.2
v -0.5 -0.4 0.5
v 0.5 -0.4 0.5
v -0.2 -0.4 0.2
v 0.2 -0.4 0.2
v -0.2 -0.4 -0.2
v 0.2 -0.4 -0.2
v -0.5 -0.4 -0.5
v 0.5 -0.4 -0.5
v -0.5 0.3 0.5
v 0.5 0.3 0.5
v -0.4 0.3 0.4
v 0.4 0.3 0.4
v -0.4 0.3 -0.4
v 0.4 0.3 -0.4
v -0.5 0.3 -0.5
v 0.5 0.3 -0.5
v -0.4 0.5 0.4
v 0.4 0.5 0.4
v -0.3 0.5 0.3
v 0.3 0.5 0.3
v -0.3 0.5 -0.3
v 0.3 0.5 -0.3
v -0.4 0.5 -0.4
v 0.4 0.5 -0.4

# faces
f 3/4/1 2/4/1 1/4/1
f 4/4/1 2/4/1 3/4/1
f 5/3/1 4/3/1 3/3/1
f 6/3/1 4/3/1 5/3/1
f 7/4/1 6/4/1 5/4/1
f 8/4/1 6/4/1 7/4/1
f 9/3/1 8/3/1 7/3/1
f 10/3/1 8/3/1 9/3/1
f 11/4/1 10/4/1 9/4/1
f 12/4/1 10/4/1 11/4/1
f 15/3/1 14/3/1 13/3/1
f 16/3/1 14/3/1 15/3/1
f 17/4/1 16/4/1 15/4/1
f 18/4/1 16/4/1 17/4/1
f 21/2/1 20/2/1 19/2/1
f 22/2/1 20/2/1 21/2/1
f 23/2/2 24/2/2 25/2/2
f 25/2/2 24/2/2 26/2/2
f 27/3/2 28/3/2 29/3/2
f 29/3/2 28/3/2 30/3/2
f 29/4/2 30/4/2 31/4/2
f 31/4/2 30/4/2 32/4/2
f 33/4/2 34/4/2 35/4/2
f 35/4/2 34/4/2 36/4/2
f 35/3/2 36/3/2 37/3/2
f 37/3/2 36/3/2 38/3/2
f 37/4/2 38/4/2 39/4/2
f 39/4/2 38/4/2 40/4/2
f 39/3/2 40/3/2 41/3/2
f 41/3/2 40/3/2 42/3/2
f 41/4/2 42/4/2 43/4/2
f 43/4/2 42/4/2 44/4/2
f 51/4/3 46/4/3 45/4/3
f 52/3/3 47/3/3 46/3/3
f 52/4/3 46/4/3 51/4/3
f 53/4/3 48/4/3 47/4/3
f 53/3/3 47/3/3 52/3/3
f 54/3/3 49/3/3 48/3/3
f 54/4/3 48/4/3 53/4/3
f 55/4/3 50/4/3 49/4/3
f 55/3/3 49/3/3 54/3/3
f 56/4/3 50/4/3 55/4/3
f 60/3/3 58/3/3 57/3/3
f 61/4/3 59/4/3 58/4/3
f 61/3/3 58/3/3 60/3/3
f 62/4/3 59/4/3 61/4/3
f 65/2/3 64/2/3 63/2/3
f 66/2/3 64/2/3 65/2/3
f 67/2/4 68/2/4 69/2/4
f 69/2/4 68/2/4 70/2/4
f 71/3/4 72/3/4 74/3/4
f 72/4/4 73/4/4 75/4/4
f 74/3/4 72/3/4 75/3/4
f 75/4/4 73/4/4 76/4/4
f 77/4/4 78/4/4 83/4/4
f 78/3/4 79/3/4 84/3/4
f 83/4/4 78/4/4 84/4/4
f 79/4/4 80/4/4 85/4/4
f 84/3/4 79/3/4 85/3/4
f 80/3/4 81/3/4 86/3/4
f 85/4/4 80/4/4 86/4/4
f 81/4/4 82/4/4 87/4/4
f 86/3/4 81/3/4 87/3/4
f 87/4/4 82/4/4 88/4/4
f 91/2/5 90/2/5 89/2/5
f 92/2/5 90/2/5 91/2/5
f 95/4/5 94/4/5 93/4/5
f 96/4/5 94/4/5 95/4/5
f 97/4/5 95/4/5 93/4/5
f 98/4/5 94/4/5 96/4/5
f 99/4/5 97/4/5 93/4/5
f 99/4/5 98/4/5 97/4/5
f 100/4/5 94/4/5 98/4/5
f 100/4/5 98/4/5 99/4/5
f 101/4/6 102/4/6 103/4/6
f 103/4/6 102/4/6 104/4/6
f 101/4/6 103/4/6 105/4/6
f 104/4/6 102/4/6 106/4/6
f 101/4/6 105/4/6 107/4/6
f 105/4/6 106/4/6 107/4/6
f 106/4/6 102/4/6 108/4/6
f 107/4/6 106/4/6 108/4/6
f 109/4/6 110/4/6 111/4/6
f 111/4/6 110/4/6 112/4/6
f 109/4/6 111/4/6 113/4/6
f 111/3/6 112/3/6 113/3/6
f 112/4/6 110/4/6 114/4/6
f 113/3/6 112/3/6 114/3/6
f 109/4/6 113/4/6 115/4/6
f 113/4/6 114/4/6 115/4/6
f 114/4/6 110/4/6 116/4/6
f 115/4/6 114/4/6 116/4/6
