# WaveFront *.obj file (generated by Cinema 4D)

mtllib ./Roll_1.mtl

v -0.300000 -0.300000 0.300000
v -0.300000 -0.300000 -0.300000
v -0.300000 0.300000 0.300000
v -0.300000 0.300000 -0.300000
v 0.300000 -0.300000 0.300000
v 0.300000 -0.300000 -0.300000
v 0.300000 0.300000 0.300000
v 0.300000 0.300000 -0.300000
v -0.300000 -0.300000 0.300000
v -0.300000 0.300000 0.300000
v 0.300000 -0.300000 0.300000
v 0.300000 0.300000 0.300000
v -0.300000 -0.300000 -0.300000
v -0.300000 0.300000 -0.300000
v 0.300000 -0.300000 -0.300000
v 0.300000 0.300000 -0.300000
v -0.300000 -0.300000 0.300000
v 0.300000 -0.300000 0.300000
v -0.200000 -0.300000 0.200000
v 0.200000 -0.300000 0.200000
v -0.100000 -0.300000 0.100000
v 0.000000 -0.300000 0.100000
v 0.100000 -0.300000 0.100000
v -0.100000 -0.300000 0.000000
v 0.000000 -0.300000 0.000000
v -0.100000 -0.300000 -0.100000
v 0.100000 -0.300000 -0.100000
v -0.200000 -0.300000 -0.200000
v 0.200000 -0.300000 -0.200000
v -0.300000 -0.300000 -0.300000
v 0.300000 -0.300000 -0.300000
v -0.300000 0.300000 0.300000
v 0.300000 0.300000 0.300000
v -0.200000 0.300000 0.200000
v 0.200000 0.300000 0.200000
v -0.100000 0.300000 0.100000
v 0.000000 0.300000 0.100000
v 0.100000 0.300000 0.100000
v -0.100000 0.300000 0.000000
v 0.000000 0.300000 0.000000
v -0.100000 0.300000 -0.100000
v 0.100000 0.300000 -0.100000
v -0.200000 0.300000 -0.200000
v 0.200000 0.300000 -0.200000
v -0.300000 0.300000 -0.300000
v 0.300000 0.300000 -0.300000
# 46 vertices

vn -1.000000 0.000000 0.000000
vn 1.000000 0.000000 0.000000
vn 0.000000 0.000000 1.000000
vn 0.000000 0.000000 -1.000000
vn 0.000000 -1.000000 0.000000
vn 0.000000 1.000000 0.000000
# 6 normals

vt 0.814453 0.500000 0.000000
vt 0.958984 0.500000 0.000000
vt 0.896484 0.500000 0.000000
vt 0.955078 0.500000 0.000000
# 4 texture coordinates

o ????????????
usemtl palette_1
f 3/1/1 2/1/1 1/1/1
f 4/1/1 2/1/1 3/1/1
f 5/1/2 6/1/2 7/1/2
f 7/1/2 6/1/2 8/1/2
f 11/1/3 10/1/3 9/1/3
f 12/1/3 10/1/3 11/1/3
f 13/1/4 14/1/4 15/1/4
f 15/1/4 14/1/4 16/1/4
f 19/1/5 18/1/5 17/1/5
f 20/1/5 18/1/5 19/1/5
f 21/2/5 20/2/5 19/2/5
f 22/2/5 20/2/5 21/2/5
f 23/2/5 20/2/5 22/2/5
f 24/2/5 21/2/5 19/2/5
f 24/3/5 22/3/5 21/3/5
f 25/4/5 23/4/5 22/4/5
f 25/3/5 22/3/5 24/3/5
f 26/2/5 24/2/5 19/2/5
f 26/4/5 25/4/5 24/4/5
f 27/2/5 20/2/5 23/2/5
f 27/4/5 25/4/5 26/4/5
f 27/4/5 23/4/5 25/4/5
f 28/1/5 19/1/5 17/1/5
f 28/2/5 26/2/5 19/2/5
f 28/2/5 27/2/5 26/2/5
f 29/2/5 20/2/5 27/2/5
f 29/2/5 27/2/5 28/2/5
f 29/1/5 18/1/5 20/1/5
f 30/1/5 28/1/5 17/1/5
f 30/1/5 29/1/5 28/1/5
f 31/1/5 18/1/5 29/1/5
f 31/1/5 29/1/5 30/1/5
f 32/1/6 33/1/6 34/1/6
f 34/1/6 33/1/6 35/1/6
f 34/2/6 35/2/6 36/2/6
f 36/2/6 35/2/6 37/2/6
f 37/2/6 35/2/6 38/2/6
f 34/2/6 36/2/6 39/2/6
f 36/3/6 37/3/6 39/3/6
f 37/4/6 38/4/6 40/4/6
f 39/3/6 37/3/6 40/3/6
f 34/2/6 39/2/6 41/2/6
f 39/4/6 40/4/6 41/4/6
f 38/2/6 35/2/6 42/2/6
f 41/4/6 40/4/6 42/4/6
f 40/4/6 38/4/6 42/4/6
f 32/1/6 34/1/6 43/1/6
f 34/2/6 41/2/6 43/2/6
f 41/2/6 42/2/6 43/2/6
f 42/2/6 35/2/6 44/2/6
f 43/2/6 42/2/6 44/2/6
f 35/1/6 33/1/6 44/1/6
f 32/1/6 43/1/6 45/1/6
f 43/1/6 44/1/6 45/1/6
f 44/1/6 33/1/6 46/1/6
f 45/1/6 44/1/6 46/1/6

