# WaveFront *.obj file (generated by Cinema 4D)

mtllib ./Sushi_1.mtl

v -0.550000 -0.600000 0.550000
v -0.550000 -0.600000 -0.550000
v -0.550000 -0.300000 0.250000
v -0.550000 -0.300000 0.150000
v -0.550000 -0.300000 -0.050000
v -0.550000 -0.300000 -0.150000
v -0.550000 -0.200000 0.250000
v -0.550000 -0.200000 0.150000
v -0.550000 -0.200000 -0.050000
v -0.550000 -0.200000 -0.150000
v -0.550000 0.200000 0.350000
v -0.550000 0.200000 0.250000
v -0.550000 0.200000 -0.350000
v -0.550000 0.200000 -0.450000
v -0.550000 0.300000 0.350000
v -0.550000 0.300000 0.250000
v -0.550000 0.300000 -0.350000
v -0.550000 0.300000 -0.450000
v -0.550000 0.400000 0.150000
v -0.550000 0.400000 0.050000
v -0.550000 0.500000 0.150000
v -0.550000 0.500000 0.050000
v -0.550000 0.600000 0.550000
v -0.550000 0.600000 -0.550000
v 0.550000 -0.600000 0.550000
v 0.550000 -0.600000 -0.550000
v 0.550000 -0.500000 0.450000
v 0.550000 -0.500000 0.350000
v 0.550000 -0.400000 0.450000
v 0.550000 -0.400000 0.350000
v 0.550000 -0.400000 -0.250000
v 0.550000 -0.400000 -0.350000
v 0.550000 -0.300000 -0.250000
v 0.550000 -0.300000 -0.350000
v 0.550000 -0.200000 0.250000
v 0.550000 -0.200000 0.150000
v 0.550000 -0.100000 0.250000
v 0.550000 -0.100000 0.150000
v 0.550000 0.200000 0.350000
v 0.550000 0.200000 0.250000
v 0.550000 0.200000 -0.250000
v 0.550000 0.200000 -0.350000
v 0.550000 0.300000 0.350000
v 0.550000 0.300000 0.250000
v 0.550000 0.300000 -0.050000
v 0.550000 0.300000 -0.150000
v 0.550000 0.300000 -0.250000
v 0.550000 0.300000 -0.350000
v 0.550000 0.400000 -0.050000
v 0.550000 0.400000 -0.150000
v 0.550000 0.600000 0.550000
v 0.550000 0.600000 -0.550000
v -0.550000 -0.600000 0.550000
v -0.550000 0.600000 0.550000
v -0.450000 -0.500000 0.550000
v -0.450000 -0.400000 0.550000
v -0.350000 -0.500000 0.550000
v -0.350000 -0.400000 0.550000
v -0.250000 -0.200000 0.550000
v -0.250000 -0.100000 0.550000
v -0.150000 -0.200000 0.550000
v -0.150000 -0.100000 0.550000
v -0.150000 0.300000 0.550000
v -0.150000 0.400000 0.550000
v -0.050000 0.300000 0.550000
v -0.050000 0.400000 0.550000
v 0.150000 0.100000 0.550000
v 0.150000 0.200000 0.550000
v 0.250000 -0.300000 0.550000
v 0.250000 -0.200000 0.550000
v 0.250000 0.100000 0.550000
v 0.250000 0.200000 0.550000
v 0.350000 -0.300000 0.550000
v 0.350000 -0.200000 0.550000
v 0.350000 0.200000 0.550000
v 0.350000 0.300000 0.550000
v 0.450000 0.200000 0.550000
v 0.450000 0.300000 0.550000
v 0.550000 -0.600000 0.550000
v 0.550000 0.600000 0.550000
v -0.550000 -0.600000 -0.550000
v -0.550000 0.600000 -0.550000
v -0.350000 0.200000 -0.550000
v -0.350000 0.300000 -0.550000
v -0.250000 -0.300000 -0.550000
v -0.250000 -0.200000 -0.550000
v -0.250000 0.200000 -0.550000
v -0.250000 0.300000 -0.550000
v -0.150000 -0.300000 -0.550000
v -0.150000 -0.200000 -0.550000
v 0.150000 0.000000 -0.550000
v 0.150000 0.100000 -0.550000
v 0.250000 0.000000 -0.550000
v 0.250000 0.100000 -0.550000
v 0.550000 -0.600000 -0.550000
v 0.550000 0.600000 -0.550000
v -0.550000 -0.600000 0.550000
v 0.550000 -0.600000 0.550000
v -0.450000 -0.600000 0.450000
v 0.450000 -0.600000 0.450000
v -0.250000 -0.600000 0.250000
v 0.050000 -0.600000 0.250000
v 0.150000 -0.600000 0.250000
v 0.250000 -0.600000 0.250000
v 0.050000 -0.600000 0.150000
v 0.150000 -0.600000 0.150000
v 0.250000 -0.600000 0.150000
v -0.250000 -0.600000 0.050000
v -0.150000 -0.600000 0.050000
v -0.050000 -0.600000 0.050000
v 0.050000 -0.600000 0.050000
v 0.150000 -0.600000 0.050000
v 0.250000 -0.600000 0.050000
v -0.150000 -0.600000 -0.050000
v -0.050000 -0.600000 -0.050000
v -0.250000 -0.600000 -0.250000
v 0.050000 -0.600000 -0.250000
v 0.250000 -0.600000 -0.250000
v -0.450000 -0.600000 -0.450000
v 0.450000 -0.600000 -0.450000
v -0.550000 -0.600000 -0.550000
v 0.550000 -0.600000 -0.550000
v -0.550000 0.600000 0.550000
v 0.550000 0.600000 0.550000
v -0.450000 0.600000 0.450000
v 0.450000 0.600000 0.450000
v -0.250000 0.600000 0.250000
v 0.050000 0.600000 0.250000
v 0.250000 0.600000 0.250000
v 0.050000 0.600000 0.150000
v 0.150000 0.600000 0.150000
v -0.250000 0.600000 0.050000
v -0.050000 0.600000 0.050000
v 0.050000 0.600000 0.050000
v 0.150000 0.600000 0.050000
v 0.250000 0.600000 0.050000
v -0.050000 0.600000 -0.050000
v 0.050000 0.600000 -0.050000
v 0.150000 0.600000 -0.050000
v 0.250000 0.600000 -0.050000
v -0.050000 0.600000 -0.150000
v 0.050000 0.600000 -0.150000
v -0.250000 0.600000 -0.250000
v -0.050000 0.600000 -0.250000
v 0.250000 0.600000 -0.250000
v -0.450000 0.600000 -0.450000
v 0.450000 0.600000 -0.450000
v -0.550000 0.600000 -0.550000
v 0.550000 0.600000 -0.550000
# 149 vertices

vn -1.000000 0.000000 0.000000
vn 1.000000 0.000000 0.000000
vn 0.000000 0.000000 1.000000
vn 0.000000 0.000000 -1.000000
vn 0.000000 -1.000000 0.000000
vn 0.000000 1.000000 0.000000
# 6 normals

vt 0.970703 0.500000 0.000000
vt 0.974609 0.500000 0.000000
vt 0.958984 0.500000 0.000000
vt 0.939453 0.500000 0.000000
vt 0.943359 0.500000 0.000000
vt 0.892578 0.500000 0.000000
vt 0.947266 0.500000 0.000000
# 7 texture coordinates

o ????????????
usemtl palette_1
f 3/1/1 2/1/1 1/1/1
f 4/1/1 2/1/1 3/1/1
f 5/1/1 2/1/1 4/1/1
f 6/1/1 2/1/1 5/1/1
f 7/1/1 3/1/1 1/1/1
f 7/2/1 4/2/1 3/2/1
f 8/1/1 5/1/1 4/1/1
f 8/2/1 4/2/1 7/2/1
f 9/2/1 6/2/1 5/2/1
f 9/1/1 5/1/1 8/1/1
f 10/1/1 2/1/1 6/1/1
f 10/2/1 6/2/1 9/2/1
f 11/1/1 9/1/1 8/1/1
f 11/1/1 8/1/1 7/1/1
f 11/1/1 10/1/1 9/1/1
f 11/1/1 7/1/1 1/1/1
f 12/1/1 10/1/1 11/1/1
f 13/1/1 2/1/1 10/1/1
f 13/1/1 10/1/1 12/1/1
f 14/1/1 2/1/1 13/1/1
f 15/2/1 12/2/1 11/2/1
f 15/1/1 11/1/1 1/1/1
f 16/1/1 13/1/1 12/1/1
f 16/2/1 12/2/1 15/2/1
f 17/2/1 14/2/1 13/2/1
f 17/1/1 13/1/1 16/1/1
f 18/1/1 2/1/1 14/1/1
f 18/2/1 14/2/1 17/2/1
f 19/1/1 17/1/1 16/1/1
f 19/1/1 16/1/1 15/1/1
f 19/1/1 18/1/1 17/1/1
f 20/1/1 18/1/1 19/1/1
f 21/1/1 19/1/1 15/1/1
f 21/2/1 20/2/1 19/2/1
f 22/1/1 18/1/1 20/1/1
f 22/2/1 20/2/1 21/2/1
f 23/1/1 15/1/1 1/1/1
f 23/1/1 21/1/1 15/1/1
f 23/1/1 22/1/1 21/1/1
f 24/1/1 2/1/1 18/1/1
f 24/1/1 22/1/1 23/1/1
f 24/1/1 18/1/1 22/1/1
f 25/1/2 26/1/2 27/1/2
f 27/1/2 26/1/2 28/1/2
f 25/1/2 27/1/2 29/1/2
f 27/2/2 28/2/2 29/2/2
f 28/1/2 26/1/2 30/1/2
f 29/2/2 28/2/2 30/2/2
f 30/1/2 26/1/2 31/1/2
f 31/1/2 26/1/2 32/1/2
f 29/1/2 30/1/2 33/1/2
f 30/1/2 31/1/2 33/1/2
f 31/2/2 32/2/2 33/2/2
f 32/1/2 26/1/2 34/1/2
f 33/2/2 32/2/2 34/2/2
f 29/1/2 33/1/2 35/1/2
f 33/1/2 34/1/2 35/1/2
f 35/1/2 34/1/2 36/1/2
f 29/1/2 35/1/2 37/1/2
f 35/2/2 36/2/2 37/2/2
f 36/1/2 34/1/2 38/1/2
f 37/2/2 36/2/2 38/2/2
f 29/1/2 37/1/2 39/1/2
f 37/1/2 38/1/2 39/1/2
f 39/1/2 38/1/2 40/1/2
f 38/1/2 34/1/2 41/1/2
f 40/1/2 38/1/2 41/1/2
f 34/1/2 26/1/2 42/1/2
f 41/1/2 34/1/2 42/1/2
f 39/2/2 40/2/2 43/2/2
f 29/1/2 39/1/2 43/1/2
f 40/1/2 41/1/2 44/1/2
f 43/2/2 40/2/2 44/2/2
f 44/1/2 41/1/2 45/1/2
f 45/1/2 41/1/2 46/1/2
f 41/2/2 42/2/2 47/2/2
f 46/1/2 41/1/2 47/1/2
f 42/1/2 26/1/2 48/1/2
f 47/2/2 42/2/2 48/2/2
f 45/2/2 46/2/2 49/2/2
f 43/1/2 44/1/2 49/1/2
f 44/1/2 45/1/2 49/1/2
f 46/1/2 47/1/2 50/1/2
f 49/2/2 46/2/2 50/2/2
f 47/1/2 48/1/2 50/1/2
f 25/1/2 29/1/2 51/1/2
f 29/1/2 43/1/2 51/1/2
f 49/1/2 50/1/2 51/1/2
f 43/1/2 49/1/2 51/1/2
f 50/1/2 48/1/2 52/1/2
f 51/1/2 50/1/2 52/1/2
f 48/1/2 26/1/2 52/1/2
f 55/1/3 54/1/3 53/1/3
f 56/1/3 54/1/3 55/1/3
f 57/1/3 55/1/3 53/1/3
f 57/2/3 56/2/3 55/2/3
f 58/1/3 54/1/3 56/1/3
f 58/2/3 56/2/3 57/2/3
f 59/1/3 58/1/3 57/1/3
f 59/1/3 54/1/3 58/1/3
f 60/1/3 54/1/3 59/1/3
f 61/1/3 59/1/3 57/1/3
f 61/2/3 60/2/3 59/2/3
f 62/1/3 54/1/3 60/1/3
f 62/2/3 60/2/3 61/2/3
f 63/1/3 54/1/3 62/1/3
f 64/1/3 54/1/3 63/1/3
f 65/1/3 62/1/3 61/1/3
f 65/1/3 63/1/3 62/1/3
f 65/2/3 64/2/3 63/2/3
f 66/1/3 54/1/3 64/1/3
f 66/2/3 64/2/3 65/2/3
f 67/1/3 65/1/3 61/1/3
f 67/1/3 66/1/3 65/1/3
f 68/1/3 66/1/3 67/1/3
f 69/1/3 61/1/3 57/1/3
f 69/1/3 67/1/3 61/1/3
f 70/1/3 67/1/3 69/1/3
f 71/2/3 68/2/3 67/2/3
f 71/1/3 67/1/3 70/1/3
f 72/1/3 66/1/3 68/1/3
f 72/2/3 68/2/3 71/2/3
f 73/2/3 70/2/3 69/2/3
f 73/1/3 69/1/3 57/1/3
f 74/1/3 71/1/3 70/1/3
f 74/2/3 70/2/3 73/2/3
f 74/1/3 72/1/3 71/1/3
f 75/1/3 66/1/3 72/1/3
f 75/1/3 72/1/3 74/1/3
f 76/1/3 66/1/3 75/1/3
f 77/1/3 74/1/3 73/1/3
f 77/1/3 75/1/3 74/1/3
f 77/2/3 76/2/3 75/2/3
f 78/1/3 66/1/3 76/1/3
f 78/2/3 76/2/3 77/2/3
f 79/1/3 57/1/3 53/1/3
f 79/1/3 73/1/3 57/1/3
f 79/1/3 78/1/3 77/1/3
f 79/1/3 77/1/3 73/1/3
f 80/1/3 66/1/3 78/1/3
f 80/1/3 78/1/3 79/1/3
f 80/1/3 54/1/3 66/1/3
f 81/1/4 82/1/4 83/1/4
f 83/1/4 82/1/4 84/1/4
f 81/1/4 83/1/4 85/1/4
f 85/1/4 83/1/4 86/1/4
f 83/2/4 84/2/4 87/2/4
f 86/1/4 83/1/4 87/1/4
f 84/1/4 82/1/4 88/1/4
f 87/2/4 84/2/4 88/2/4
f 85/2/4 86/2/4 89/2/4
f 81/1/4 85/1/4 89/1/4
f 86/1/4 87/1/4 90/1/4
f 89/2/4 86/2/4 90/2/4
f 87/1/4 88/1/4 90/1/4
f 89/1/4 90/1/4 91/1/4
f 90/1/4 88/1/4 91/1/4
f 91/1/4 88/1/4 92/1/4
f 89/1/4 91/1/4 93/1/4
f 91/2/4 92/2/4 93/2/4
f 92/1/4 88/1/4 94/1/4
f 93/2/4 92/2/4 94/2/4
f 81/1/4 89/1/4 95/1/4
f 89/1/4 93/1/4 95/1/4
f 93/1/4 94/1/4 95/1/4
f 94/1/4 88/1/4 96/1/4
f 95/1/4 94/1/4 96/1/4
f 88/1/4 82/1/4 96/1/4
f 99/1/5 98/1/5 97/1/5
f 100/1/5 98/1/5 99/1/5
f 101/3/5 100/3/5 99/3/5
f 102/3/5 100/3/5 101/3/5
f 103/3/5 100/3/5 102/3/5
f 104/3/5 100/3/5 103/3/5
f 105/4/5 102/4/5 101/4/5
f 105/5/5 103/5/5 102/5/5
f 106/6/5 104/6/5 103/6/5
f 106/5/5 103/5/5 105/5/5
f 107/3/5 100/3/5 104/3/5
f 107/6/5 104/6/5 106/6/5
f 108/3/5 101/3/5 99/3/5
f 108/4/5 105/4/5 101/4/5
f 109/4/5 105/4/5 108/4/5
f 110/4/5 105/4/5 109/4/5
f 111/6/5 106/6/5 105/6/5
f 111/4/5 105/4/5 110/4/5
f 112/5/5 107/5/5 106/5/5
f 112/6/5 106/6/5 111/6/5
f 113/3/5 100/3/5 107/3/5
f 113/5/5 107/5/5 112/5/5
f 114/4/5 110/4/5 109/4/5
f 114/6/5 109/6/5 108/6/5
f 115/6/5 111/6/5 110/6/5
f 115/4/5 110/4/5 114/4/5
f 116/6/5 114/6/5 108/6/5
f 116/3/5 108/3/5 99/3/5
f 116/6/5 115/6/5 114/6/5
f 117/7/5 112/7/5 111/7/5
f 117/6/5 115/6/5 116/6/5
f 117/6/5 111/6/5 115/6/5
f 117/7/5 113/7/5 112/7/5
f 118/3/5 100/3/5 113/3/5
f 118/7/5 113/7/5 117/7/5
f 119/1/5 99/1/5 97/1/5
f 119/3/5 116/3/5 99/3/5
f 119/3/5 118/3/5 117/3/5
f 119/3/5 117/3/5 116/3/5
f 120/3/5 100/3/5 118/3/5
f 120/3/5 118/3/5 119/3/5
f 120/1/5 98/1/5 100/1/5
f 121/1/5 119/1/5 97/1/5
f 121/1/5 120/1/5 119/1/5
f 122/1/5 98/1/5 120/1/5
f 122/1/5 120/1/5 121/1/5
f 123/1/6 124/1/6 125/1/6
f 125/1/6 124/1/6 126/1/6
f 125/3/6 126/3/6 127/3/6
f 127/3/6 126/3/6 128/3/6
f 128/3/6 126/3/6 129/3/6
f 127/7/6 128/7/6 130/7/6
f 128/6/6 129/6/6 130/6/6
f 130/6/6 129/6/6 131/6/6
f 125/3/6 127/3/6 132/3/6
f 127/7/6 130/7/6 132/7/6
f 132/7/6 130/7/6 133/7/6
f 130/5/6 131/5/6 134/5/6
f 133/7/6 130/7/6 134/7/6
f 131/6/6 129/6/6 135/6/6
f 134/5/6 131/5/6 135/5/6
f 129/3/6 126/3/6 136/3/6
f 135/6/6 129/6/6 136/6/6
f 133/4/6 134/4/6 137/4/6
f 134/4/6 135/4/6 137/4/6
f 132/6/6 133/6/6 137/6/6
f 137/4/6 135/4/6 138/4/6
f 135/5/6 136/5/6 139/5/6
f 138/4/6 135/4/6 139/4/6
f 136/3/6 126/3/6 140/3/6
f 139/5/6 136/5/6 140/5/6
f 137/6/6 138/6/6 141/6/6
f 132/6/6 137/6/6 141/6/6
f 138/4/6 139/4/6 142/4/6
f 141/6/6 138/6/6 142/6/6
f 139/4/6 140/4/6 142/4/6
f 132/6/6 141/6/6 143/6/6
f 125/3/6 132/3/6 143/3/6
f 141/4/6 142/4/6 144/4/6
f 143/6/6 141/6/6 144/6/6
f 142/4/6 140/4/6 145/4/6
f 144/4/6 142/4/6 145/4/6
f 140/3/6 126/3/6 145/3/6
f 123/1/6 125/1/6 146/1/6
f 143/3/6 144/3/6 146/3/6
f 144/3/6 145/3/6 146/3/6
f 125/3/6 143/3/6 146/3/6
f 145/3/6 126/3/6 147/3/6
f 146/3/6 145/3/6 147/3/6
f 126/1/6 124/1/6 147/1/6
f 123/1/6 146/1/6 148/1/6
f 146/1/6 147/1/6 148/1/6
f 147/1/6 124/1/6 149/1/6
f 148/1/6 147/1/6 149/1/6

