# WaveFront *.obj file (generated by Cinema 4D)

mtllib ./Sushi_3.mtl

v -0.800000 0.050000 0.550000
v -0.800000 0.050000 -0.550000
v -0.800000 0.250000 0.550000
v -0.800000 0.250000 -0.550000
v -0.700000 -0.250000 0.450000
v -0.700000 -0.250000 0.350000
v -0.700000 -0.250000 0.250000
v -0.700000 -0.250000 0.150000
v -0.700000 -0.250000 0.050000
v -0.700000 -0.250000 -0.050000
v -0.700000 -0.250000 -0.250000
v -0.700000 -0.250000 -0.350000
v -0.700000 -0.250000 -0.450000
v -0.700000 -0.150000 0.450000
v -0.700000 -0.150000 0.350000
v -0.700000 -0.150000 0.250000
v -0.700000 -0.150000 0.150000
v -0.700000 -0.050000 0.350000
v -0.700000 -0.050000 0.250000
v -0.700000 -0.050000 0.050000
v -0.700000 -0.050000 -0.050000
v -0.700000 -0.050000 -0.150000
v -0.700000 -0.050000 -0.250000
v -0.700000 -0.050000 -0.350000
v -0.700000 0.050000 0.450000
v -0.700000 0.050000 0.350000
v -0.700000 0.050000 0.250000
v -0.700000 0.050000 -0.150000
v -0.700000 0.050000 -0.250000
v -0.700000 0.050000 -0.450000
v 0.700000 -0.250000 0.450000
v 0.700000 -0.250000 0.150000
v 0.700000 -0.250000 -0.050000
v 0.700000 -0.250000 -0.150000
v 0.700000 -0.250000 -0.250000
v 0.700000 -0.250000 -0.350000
v 0.700000 -0.250000 -0.450000
v 0.700000 -0.150000 0.450000
v 0.700000 -0.150000 0.150000
v 0.700000 -0.150000 0.050000
v 0.700000 -0.150000 -0.150000
v 0.700000 -0.150000 -0.250000
v 0.700000 -0.150000 -0.350000
v 0.700000 -0.150000 -0.450000
v 0.700000 -0.050000 0.450000
v 0.700000 -0.050000 0.150000
v 0.700000 -0.050000 0.050000
v 0.700000 -0.050000 -0.050000
v 0.700000 -0.050000 -0.150000
v 0.700000 -0.050000 -0.250000
v 0.700000 -0.050000 -0.350000
v 0.700000 -0.050000 -0.450000
v 0.700000 0.050000 0.450000
v 0.700000 0.050000 -0.150000
v 0.700000 0.050000 -0.250000
v 0.700000 0.050000 -0.350000
v 0.700000 0.050000 -0.450000
v 0.800000 0.050000 0.550000
v 0.800000 0.050000 -0.550000
v 0.800000 0.250000 0.550000
v 0.800000 0.250000 -0.550000
v -0.800000 0.050000 0.550000
v -0.800000 0.250000 0.550000
v -0.700000 0.050000 0.550000
v -0.700000 0.250000 0.550000
v -0.600000 0.050000 0.550000
v -0.600000 0.250000 0.550000
v -0.400000 0.050000 0.550000
v -0.400000 0.250000 0.550000
v -0.300000 0.050000 0.550000
v -0.300000 0.250000 0.550000
v -0.100000 0.050000 0.550000
v -0.100000 0.250000 0.550000
v 0.000000 0.050000 0.550000
v 0.000000 0.250000 0.550000
v 0.200000 0.050000 0.550000
v 0.200000 0.250000 0.550000
v 0.300000 0.050000 0.550000
v 0.300000 0.250000 0.550000
v 0.500000 0.050000 0.550000
v 0.500000 0.250000 0.550000
v 0.600000 0.050000 0.550000
v 0.600000 0.250000 0.550000
v 0.800000 0.050000 0.550000
v 0.800000 0.250000 0.550000
v -0.700000 -0.250000 0.450000
v -0.700000 -0.150000 0.450000
v -0.700000 0.050000 0.450000
v -0.600000 -0.050000 0.450000
v -0.600000 0.050000 0.450000
v -0.500000 -0.250000 0.450000
v -0.500000 -0.150000 0.450000
v -0.500000 -0.050000 0.450000
v -0.500000 0.050000 0.450000
v -0.400000 -0.250000 0.450000
v -0.400000 -0.150000 0.450000
v -0.400000 -0.050000 0.450000
v -0.400000 0.050000 0.450000
v -0.300000 -0.250000 0.450000
v -0.300000 -0.150000 0.450000
v -0.300000 0.050000 0.450000
v -0.200000 -0.150000 0.450000
v -0.200000 0.050000 0.450000
v -0.100000 -0.250000 0.450000
v -0.100000 -0.150000 0.450000
v -0.100000 0.050000 0.450000
v 0.000000 -0.250000 0.450000
v 0.000000 -0.150000 0.450000
v 0.000000 -0.050000 0.450000
v 0.000000 0.050000 0.450000
v 0.100000 -0.150000 0.450000
v 0.100000 -0.050000 0.450000
v 0.100000 0.050000 0.450000
v 0.200000 -0.250000 0.450000
v 0.200000 -0.150000 0.450000
v 0.200000 -0.050000 0.450000
v 0.200000 0.050000 0.450000
v 0.300000 -0.250000 0.450000
v 0.300000 -0.150000 0.450000
v 0.300000 -0.050000 0.450000
v 0.300000 0.050000 0.450000
v 0.400000 -0.150000 0.450000
v 0.400000 -0.050000 0.450000
v 0.400000 0.050000 0.450000
v 0.500000 -0.250000 0.450000
v 0.500000 -0.050000 0.450000
v 0.500000 0.050000 0.450000
v 0.600000 -0.250000 0.450000
v 0.600000 -0.150000 0.450000
v 0.600000 0.050000 0.450000
v 0.700000 -0.250000 0.450000
v 0.700000 -0.150000 0.450000
v 0.700000 -0.050000 0.450000
v 0.700000 0.050000 0.450000
v -0.700000 -0.250000 -0.450000
v -0.700000 0.050000 -0.450000
v -0.600000 -0.250000 -0.450000
v -0.600000 -0.150000 -0.450000
v -0.600000 -0.050000 -0.450000
v -0.600000 0.050000 -0.450000
v -0.500000 -0.250000 -0.450000
v -0.500000 -0.150000 -0.450000
v -0.500000 -0.050000 -0.450000
v -0.500000 0.050000 -0.450000
v -0.400000 -0.150000 -0.450000
v -0.400000 -0.050000 -0.450000
v -0.400000 0.050000 -0.450000
v -0.300000 -0.250000 -0.450000
v -0.300000 -0.150000 -0.450000
v -0.300000 -0.050000 -0.450000
v -0.300000 0.050000 -0.450000
v -0.100000 -0.050000 -0.450000
v -0.100000 0.050000 -0.450000
v 0.000000 -0.250000 -0.450000
v 0.000000 -0.150000 -0.450000
v 0.000000 -0.050000 -0.450000
v 0.000000 0.050000 -0.450000
v 0.200000 0.050000 -0.450000
v 0.300000 0.050000 -0.450000
v 0.400000 -0.150000 -0.450000
v 0.400000 -0.050000 -0.450000
v 0.400000 0.050000 -0.450000
v 0.500000 0.050000 -0.450000
v 0.600000 -0.250000 -0.450000
v 0.600000 -0.150000 -0.450000
v 0.600000 0.050000 -0.450000
v 0.700000 -0.250000 -0.450000
v 0.700000 -0.150000 -0.450000
v 0.700000 -0.050000 -0.450000
v 0.700000 0.050000 -0.450000
v -0.800000 0.050000 -0.550000
v -0.800000 0.250000 -0.550000
v -0.700000 0.050000 -0.550000
v -0.700000 0.250000 -0.550000
v -0.600000 0.050000 -0.550000
v -0.600000 0.250000 -0.550000
v -0.400000 0.050000 -0.550000
v -0.400000 0.250000 -0.550000
v -0.300000 0.050000 -0.550000
v -0.300000 0.250000 -0.550000
v -0.100000 0.050000 -0.550000
v -0.100000 0.250000 -0.550000
v 0.000000 0.050000 -0.550000
v 0.000000 0.250000 -0.550000
v 0.200000 0.050000 -0.550000
v 0.200000 0.250000 -0.550000
v 0.300000 0.050000 -0.550000
v 0.300000 0.250000 -0.550000
v 0.500000 0.050000 -0.550000
v 0.500000 0.250000 -0.550000
v 0.600000 0.050000 -0.550000
v 0.600000 0.250000 -0.550000
v 0.800000 0.050000 -0.550000
v 0.800000 0.250000 -0.550000
v -0.700000 -0.250000 0.450000
v -0.500000 -0.250000 0.450000
v -0.400000 -0.250000 0.450000
v -0.300000 -0.250000 0.450000
v -0.100000 -0.250000 0.450000
v 0.000000 -0.250000 0.450000
v 0.200000 -0.250000 0.450000
v 0.300000 -0.250000 0.450000
v 0.500000 -0.250000 0.450000
v 0.600000 -0.250000 0.450000
v 0.700000 -0.250000 0.450000
v -0.700000 -0.250000 0.350000
v -0.600000 -0.250000 0.350000
v -0.400000 -0.250000 0.350000
v -0.300000 -0.250000 0.350000
v -0.100000 -0.250000 0.350000
v 0.000000 -0.250000 0.350000
v 0.200000 -0.250000 0.350000
v 0.300000 -0.250000 0.350000
v 0.500000 -0.250000 0.350000
v 0.600000 -0.250000 0.350000
v -0.700000 -0.250000 0.250000
v -0.600000 -0.250000 0.250000
v -0.500000 -0.250000 0.250000
v -0.300000 -0.250000 0.250000
v -0.100000 -0.250000 0.250000
v 0.000000 -0.250000 0.250000
v 0.300000 -0.250000 0.250000
v 0.400000 -0.250000 0.250000
v 0.500000 -0.250000 0.250000
v 0.600000 -0.250000 0.250000
v -0.700000 -0.250000 0.150000
v -0.600000 -0.250000 0.150000
v -0.500000 -0.250000 0.150000
v -0.300000 -0.250000 0.150000
v -0.100000 -0.250000 0.150000
v 0.000000 -0.250000 0.150000
v 0.100000 -0.250000 0.150000
v 0.200000 -0.250000 0.150000
v 0.300000 -0.250000 0.150000
v 0.400000 -0.250000 0.150000
v 0.500000 -0.250000 0.150000
v 0.600000 -0.250000 0.150000
v 0.700000 -0.250000 0.150000
v -0.700000 -0.250000 0.050000
v -0.600000 -0.250000 0.050000
v -0.300000 -0.250000 0.050000
v -0.100000 -0.250000 0.050000
v 0.100000 -0.250000 0.050000
v 0.200000 -0.250000 0.050000
v 0.500000 -0.250000 0.050000
v 0.600000 -0.250000 0.050000
v -0.700000 -0.250000 -0.050000
v -0.600000 -0.250000 -0.050000
v -0.200000 -0.250000 -0.050000
v -0.100000 -0.250000 -0.050000
v 0.100000 -0.250000 -0.050000
v 0.300000 -0.250000 -0.050000
v 0.500000 -0.250000 -0.050000
v 0.700000 -0.250000 -0.050000
v -0.600000 -0.250000 -0.150000
v -0.200000 -0.250000 -0.150000
v 0.100000 -0.250000 -0.150000
v 0.200000 -0.250000 -0.150000
v 0.300000 -0.250000 -0.150000
v 0.500000 -0.250000 -0.150000
v 0.600000 -0.250000 -0.150000
v 0.700000 -0.250000 -0.150000
v -0.700000 -0.250000 -0.250000
v -0.600000 -0.250000 -0.250000
v -0.500000 -0.250000 -0.250000
v -0.400000 -0.250000 -0.250000
v -0.300000 -0.250000 -0.250000
v -0.200000 -0.250000 -0.250000
v 0.100000 -0.250000 -0.250000
v 0.200000 -0.250000 -0.250000
v 0.300000 -0.250000 -0.250000
v 0.400000 -0.250000 -0.250000
v 0.500000 -0.250000 -0.250000
v 0.600000 -0.250000 -0.250000
v 0.700000 -0.250000 -0.250000
v -0.700000 -0.250000 -0.350000
v -0.600000 -0.250000 -0.350000
v -0.500000 -0.250000 -0.350000
v -0.400000 -0.250000 -0.350000
v -0.200000 -0.250000 -0.350000
v 0.000000 -0.250000 -0.350000
v 0.300000 -0.250000 -0.350000
v 0.400000 -0.250000 -0.350000
v 0.500000 -0.250000 -0.350000
v 0.600000 -0.250000 -0.350000
v 0.700000 -0.250000 -0.350000
v -0.700000 -0.250000 -0.450000
v -0.600000 -0.250000 -0.450000
v -0.500000 -0.250000 -0.450000
v -0.300000 -0.250000 -0.450000
v 0.000000 -0.250000 -0.450000
v 0.600000 -0.250000 -0.450000
v 0.700000 -0.250000 -0.450000
v -0.800000 0.050000 0.550000
v -0.700000 0.050000 0.550000
v -0.600000 0.050000 0.550000
v -0.400000 0.050000 0.550000
v -0.300000 0.050000 0.550000
v -0.100000 0.050000 0.550000
v 0.000000 0.050000 0.550000
v 0.200000 0.050000 0.550000
v 0.300000 0.050000 0.550000
v 0.500000 0.050000 0.550000
v 0.600000 0.050000 0.550000
v 0.800000 0.050000 0.550000
v -0.700000 0.050000 0.450000
v -0.600000 0.050000 0.450000
v -0.500000 0.050000 0.450000
v -0.400000 0.050000 0.450000
v -0.300000 0.050000 0.450000
v -0.200000 0.050000 0.450000
v -0.100000 0.050000 0.450000
v 0.000000 0.050000 0.450000
v 0.100000 0.050000 0.450000
v 0.200000 0.050000 0.450000
v 0.300000 0.050000 0.450000
v 0.400000 0.050000 0.450000
v 0.500000 0.050000 0.450000
v 0.600000 0.050000 0.450000
v 0.700000 0.050000 0.450000
v -0.700000 0.050000 0.350000
v -0.700000 0.050000 0.250000
v -0.700000 0.050000 -0.150000
v 0.700000 0.050000 -0.150000
v -0.700000 0.050000 -0.250000
v 0.700000 0.050000 -0.250000
v 0.700000 0.050000 -0.350000
v -0.700000 0.050000 -0.450000
v -0.600000 0.050000 -0.450000
v -0.500000 0.050000 -0.450000
v -0.400000 0.050000 -0.450000
v -0.300000 0.050000 -0.450000
v -0.100000 0.050000 -0.450000
v 0.000000 0.050000 -0.450000
v 0.200000 0.050000 -0.450000
v 0.300000 0.050000 -0.450000
v 0.400000 0.050000 -0.450000
v 0.500000 0.050000 -0.450000
v 0.600000 0.050000 -0.450000
v 0.700000 0.050000 -0.450000
v -0.800000 0.050000 -0.550000
v -0.700000 0.050000 -0.550000
v -0.600000 0.050000 -0.550000
v -0.400000 0.050000 -0.550000
v -0.300000 0.050000 -0.550000
v -0.100000 0.050000 -0.550000
v 0.000000 0.050000 -0.550000
v 0.200000 0.050000 -0.550000
v 0.300000 0.050000 -0.550000
v 0.500000 0.050000 -0.550000
v 0.600000 0.050000 -0.550000
v 0.800000 0.050000 -0.550000
v -0.800000 0.250000 0.550000
v -0.700000 0.250000 0.550000
v -0.600000 0.250000 0.550000
v -0.400000 0.250000 0.550000
v -0.300000 0.250000 0.550000
v -0.100000 0.250000 0.550000
v 0.000000 0.250000 0.550000
v 0.200000 0.250000 0.550000
v 0.300000 0.250000 0.550000
v 0.500000 0.250000 0.550000
v 0.600000 0.250000 0.550000
v 0.800000 0.250000 0.550000
v -0.800000 0.250000 -0.550000
v -0.700000 0.250000 -0.550000
v -0.600000 0.250000 -0.550000
v -0.400000 0.250000 -0.550000
v -0.300000 0.250000 -0.550000
v -0.100000 0.250000 -0.550000
v 0.000000 0.250000 -0.550000
v 0.200000 0.250000 -0.550000
v 0.300000 0.250000 -0.550000
v 0.500000 0.250000 -0.550000
v 0.600000 0.250000 -0.550000
v 0.800000 0.250000 -0.550000
# 376 vertices

vn -1.000000 0.000000 0.000000
vn 1.000000 0.000000 0.000000
vn 0.000000 0.000000 1.000000
vn 0.000000 0.000000 -1.000000
vn 0.000000 -1.000000 0.000000
vn 0.000000 1.000000 0.000000
# 6 normals

vt 0.908203 0.500000 0.000000
vt 0.962891 0.500000 0.000000
vt 0.958984 0.500000 0.000000
vt 0.912109 0.500000 0.000000
# 4 texture coordinates

o ????????????
usemtl palette_1
f 3/1/1 2/1/1 1/1/1
f 4/1/1 2/1/1 3/1/1
f 14/2/1 6/2/1 5/2/1
f 15/3/1 7/3/1 6/3/1
f 15/2/1 6/2/1 14/2/1
f 16/2/1 8/2/1 7/2/1
f 16/3/1 7/3/1 15/3/1
f 17/3/1 9/3/1 8/3/1
f 17/2/1 8/2/1 16/2/1
f 18/3/1 15/3/1 14/3/1
f 18/3/1 16/3/1 15/3/1
f 18/3/1 17/3/1 16/3/1
f 19/3/1 17/3/1 18/3/1
f 20/3/1 9/3/1 17/3/1
f 20/3/1 17/3/1 19/3/1
f 20/2/1 10/2/1 9/2/1
f 21/3/1 11/3/1 10/3/1
f 21/2/1 10/2/1 20/2/1
f 22/3/1 11/3/1 21/3/1
f 23/2/1 12/2/1 11/2/1
f 23/3/1 11/3/1 22/3/1
f 24/3/1 13/3/1 12/3/1
f 24/2/1 12/2/1 23/2/1
f 25/3/1 18/3/1 14/3/1
f 26/2/1 19/2/1 18/2/1
f 26/3/1 18/3/1 25/3/1
f 27/3/1 22/3/1 21/3/1
f 27/2/1 19/2/1 26/2/1
f 27/3/1 20/3/1 19/3/1
f 27/3/1 21/3/1 20/3/1
f 28/2/1 23/2/1 22/2/1
f 28/3/1 22/3/1 27/3/1
f 29/3/1 24/3/1 23/3/1
f 29/2/1 23/2/1 28/2/1
f 30/3/1 13/3/1 24/3/1
f 30/3/1 24/3/1 29/3/1
f 31/3/2 32/3/2 38/3/2
f 32/2/2 33/2/2 39/2/2
f 38/3/2 32/3/2 39/3/2
f 39/2/2 33/2/2 40/2/2
f 33/3/2 34/3/2 41/3/2
f 34/2/2 35/2/2 41/2/2
f 35/3/2 36/3/2 42/3/2
f 41/2/2 35/2/2 42/2/2
f 36/2/2 37/2/2 43/2/2
f 42/3/2 36/3/2 43/3/2
f 43/2/2 37/2/2 44/2/2
f 38/2/2 39/2/2 45/2/2
f 39/3/2 40/3/2 46/3/2
f 45/2/2 39/2/2 46/2/2
f 40/2/2 33/2/2 47/2/2
f 46/3/2 40/3/2 47/3/2
f 41/3/2 42/3/2 48/3/2
f 47/2/2 33/2/2 48/2/2
f 33/3/2 41/3/2 48/3/2
f 43/3/2 44/3/2 48/3/2
f 42/3/2 43/3/2 48/3/2
f 48/3/2 44/3/2 49/3/2
f 49/3/2 44/3/2 50/3/2
f 50/3/2 44/3/2 51/3/2
f 51/3/2 44/3/2 52/3/2
f 46/3/2 47/3/2 53/3/2
f 45/3/2 46/3/2 53/3/2
f 47/3/2 48/3/2 53/3/2
f 48/3/2 49/3/2 53/3/2
f 49/2/2 50/2/2 54/2/2
f 53/3/2 49/3/2 54/3/2
f 50/3/2 51/3/2 55/3/2
f 54/2/2 50/2/2 55/2/2
f 51/2/2 52/2/2 56/2/2
f 55/3/2 51/3/2 56/3/2
f 56/2/2 52/2/2 57/2/2
f 58/1/2 59/1/2 60/1/2
f 60/1/2 59/1/2 61/1/2
f 64/1/3 63/1/3 62/1/3
f 65/1/3 63/1/3 64/1/3
f 66/4/3 65/4/3 64/4/3
f 67/4/3 65/4/3 66/4/3
f 68/1/3 67/1/3 66/1/3
f 69/1/3 67/1/3 68/1/3
f 70/4/3 69/4/3 68/4/3
f 71/4/3 69/4/3 70/4/3
f 72/1/3 71/1/3 70/1/3
f 73/1/3 71/1/3 72/1/3
f 74/4/3 73/4/3 72/4/3
f 75/4/3 73/4/3 74/4/3
f 76/1/3 75/1/3 74/1/3
f 77/1/3 75/1/3 76/1/3
f 78/4/3 77/4/3 76/4/3
f 79/4/3 77/4/3 78/4/3
f 80/1/3 79/1/3 78/1/3
f 81/1/3 79/1/3 80/1/3
f 82/4/3 81/4/3 80/4/3
f 83/4/3 81/4/3 82/4/3
f 84/1/3 83/1/3 82/1/3
f 85/1/3 83/1/3 84/1/3
f 89/3/3 88/3/3 87/3/3
f 90/3/3 88/3/3 89/3/3
f 91/2/3 87/2/3 86/2/3
f 92/3/3 89/3/3 87/3/3
f 92/2/3 87/2/3 91/2/3
f 93/2/3 90/2/3 89/2/3
f 93/3/3 89/3/3 92/3/3
f 94/2/3 90/2/3 93/2/3
f 95/3/3 92/3/3 91/3/3
f 96/2/3 93/2/3 92/2/3
f 96/3/3 92/3/3 95/3/3
f 97/3/3 94/3/3 93/3/3
f 97/2/3 93/2/3 96/2/3
f 98/3/3 94/3/3 97/3/3
f 99/2/3 96/2/3 95/2/3
f 100/3/3 97/3/3 96/3/3
f 100/2/3 96/2/3 99/2/3
f 100/3/3 98/3/3 97/3/3
f 101/3/3 98/3/3 100/3/3
f 102/3/3 100/3/3 99/3/3
f 102/3/3 101/3/3 100/3/3
f 103/3/3 101/3/3 102/3/3
f 104/3/3 102/3/3 99/3/3
f 105/2/3 103/2/3 102/2/3
f 105/3/3 102/3/3 104/3/3
f 106/2/3 103/2/3 105/2/3
f 107/2/3 105/2/3 104/2/3
f 108/3/3 106/3/3 105/3/3
f 108/2/3 105/2/3 107/2/3
f 109/3/3 106/3/3 108/3/3
f 110/3/3 106/3/3 109/3/3
f 111/3/3 108/3/3 107/3/3
f 111/3/3 109/3/3 108/3/3
f 112/2/3 110/2/3 109/2/3
f 112/3/3 109/3/3 111/3/3
f 113/2/3 110/2/3 112/2/3
f 114/3/3 111/3/3 107/3/3
f 115/2/3 112/2/3 111/2/3
f 115/3/3 111/3/3 114/3/3
f 116/3/3 113/3/3 112/3/3
f 116/2/3 112/2/3 115/2/3
f 117/3/3 113/3/3 116/3/3
f 118/2/3 115/2/3 114/2/3
f 119/3/3 116/3/3 115/3/3
f 119/2/3 115/2/3 118/2/3
f 119/3/3 117/3/3 116/3/3
f 120/3/3 117/3/3 119/3/3
f 121/3/3 117/3/3 120/3/3
f 122/3/3 119/3/3 118/3/3
f 122/2/3 120/2/3 119/2/3
f 123/3/3 121/3/3 120/3/3
f 123/2/3 120/2/3 122/2/3
f 124/3/3 121/3/3 123/3/3
f 125/3/3 122/3/3 118/3/3
f 125/3/3 123/3/3 122/3/3
f 126/2/3 124/2/3 123/2/3
f 126/3/3 123/3/3 125/3/3
f 127/2/3 124/2/3 126/2/3
f 128/2/3 126/2/3 125/2/3
f 129/2/3 126/2/3 128/2/3
f 130/3/3 127/3/3 126/3/3
f 131/3/3 129/3/3 128/3/3
f 132/2/3 126/2/3 129/2/3
f 132/3/3 129/3/3 131/3/3
f 133/3/3 130/3/3 126/3/3
f 133/2/3 126/2/3 132/2/3
f 134/3/3 130/3/3 133/3/3
f 135/3/4 136/3/4 137/3/4
f 137/3/4 136/3/4 138/3/4
f 138/3/4 136/3/4 139/3/4
f 139/3/4 136/3/4 140/3/4
f 137/2/4 138/2/4 141/2/4
f 138/3/4 139/3/4 142/3/4
f 141/2/4 138/2/4 142/2/4
f 139/2/4 140/2/4 143/2/4
f 142/3/4 139/3/4 143/3/4
f 143/2/4 140/2/4 144/2/4
f 141/3/4 142/3/4 145/3/4
f 142/3/4 143/3/4 145/3/4
f 143/3/4 144/3/4 145/3/4
f 145/3/4 144/3/4 146/3/4
f 146/3/4 144/3/4 147/3/4
f 141/3/4 145/3/4 148/3/4
f 145/2/4 146/2/4 149/2/4
f 148/3/4 145/3/4 149/3/4
f 146/3/4 147/3/4 150/3/4
f 149/2/4 146/2/4 150/2/4
f 150/3/4 147/3/4 151/3/4
f 149/3/4 150/3/4 152/3/4
f 150/3/4 151/3/4 152/3/4
f 152/3/4 151/3/4 153/3/4
f 148/2/4 149/2/4 154/2/4
f 149/3/4 152/3/4 155/3/4
f 154/2/4 149/2/4 155/2/4
f 152/2/4 153/2/4 156/2/4
f 155/3/4 152/3/4 156/3/4
f 156/2/4 153/2/4 157/2/4
f 156/3/4 157/3/4 158/3/4
f 156/3/4 158/3/4 159/3/4
f 154/3/4 155/3/4 160/3/4
f 155/2/4 156/2/4 160/2/4
f 156/3/4 159/3/4 161/3/4
f 160/2/4 156/2/4 161/2/4
f 161/3/4 159/3/4 162/3/4
f 161/2/4 162/2/4 163/2/4
f 154/3/4 160/3/4 164/3/4
f 160/3/4 161/3/4 164/3/4
f 164/3/4 161/3/4 165/3/4
f 161/2/4 163/2/4 166/2/4
f 164/2/4 165/2/4 167/2/4
f 165/3/4 161/3/4 168/3/4
f 167/2/4 165/2/4 168/2/4
f 161/2/4 166/2/4 169/2/4
f 168/3/4 161/3/4 169/3/4
f 169/2/4 166/2/4 170/2/4
f 171/1/4 172/1/4 173/1/4
f 173/1/4 172/1/4 174/1/4
f 173/4/4 174/4/4 175/4/4
f 175/4/4 174/4/4 176/4/4
f 175/1/4 176/1/4 177/1/4
f 177/1/4 176/1/4 178/1/4
f 177/4/4 178/4/4 179/4/4
f 179/4/4 178/4/4 180/4/4
f 179/1/4 180/1/4 181/1/4
f 181/1/4 180/1/4 182/1/4
f 181/4/4 182/4/4 183/4/4
f 183/4/4 182/4/4 184/4/4
f 183/1/4 184/1/4 185/1/4
f 185/1/4 184/1/4 186/1/4
f 185/4/4 186/4/4 187/4/4
f 187/4/4 186/4/4 188/4/4
f 187/1/4 188/1/4 189/1/4
f 189/1/4 188/1/4 190/1/4
f 189/4/4 190/4/4 191/4/4
f 191/4/4 190/4/4 192/4/4
f 191/1/4 192/1/4 193/1/4
f 193/1/4 192/1/4 194/1/4
f 206/2/5 196/2/5 195/2/5
f 207/2/5 196/2/5 206/2/5
f 208/3/5 197/3/5 196/3/5
f 208/2/5 198/2/5 197/2/5
f 209/3/5 199/3/5 198/3/5
f 209/2/5 198/2/5 208/2/5
f 210/2/5 200/2/5 199/2/5
f 210/3/5 199/3/5 209/3/5
f 211/3/5 201/3/5 200/3/5
f 211/2/5 200/2/5 210/2/5
f 212/2/5 202/2/5 201/2/5
f 212/3/5 201/3/5 211/3/5
f 213/3/5 203/3/5 202/3/5
f 213/2/5 202/2/5 212/2/5
f 214/2/5 204/2/5 203/2/5
f 214/3/5 203/3/5 213/3/5
f 215/3/5 205/3/5 204/3/5
f 215/2/5 204/2/5 214/2/5
f 216/3/5 207/3/5 206/3/5
f 217/2/5 196/2/5 207/2/5
f 217/3/5 207/3/5 216/3/5
f 218/3/5 214/3/5 213/3/5
f 218/2/5 196/2/5 217/2/5
f 218/3/5 208/3/5 196/3/5
f 218/3/5 215/3/5 214/3/5
f 218/3/5 209/3/5 208/3/5
f 218/3/5 213/3/5 212/3/5
f 218/3/5 212/3/5 211/3/5
f 218/3/5 211/3/5 210/3/5
f 218/3/5 210/3/5 209/3/5
f 219/3/5 215/3/5 218/3/5
f 220/3/5 215/3/5 219/3/5
f 221/3/5 215/3/5 220/3/5
f 222/3/5 215/3/5 221/3/5
f 223/3/5 215/3/5 222/3/5
f 224/3/5 215/3/5 223/3/5
f 225/3/5 205/3/5 215/3/5
f 225/3/5 215/3/5 224/3/5
f 226/2/5 217/2/5 216/2/5
f 227/3/5 218/3/5 217/3/5
f 227/2/5 217/2/5 226/2/5
f 228/2/5 219/2/5 218/2/5
f 228/3/5 218/3/5 227/3/5
f 229/3/5 220/3/5 219/3/5
f 229/2/5 219/2/5 228/2/5
f 230/2/5 221/2/5 220/2/5
f 230/3/5 220/3/5 229/3/5
f 231/3/5 222/3/5 221/3/5
f 231/2/5 221/2/5 230/2/5
f 232/3/5 222/3/5 231/3/5
f 233/3/5 222/3/5 232/3/5
f 234/2/5 223/2/5 222/2/5
f 234/3/5 222/3/5 233/3/5
f 235/3/5 224/3/5 223/3/5
f 235/2/5 223/2/5 234/2/5
f 236/2/5 225/2/5 224/2/5
f 236/3/5 224/3/5 235/3/5
f 237/3/5 205/3/5 225/3/5
f 237/2/5 225/2/5 236/2/5
f 238/3/5 205/3/5 237/3/5
f 239/3/5 227/3/5 226/3/5
f 239/3/5 228/3/5 227/3/5
f 239/3/5 229/3/5 228/3/5
f 240/3/5 229/3/5 239/3/5
f 241/2/5 230/2/5 229/2/5
f 241/3/5 229/3/5 240/3/5
f 242/3/5 231/3/5 230/3/5
f 242/2/5 230/2/5 241/2/5
f 242/3/5 232/3/5 231/3/5
f 243/2/5 233/2/5 232/2/5
f 243/3/5 232/3/5 242/3/5
f 244/3/5 236/3/5 235/3/5
f 244/2/5 233/2/5 243/2/5
f 244/3/5 234/3/5 233/3/5
f 244/3/5 237/3/5 236/3/5
f 244/3/5 235/3/5 234/3/5
f 245/3/5 237/3/5 244/3/5
f 246/2/5 238/2/5 237/2/5
f 246/3/5 237/3/5 245/3/5
f 247/2/5 240/2/5 239/2/5
f 248/3/5 241/3/5 240/3/5
f 248/2/5 240/2/5 247/2/5
f 248/3/5 242/3/5 241/3/5
f 249/3/5 242/3/5 248/3/5
f 250/2/5 243/2/5 242/2/5
f 250/3/5 242/3/5 249/3/5
f 251/3/5 245/3/5 244/3/5
f 251/2/5 243/2/5 250/2/5
f 251/3/5 244/3/5 243/3/5
f 252/3/5 245/3/5 251/3/5
f 253/2/5 246/2/5 245/2/5
f 253/3/5 245/3/5 252/3/5
f 254/2/5 238/2/5 246/2/5
f 254/2/5 246/2/5 253/2/5
f 255/2/5 249/2/5 248/2/5
f 255/3/5 248/3/5 247/3/5
f 256/3/5 250/3/5 249/3/5
f 256/2/5 249/2/5 255/2/5
f 256/3/5 251/3/5 250/3/5
f 257/2/5 252/2/5 251/2/5
f 257/3/5 251/3/5 256/3/5
f 258/2/5 252/2/5 257/2/5
f 259/3/5 253/3/5 252/3/5
f 259/2/5 252/2/5 258/2/5
f 259/3/5 254/3/5 253/3/5
f 260/3/5 254/3/5 259/3/5
f 261/3/5 254/3/5 260/3/5
f 262/3/5 254/3/5 261/3/5
f 263/3/5 255/3/5 247/3/5
f 263/3/5 256/3/5 255/3/5
f 264/3/5 256/3/5 263/3/5
f 265/3/5 256/3/5 264/3/5
f 266/3/5 256/3/5 265/3/5
f 267/3/5 256/3/5 266/3/5
f 268/2/5 257/2/5 256/2/5
f 268/3/5 256/3/5 267/3/5
f 269/3/5 258/3/5 257/3/5
f 269/2/5 257/2/5 268/2/5
f 270/2/5 259/2/5 258/2/5
f 270/3/5 258/3/5 269/3/5
f 270/2/5 260/2/5 259/2/5
f 271/2/5 260/2/5 270/2/5
f 272/2/5 260/2/5 271/2/5
f 273/3/5 261/3/5 260/3/5
f 273/2/5 260/2/5 272/2/5
f 274/2/5 262/2/5 261/2/5
f 274/3/5 261/3/5 273/3/5
f 275/2/5 262/2/5 274/2/5
f 276/2/5 264/2/5 263/2/5
f 277/3/5 265/3/5 264/3/5
f 277/2/5 264/2/5 276/2/5
f 278/2/5 266/2/5 265/2/5
f 278/3/5 265/3/5 277/3/5
f 279/3/5 267/3/5 266/3/5
f 279/2/5 266/2/5 278/2/5
f 280/2/5 268/2/5 267/2/5
f 280/3/5 269/3/5 268/3/5
f 280/3/5 270/3/5 269/3/5
f 280/3/5 271/3/5 270/3/5
f 281/3/5 271/3/5 280/3/5
f 282/2/5 272/2/5 271/2/5
f 282/3/5 271/3/5 281/3/5
f 283/3/5 273/3/5 272/3/5
f 283/2/5 272/2/5 282/2/5
f 284/2/5 274/2/5 273/2/5
f 284/3/5 273/3/5 283/3/5
f 285/3/5 275/3/5 274/3/5
f 285/2/5 274/2/5 284/2/5
f 286/3/5 275/3/5 285/3/5
f 287/3/5 277/3/5 276/3/5
f 288/2/5 278/2/5 277/2/5
f 288/3/5 277/3/5 287/3/5
f 289/3/5 279/3/5 278/3/5
f 289/2/5 278/2/5 288/2/5
f 290/3/5 267/3/5 279/3/5
f 290/3/5 279/3/5 289/3/5
f 290/2/5 281/2/5 280/2/5
f 290/2/5 280/2/5 267/2/5
f 291/3/5 282/3/5 281/3/5
f 291/2/5 281/2/5 290/2/5
f 291/3/5 284/3/5 283/3/5
f 291/3/5 285/3/5 284/3/5
f 291/3/5 283/3/5 282/3/5
f 292/2/5 286/2/5 285/2/5
f 292/3/5 285/3/5 291/3/5
f 293/2/5 286/2/5 292/2/5
f 306/1/5 295/1/5 294/1/5
f 306/4/5 296/4/5 295/4/5
f 307/1/5 297/1/5 296/1/5
f 307/4/5 296/4/5 306/4/5
f 308/1/5 297/1/5 307/1/5
f 309/4/5 298/4/5 297/4/5
f 309/1/5 297/1/5 308/1/5
f 310/1/5 299/1/5 298/1/5
f 310/4/5 298/4/5 309/4/5
f 311/1/5 299/1/5 310/1/5
f 312/4/5 300/4/5 299/4/5
f 312/1/5 299/1/5 311/1/5
f 313/1/5 301/1/5 300/1/5
f 313/4/5 300/4/5 312/4/5
f 314/1/5 301/1/5 313/1/5
f 315/4/5 302/4/5 301/4/5
f 315/1/5 301/1/5 314/1/5
f 316/1/5 303/1/5 302/1/5
f 316/4/5 302/4/5 315/4/5
f 317/1/5 303/1/5 316/1/5
f 318/4/5 304/4/5 303/4/5
f 318/1/5 303/1/5 317/1/5
f 319/1/5 305/1/5 304/1/5
f 319/4/5 304/4/5 318/4/5
f 320/1/5 305/1/5 319/1/5
f 321/1/5 306/1/5 294/1/5
f 322/1/5 321/1/5 294/1/5
f 323/1/5 322/1/5 294/1/5
f 324/1/5 305/1/5 320/1/5
f 325/1/5 323/1/5 294/1/5
f 326/1/5 305/1/5 324/1/5
f 327/1/5 305/1/5 326/1/5
f 328/1/5 325/1/5 294/1/5
f 340/1/5 305/1/5 327/1/5
f 341/1/5 328/1/5 294/1/5
f 342/4/5 329/4/5 328/4/5
f 342/1/5 328/1/5 341/1/5
f 343/1/5 330/1/5 329/1/5
f 343/4/5 329/4/5 342/4/5
f 343/1/5 331/1/5 330/1/5
f 344/4/5 332/4/5 331/4/5
f 344/1/5 331/1/5 343/1/5
f 345/1/5 333/1/5 332/1/5
f 345/4/5 332/4/5 344/4/5
f 346/4/5 334/4/5 333/4/5
f 346/1/5 333/1/5 345/1/5
f 347/1/5 335/1/5 334/1/5
f 347/4/5 334/4/5 346/4/5
f 348/4/5 336/4/5 335/4/5
f 348/1/5 335/1/5 347/1/5
f 349/1/5 337/1/5 336/1/5
f 349/4/5 336/4/5 348/4/5
f 349/1/5 338/1/5 337/1/5
f 350/4/5 339/4/5 338/4/5
f 350/1/5 338/1/5 349/1/5
f 351/1/5 340/1/5 339/1/5
f 351/4/5 339/4/5 350/4/5
f 352/1/5 305/1/5 340/1/5
f 352/1/5 340/1/5 351/1/5
f 353/1/6 354/1/6 365/1/6
f 354/4/6 355/4/6 366/4/6
f 365/1/6 354/1/6 366/1/6
f 355/1/6 356/1/6 367/1/6
f 366/4/6 355/4/6 367/4/6
f 356/4/6 357/4/6 368/4/6
f 367/1/6 356/1/6 368/1/6
f 357/1/6 358/1/6 369/1/6
f 368/4/6 357/4/6 369/4/6
f 358/4/6 359/4/6 370/4/6
f 369/1/6 358/1/6 370/1/6
f 359/1/6 360/1/6 371/1/6
f 370/4/6 359/4/6 371/4/6
f 360/4/6 361/4/6 372/4/6
f 371/1/6 360/1/6 372/1/6
f 361/1/6 362/1/6 373/1/6
f 372/4/6 361/4/6 373/4/6
f 362/4/6 363/4/6 374/4/6
f 373/1/6 362/1/6 374/1/6
f 363/1/6 364/1/6 375/1/6
f 374/4/6 363/4/6 375/4/6
f 375/1/6 364/1/6 376/1/6

