# MagicaVoxel @ Ephtracy

# group
o 

# material
mtllib Bush.mtl
usemtl palette

# normals
vn -1 0 0
vn 1 0 0
vn 0 0 1
vn 0 0 -1
vn 0 -1 0
vn 0 1 0

# texcoords
vt 0.947266 0.5
vt 0.974609 0.5
vt 0.986328 0.5

# verts
v -0.5 -0.4 0.5
v -0.5 -0.4 -0.5
v -0.5 -0.3 0.5
v -0.5 -0.3 -0.5
v -0.5 -0.1 0.5
v -0.5 -0.1 -0.5
v -0.5 0 0.5
v -0.5 0 -0.5
v -0.5 0.2 0.5
v -0.5 0.2 -0.5
v -0.5 0.3 0.5
v -0.5 0.3 -0.5
v -0.4 0.3 0.4
v -0.4 0.3 -0.4
v -0.4 0.4 0.4
v -0.4 0.4 -0.4
v -0.4 0.5 0.4
v -0.4 0.5 -0.4
v -0.2 -0.8 0.2
v -0.2 -0.8 -0.2
v -0.2 -0.4 0.2
v -0.2 -0.4 -0.2
v 0.2 -0.8 0.2
v 0.2 -0.8 -0.2
v 0.2 -0.4 0.2
v 0.2 -0.4 -0.2
v 0.4 0.3 0.4
v 0.4 0.3 -0.4
v 0.4 0.4 0.4
v 0.4 0.4 -0.4
v 0.4 0.5 0.4
v 0.4 0.5 -0.4
v 0.5 -0.4 0.5
v 0.5 -0.4 -0.5
v 0.5 -0.3 0.5
v 0.5 -0.3 -0.5
v 0.5 -0.1 0.5
v 0.5 -0.1 -0.5
v 0.5 0 0.5
v 0.5 0 -0.5
v 0.5 0.2 0.5
v 0.5 0.2 -0.5
v 0.5 0.3 0.5
v 0.5 0.3 -0.5
v -0.5 -0.4 0.5
v -0.5 -0.3 0.5
v -0.5 -0.1 0.5
v -0.5 0 0.5
v -0.5 0.2 0.5
v -0.5 0.3 0.5
v 0.5 -0.4 0.5
v 0.5 -0.3 0.5
v 0.5 -0.1 0.5
v 0.5 0 0.5
v 0.5 0.2 0.5
v 0.5 0.3 0.5
v -0.4 0.3 0.4
v -0.4 0.4 0.4
v -0.4 0.5 0.4
v 0.4 0.3 0.4
v 0.4 0.4 0.4
v 0.4 0.5 0.4
v -0.2 -0.8 0.2
v -0.2 -0.4 0.2
v 0.2 -0.8 0.2
v 0.2 -0.4 0.2
v -0.2 -0.8 -0.2
v -0.2 -0.4 -0.2
v 0.2 -0.8 -0.2
v 0.2 -0.4 -0.2
v -0.4 0.3 -0.4
v -0.4 0.4 -0.4
v -0.4 0.5 -0.4
v 0.4 0.3 -0.4
v 0.4 0.4 -0.4
v 0.4 0.5 -0.4
v -0.5 -0.4 -0.5
v -0.5 -0.3 -0.5
v -0.5 -0.1 -0.5
v -0.5 0 -0.5
v -0.5 0.2 -0.5
v -0.5 0.3 -0.5
v 0.5 -0.4 -0.5
v 0.5 -0.3 -0.5
v 0.5 -0.1 -0.5
v 0.5 0 -0.5
v 0.5 0.2 -0.5
v 0.5 0.3 -0.5
v -0.2 -0.8 0.2
v 0.2 -0.8 0.2
v -0.2 -0.8 -0.2
v 0.2 -0.8 -0.2
v -0.5 -0.4 0.5
v 0.5 -0.4 0.5
v -0.4 -0.4 0.4
v 0.4 -0.4 0.4
v -0.2 -0.4 0.2
v 0.2 -0.4 0.2
v -0.2 -0.4 -0.2
v 0.2 -0.4 -0.2
v -0.4 -0.4 -0.4
v 0.4 -0.4 -0.4
v -0.5 -0.4 -0.5
v 0.5 -0.4 -0.5
v -0.5 0.3 0.5
v 0.5 0.3 0.5
v -0.4 0.3 0.4
v 0.4 0.3 0.4
v -0.4 0.3 -0.4
v 0.4 0.3 -0.4
v -0.5 0.3 -0.5
v 0.5 0.3 -0.5
v -0.4 0.5 0.4
v 0.4 0.5 0.4
v -0.3 0.5 0.3
v 0.3 0.5 0.3
v -0.3 0.5 -0.3
v 0.3 0.5 -0.3
v -0.4 0.5 -0.4
v 0.4 0.5 -0.4

# faces
f 3/1/1 2/1/1 1/1/1
f 4/1/1 2/1/1 3/1/1
f 5/2/1 4/2/1 3/2/1
f 6/2/1 4/2/1 5/2/1
f 7/1/1 6/1/1 5/1/1
f 8/1/1 6/1/1 7/1/1
f 9/2/1 8/2/1 7/2/1
f 10/2/1 8/2/1 9/2/1
f 11/1/1 10/1/1 9/1/1
f 12/1/1 10/1/1 11/1/1
f 15/2/1 14/2/1 13/2/1
f 16/2/1 14/2/1 15/2/1
f 17/1/1 16/1/1 15/1/1
f 18/1/1 16/1/1 17/1/1
f 21/3/1 20/3/1 19/3/1
f 22/3/1 20/3/1 21/3/1
f 23/3/2 24/3/2 25/3/2
f 25/3/2 24/3/2 26/3/2
f 27/2/2 28/2/2 29/2/2
f 29/2/2 28/2/2 30/2/2
f 29/1/2 30/1/2 31/1/2
f 31/1/2 30/1/2 32/1/2
f 33/1/2 34/1/2 35/1/2
f 35/1/2 34/1/2 36/1/2
f 35/2/2 36/2/2 37/2/2
f 37/2/2 36/2/2 38/2/2
f 37/1/2 38/1/2 39/1/2
f 39/1/2 38/1/2 40/1/2
f 39/2/2 40/2/2 41/2/2
f 41/2/2 40/2/2 42/2/2
f 41/1/2 42/1/2 43/1/2
f 43/1/2 42/1/2 44/1/2
f 51/1/3 46/1/3 45/1/3
f 52/2/3 47/2/3 46/2/3
f 52/1/3 46/1/3 51/1/3
f 53/1/3 48/1/3 47/1/3
f 53/2/3 47/2/3 52/2/3
f 54/2/3 49/2/3 48/2/3
f 54/1/3 48/1/3 53/1/3
f 55/1/3 50/1/3 49/1/3
f 55/2/3 49/2/3 54/2/3
f 56/1/3 50/1/3 55/1/3
f 60/2/3 58/2/3 57/2/3
f 61/1/3 59/1/3 58/1/3
f 61/2/3 58/2/3 60/2/3
f 62/1/3 59/1/3 61/1/3
f 65/3/3 64/3/3 63/3/3
f 66/3/3 64/3/3 65/3/3
f 67/3/4 68/3/4 69/3/4
f 69/3/4 68/3/4 70/3/4
f 71/2/4 72/2/4 74/2/4
f 72/1/4 73/1/4 75/1/4
f 74/2/4 72/2/4 75/2/4
f 75/1/4 73/1/4 76/1/4
f 77/1/4 78/1/4 83/1/4
f 78/2/4 79/2/4 84/2/4
f 83/1/4 78/1/4 84/1/4
f 79/1/4 80/1/4 85/1/4
f 84/2/4 79/2/4 85/2/4
f 80/2/4 81/2/4 86/2/4
f 85/1/4 80/1/4 86/1/4
f 81/1/4 82/1/4 87/1/4
f 86/2/4 81/2/4 87/2/4
f 87/1/4 82/1/4 88/1/4
f 91/3/5 90/3/5 89/3/5
f 92/3/5 90/3/5 91/3/5
f 95/1/5 94/1/5 93/1/5
f 96/1/5 94/1/5 95/1/5
f 97/2/5 96/2/5 95/2/5
f 98/2/5 96/2/5 97/2/5
f 99/2/5 97/2/5 95/2/5
f 100/2/5 96/2/5 98/2/5
f 101/1/5 95/1/5 93/1/5
f 101/2/5 100/2/5 99/2/5
f 101/2/5 99/2/5 95/2/5
f 102/2/5 96/2/5 100/2/5
f 102/2/5 100/2/5 101/2/5
f 102/1/5 94/1/5 96/1/5
f 103/1/5 101/1/5 93/1/5
f 103/1/5 102/1/5 101/1/5
f 104/1/5 94/1/5 102/1/5
f 104/1/5 102/1/5 103/1/5
f 105/1/6 106/1/6 107/1/6
f 107/1/6 106/1/6 108/1/6
f 105/1/6 107/1/6 109/1/6
f 108/1/6 106/1/6 110/1/6
f 105/1/6 109/1/6 111/1/6
f 109/1/6 110/1/6 111/1/6
f 110/1/6 106/1/6 112/1/6
f 111/1/6 110/1/6 112/1/6
f 113/1/6 114/1/6 115/1/6
f 115/1/6 114/1/6 116/1/6
f 113/1/6 115/1/6 117/1/6
f 115/2/6 116/2/6 117/2/6
f 116/1/6 114/1/6 118/1/6
f 117/2/6 116/2/6 118/2/6
f 113/1/6 117/1/6 119/1/6
f 117/1/6 118/1/6 119/1/6
f 118/1/6 114/1/6 120/1/6
f 119/1/6 118/1/6 120/1/6
