# Blender 4.1.1
# www.blender.org
mtllib flowers_1_1.mtl
o ????????????
v -0.700000 -0.050000 0.050000
v -0.700000 -0.050000 -0.050000
v -0.700000 0.050000 0.050000
v -0.700000 0.050000 -0.050000
v -0.700000 0.150000 0.050000
v -0.700000 0.150000 -0.050000
v -0.700000 0.250000 0.050000
v -0.700000 0.250000 -0.050000
v -0.600000 -0.250000 0.650000
v -0.600000 -0.250000 0.550000
v -0.600000 -0.250000 0.050000
v -0.600000 -0.250000 -0.050000
v -0.600000 -0.250000 -0.550000
v -0.600000 -0.250000 -0.650000
v -0.600000 -0.150000 0.650000
v -0.600000 -0.150000 0.550000
v -0.600000 -0.050000 0.050000
v -0.600000 -0.050000 -0.050000
v -0.600000 -0.050000 -0.550000
v -0.600000 -0.050000 -0.650000
v -0.600000 0.050000 0.050000
v -0.600000 0.050000 -0.050000
v -0.600000 0.150000 0.150000
v -0.600000 0.150000 0.050000
v -0.600000 0.150000 -0.050000
v -0.600000 0.150000 -0.150000
v -0.600000 0.250000 0.150000
v -0.600000 0.250000 0.050000
v -0.600000 0.250000 -0.050000
v -0.600000 0.250000 -0.150000
v -0.400000 -0.250000 0.450000
v -0.400000 -0.250000 0.350000
v -0.400000 -0.250000 -0.350000
v -0.400000 -0.250000 -0.450000
v -0.400000 -0.050000 0.450000
v -0.400000 -0.050000 0.350000
v -0.400000 0.050000 -0.350000
v -0.400000 0.050000 -0.450000
v -0.100000 -0.250000 0.550000
v -0.100000 -0.250000 0.450000
v -0.100000 -0.150000 0.550000
v -0.100000 -0.150000 0.450000
v -0.100000 0.050000 0.150000
v -0.100000 0.050000 0.050000
v -0.100000 0.150000 0.150000
v -0.100000 0.150000 0.050000
v 0.000000 -0.250000 0.150000
v 0.000000 -0.250000 0.050000
v 0.000000 0.050000 0.250000
v 0.000000 0.050000 0.150000
v 0.000000 0.050000 0.050000
v 0.000000 0.050000 -0.050000
v 0.000000 0.150000 0.250000
v 0.000000 0.150000 0.150000
v 0.000000 0.150000 0.050000
v 0.000000 0.150000 -0.050000
v 0.100000 -0.250000 0.750000
v 0.100000 -0.250000 0.650000
v 0.100000 -0.250000 -0.350000
v 0.100000 -0.250000 -0.450000
v 0.100000 -0.050000 -0.350000
v 0.100000 -0.050000 -0.450000
v 0.100000 0.050000 0.750000
v 0.100000 0.050000 0.650000
v 0.200000 -0.250000 0.650000
v 0.200000 -0.250000 0.550000
v 0.200000 -0.250000 0.350000
v 0.200000 -0.250000 0.250000
v 0.200000 -0.150000 0.650000
v 0.200000 -0.150000 0.550000
v 0.200000 0.050000 0.350000
v 0.200000 0.050000 0.250000
v 0.300000 -0.250000 -0.350000
v 0.300000 -0.250000 -0.450000
v 0.300000 -0.150000 -0.550000
v 0.300000 -0.150000 -0.650000
v 0.300000 -0.050000 -0.550000
v 0.300000 -0.050000 -0.650000
v 0.300000 0.250000 -0.350000
v 0.300000 0.250000 -0.450000
v 0.400000 -0.250000 -0.150000
v 0.400000 -0.250000 -0.250000
v 0.400000 -0.250000 -0.550000
v 0.400000 -0.250000 -0.650000
v 0.400000 -0.150000 -0.450000
v 0.400000 -0.150000 -0.550000
v 0.400000 -0.150000 -0.650000
v 0.400000 -0.150000 -0.750000
v 0.400000 -0.050000 -0.450000
v 0.400000 -0.050000 -0.550000
v 0.400000 -0.050000 -0.650000
v 0.400000 -0.050000 -0.750000
v 0.400000 0.050000 -0.150000
v 0.400000 0.050000 -0.250000
v 0.500000 -0.250000 0.050000
v 0.500000 -0.250000 -0.050000
v 0.500000 -0.150000 0.050000
v 0.500000 -0.150000 -0.050000
v 0.600000 -0.250000 0.550000
v 0.600000 -0.250000 0.450000
v 0.600000 0.150000 0.550000
v 0.600000 0.150000 0.450000
v -0.500000 -0.250000 0.650000
v -0.500000 -0.250000 0.550000
v -0.500000 -0.250000 0.050000
v -0.500000 -0.250000 -0.050000
v -0.500000 -0.250000 -0.550000
v -0.500000 -0.250000 -0.650000
v -0.500000 -0.150000 0.650000
v -0.500000 -0.150000 0.550000
v -0.500000 -0.050000 -0.550000
v -0.500000 -0.050000 -0.650000
v -0.500000 0.150000 0.150000
v -0.500000 0.150000 0.050000
v -0.500000 0.150000 -0.050000
v -0.500000 0.150000 -0.150000
v -0.500000 0.250000 0.150000
v -0.500000 0.250000 0.050000
v -0.500000 0.250000 -0.050000
v -0.500000 0.250000 -0.150000
v -0.400000 0.150000 0.050000
v -0.400000 0.150000 -0.050000
v -0.400000 0.250000 0.050000
v -0.400000 0.250000 -0.050000
v -0.300000 -0.250000 0.450000
v -0.300000 -0.250000 0.350000
v -0.300000 -0.250000 -0.350000
v -0.300000 -0.250000 -0.450000
v -0.300000 -0.050000 0.450000
v -0.300000 -0.050000 0.350000
v -0.300000 0.050000 -0.350000
v -0.300000 0.050000 -0.450000
v 0.000000 -0.250000 0.550000
v 0.000000 -0.250000 0.450000
v 0.000000 -0.150000 0.550000
v 0.000000 -0.150000 0.450000
v 0.100000 -0.250000 0.150000
v 0.100000 -0.250000 0.050000
v 0.100000 0.050000 0.250000
v 0.100000 0.050000 0.150000
v 0.100000 0.050000 0.050000
v 0.100000 0.050000 -0.050000
v 0.100000 0.150000 0.250000
v 0.100000 0.150000 0.150000
v 0.100000 0.150000 0.050000
v 0.100000 0.150000 -0.050000
v 0.200000 -0.250000 0.750000
v 0.200000 -0.250000 0.650000
v 0.200000 -0.250000 -0.350000
v 0.200000 -0.250000 -0.450000
v 0.200000 -0.050000 -0.350000
v 0.200000 -0.050000 -0.450000
v 0.200000 0.050000 0.750000
v 0.200000 0.050000 0.650000
v 0.200000 0.050000 0.150000
v 0.200000 0.050000 0.050000
v 0.200000 0.150000 0.150000
v 0.200000 0.150000 0.050000
v 0.300000 -0.250000 0.650000
v 0.300000 -0.250000 0.550000
v 0.300000 -0.250000 0.350000
v 0.300000 -0.250000 0.250000
v 0.300000 -0.150000 0.650000
v 0.300000 -0.150000 0.550000
v 0.300000 0.050000 0.350000
v 0.300000 0.050000 0.250000
v 0.400000 -0.250000 -0.350000
v 0.400000 -0.250000 -0.450000
v 0.400000 0.250000 -0.350000
v 0.400000 0.250000 -0.450000
v 0.500000 -0.250000 -0.150000
v 0.500000 -0.250000 -0.250000
v 0.500000 -0.250000 -0.550000
v 0.500000 -0.250000 -0.650000
v 0.500000 -0.150000 -0.450000
v 0.500000 -0.150000 -0.550000
v 0.500000 -0.150000 -0.650000
v 0.500000 -0.150000 -0.750000
v 0.500000 -0.050000 -0.450000
v 0.500000 -0.050000 -0.550000
v 0.500000 -0.050000 -0.650000
v 0.500000 -0.050000 -0.750000
v 0.500000 0.050000 -0.150000
v 0.500000 0.050000 -0.250000
v 0.600000 -0.250000 0.050000
v 0.600000 -0.250000 -0.050000
v 0.600000 -0.150000 0.050000
v 0.600000 -0.150000 -0.050000
v 0.600000 -0.150000 -0.550000
v 0.600000 -0.150000 -0.650000
v 0.600000 -0.050000 -0.550000
v 0.600000 -0.050000 -0.650000
v 0.700000 -0.250000 0.550000
v 0.700000 -0.250000 0.450000
v 0.700000 0.150000 0.550000
v 0.700000 0.150000 0.450000
v 0.100000 -0.250000 0.750000
v 0.100000 0.050000 0.750000
v 0.200000 -0.250000 0.750000
v 0.200000 0.050000 0.750000
v -0.600000 -0.250000 0.650000
v -0.600000 -0.150000 0.650000
v -0.500000 -0.250000 0.650000
v -0.500000 -0.150000 0.650000
v 0.200000 -0.250000 0.650000
v 0.200000 -0.150000 0.650000
v 0.300000 -0.250000 0.650000
v 0.300000 -0.150000 0.650000
v -0.100000 -0.250000 0.550000
v -0.100000 -0.150000 0.550000
v 0.000000 -0.250000 0.550000
v 0.000000 -0.150000 0.550000
v 0.600000 -0.250000 0.550000
v 0.600000 0.150000 0.550000
v 0.700000 -0.250000 0.550000
v 0.700000 0.150000 0.550000
v -0.400000 -0.250000 0.450000
v -0.400000 -0.050000 0.450000
v -0.300000 -0.250000 0.450000
v -0.300000 -0.050000 0.450000
v 0.200000 -0.250000 0.350000
v 0.200000 0.050000 0.350000
v 0.300000 -0.250000 0.350000
v 0.300000 0.050000 0.350000
v 0.000000 0.050000 0.250000
v 0.000000 0.150000 0.250000
v 0.100000 0.050000 0.250000
v 0.100000 0.150000 0.250000
v -0.600000 0.150000 0.150000
v -0.600000 0.250000 0.150000
v -0.500000 0.150000 0.150000
v -0.500000 0.250000 0.150000
v -0.100000 0.050000 0.150000
v -0.100000 0.150000 0.150000
v 0.000000 -0.250000 0.150000
v 0.000000 0.050000 0.150000
v 0.000000 0.150000 0.150000
v 0.100000 -0.250000 0.150000
v 0.100000 0.050000 0.150000
v 0.100000 0.150000 0.150000
v 0.200000 0.050000 0.150000
v 0.200000 0.150000 0.150000
v -0.700000 -0.050000 0.050000
v -0.700000 0.050000 0.050000
v -0.700000 0.150000 0.050000
v -0.700000 0.250000 0.050000
v -0.600000 -0.250000 0.050000
v -0.600000 -0.050000 0.050000
v -0.600000 0.050000 0.050000
v -0.600000 0.150000 0.050000
v -0.600000 0.250000 0.050000
v -0.500000 -0.250000 0.050000
v -0.500000 0.150000 0.050000
v -0.500000 0.250000 0.050000
v -0.400000 0.150000 0.050000
v -0.400000 0.250000 0.050000
v 0.500000 -0.250000 0.050000
v 0.500000 -0.150000 0.050000
v 0.600000 -0.250000 0.050000
v 0.600000 -0.150000 0.050000
v 0.400000 -0.250000 -0.150000
v 0.400000 0.050000 -0.150000
v 0.500000 -0.250000 -0.150000
v 0.500000 0.050000 -0.150000
v -0.400000 -0.250000 -0.350000
v -0.400000 0.050000 -0.350000
v -0.300000 -0.250000 -0.350000
v -0.300000 0.050000 -0.350000
v 0.100000 -0.250000 -0.350000
v 0.100000 -0.050000 -0.350000
v 0.200000 -0.250000 -0.350000
v 0.200000 -0.050000 -0.350000
v 0.300000 -0.250000 -0.350000
v 0.300000 0.250000 -0.350000
v 0.400000 -0.250000 -0.350000
v 0.400000 0.250000 -0.350000
v 0.400000 -0.150000 -0.450000
v 0.400000 -0.050000 -0.450000
v 0.500000 -0.150000 -0.450000
v 0.500000 -0.050000 -0.450000
v -0.600000 -0.250000 -0.550000
v -0.600000 -0.050000 -0.550000
v -0.500000 -0.250000 -0.550000
v -0.500000 -0.050000 -0.550000
v 0.300000 -0.150000 -0.550000
v 0.300000 -0.050000 -0.550000
v 0.400000 -0.250000 -0.550000
v 0.400000 -0.150000 -0.550000
v 0.400000 -0.050000 -0.550000
v 0.500000 -0.250000 -0.550000
v 0.500000 -0.150000 -0.550000
v 0.500000 -0.050000 -0.550000
v 0.600000 -0.150000 -0.550000
v 0.600000 -0.050000 -0.550000
v 0.100000 -0.250000 0.650000
v 0.100000 0.050000 0.650000
v 0.200000 -0.250000 0.650000
v 0.200000 0.050000 0.650000
v -0.600000 -0.250000 0.550000
v -0.600000 -0.150000 0.550000
v -0.500000 -0.250000 0.550000
v -0.500000 -0.150000 0.550000
v 0.200000 -0.250000 0.550000
v 0.200000 -0.150000 0.550000
v 0.300000 -0.250000 0.550000
v 0.300000 -0.150000 0.550000
v -0.100000 -0.250000 0.450000
v -0.100000 -0.150000 0.450000
v 0.000000 -0.250000 0.450000
v 0.000000 -0.150000 0.450000
v 0.600000 -0.250000 0.450000
v 0.600000 0.150000 0.450000
v 0.700000 -0.250000 0.450000
v 0.700000 0.150000 0.450000
v -0.400000 -0.250000 0.350000
v -0.400000 -0.050000 0.350000
v -0.300000 -0.250000 0.350000
v -0.300000 -0.050000 0.350000
v 0.200000 -0.250000 0.250000
v 0.200000 0.050000 0.250000
v 0.300000 -0.250000 0.250000
v 0.300000 0.050000 0.250000
v -0.100000 0.050000 0.050000
v -0.100000 0.150000 0.050000
v 0.000000 -0.250000 0.050000
v 0.000000 0.050000 0.050000
v 0.000000 0.150000 0.050000
v 0.100000 -0.250000 0.050000
v 0.100000 0.050000 0.050000
v 0.100000 0.150000 0.050000
v 0.200000 0.050000 0.050000
v 0.200000 0.150000 0.050000
v -0.700000 -0.050000 -0.050000
v -0.700000 0.050000 -0.050000
v -0.700000 0.150000 -0.050000
v -0.700000 0.250000 -0.050000
v -0.600000 -0.250000 -0.050000
v -0.600000 -0.050000 -0.050000
v -0.600000 0.050000 -0.050000
v -0.600000 0.150000 -0.050000
v -0.600000 0.250000 -0.050000
v -0.500000 -0.250000 -0.050000
v -0.500000 0.150000 -0.050000
v -0.500000 0.250000 -0.050000
v -0.400000 0.150000 -0.050000
v -0.400000 0.250000 -0.050000
v 0.000000 0.050000 -0.050000
v 0.000000 0.150000 -0.050000
v 0.100000 0.050000 -0.050000
v 0.100000 0.150000 -0.050000
v 0.500000 -0.250000 -0.050000
v 0.500000 -0.150000 -0.050000
v 0.600000 -0.250000 -0.050000
v 0.600000 -0.150000 -0.050000
v -0.600000 0.150000 -0.150000
v -0.600000 0.250000 -0.150000
v -0.500000 0.150000 -0.150000
v -0.500000 0.250000 -0.150000
v 0.400000 -0.250000 -0.250000
v 0.400000 0.050000 -0.250000
v 0.500000 -0.250000 -0.250000
v 0.500000 0.050000 -0.250000
v -0.400000 -0.250000 -0.450000
v -0.400000 0.050000 -0.450000
v -0.300000 -0.250000 -0.450000
v -0.300000 0.050000 -0.450000
v 0.100000 -0.250000 -0.450000
v 0.100000 -0.050000 -0.450000
v 0.200000 -0.250000 -0.450000
v 0.200000 -0.050000 -0.450000
v 0.300000 -0.250000 -0.450000
v 0.300000 0.250000 -0.450000
v 0.400000 -0.250000 -0.450000
v 0.400000 0.250000 -0.450000
v -0.600000 -0.250000 -0.650000
v -0.600000 -0.050000 -0.650000
v -0.500000 -0.250000 -0.650000
v -0.500000 -0.050000 -0.650000
v 0.300000 -0.150000 -0.650000
v 0.300000 -0.050000 -0.650000
v 0.400000 -0.250000 -0.650000
v 0.400000 -0.150000 -0.650000
v 0.400000 -0.050000 -0.650000
v 0.500000 -0.250000 -0.650000
v 0.500000 -0.150000 -0.650000
v 0.500000 -0.050000 -0.650000
v 0.600000 -0.150000 -0.650000
v 0.600000 -0.050000 -0.650000
v 0.400000 -0.150000 -0.750000
v 0.400000 -0.050000 -0.750000
v 0.500000 -0.150000 -0.750000
v 0.500000 -0.050000 -0.750000
v 0.100000 -0.250000 0.750000
v 0.200000 -0.250000 0.750000
v -0.600000 -0.250000 0.650000
v -0.500000 -0.250000 0.650000
v 0.100000 -0.250000 0.650000
v 0.200000 -0.250000 0.650000
v 0.300000 -0.250000 0.650000
v -0.600000 -0.250000 0.550000
v -0.500000 -0.250000 0.550000
v -0.100000 -0.250000 0.550000
v 0.000000 -0.250000 0.550000
v 0.200000 -0.250000 0.550000
v 0.300000 -0.250000 0.550000
v 0.600000 -0.250000 0.550000
v 0.700000 -0.250000 0.550000
v -0.400000 -0.250000 0.450000
v -0.300000 -0.250000 0.450000
v -0.100000 -0.250000 0.450000
v 0.000000 -0.250000 0.450000
v 0.600000 -0.250000 0.450000
v 0.700000 -0.250000 0.450000
v -0.400000 -0.250000 0.350000
v -0.300000 -0.250000 0.350000
v 0.200000 -0.250000 0.350000
v 0.300000 -0.250000 0.350000
v 0.200000 -0.250000 0.250000
v 0.300000 -0.250000 0.250000
v 0.000000 -0.250000 0.150000
v 0.100000 -0.250000 0.150000
v -0.600000 -0.250000 0.050000
v -0.500000 -0.250000 0.050000
v 0.000000 -0.250000 0.050000
v 0.100000 -0.250000 0.050000
v 0.500000 -0.250000 0.050000
v 0.600000 -0.250000 0.050000
v -0.600000 -0.250000 -0.050000
v -0.500000 -0.250000 -0.050000
v 0.500000 -0.250000 -0.050000
v 0.600000 -0.250000 -0.050000
v 0.400000 -0.250000 -0.150000
v 0.500000 -0.250000 -0.150000
v 0.400000 -0.250000 -0.250000
v 0.500000 -0.250000 -0.250000
v -0.400000 -0.250000 -0.350000
v -0.300000 -0.250000 -0.350000
v 0.100000 -0.250000 -0.350000
v 0.200000 -0.250000 -0.350000
v 0.300000 -0.250000 -0.350000
v 0.400000 -0.250000 -0.350000
v -0.400000 -0.250000 -0.450000
v -0.300000 -0.250000 -0.450000
v 0.100000 -0.250000 -0.450000
v 0.200000 -0.250000 -0.450000
v 0.300000 -0.250000 -0.450000
v 0.400000 -0.250000 -0.450000
v -0.600000 -0.250000 -0.550000
v -0.500000 -0.250000 -0.550000
v 0.400000 -0.250000 -0.550000
v 0.500000 -0.250000 -0.550000
v -0.600000 -0.250000 -0.650000
v -0.500000 -0.250000 -0.650000
v 0.400000 -0.250000 -0.650000
v 0.500000 -0.250000 -0.650000
v 0.400000 -0.150000 -0.450000
v 0.500000 -0.150000 -0.450000
v 0.300000 -0.150000 -0.550000
v 0.400000 -0.150000 -0.550000
v 0.500000 -0.150000 -0.550000
v 0.600000 -0.150000 -0.550000
v 0.300000 -0.150000 -0.650000
v 0.400000 -0.150000 -0.650000
v 0.500000 -0.150000 -0.650000
v 0.600000 -0.150000 -0.650000
v 0.400000 -0.150000 -0.750000
v 0.500000 -0.150000 -0.750000
v -0.700000 -0.050000 0.050000
v -0.600000 -0.050000 0.050000
v -0.700000 -0.050000 -0.050000
v -0.600000 -0.050000 -0.050000
v 0.000000 0.050000 0.250000
v 0.100000 0.050000 0.250000
v -0.100000 0.050000 0.150000
v 0.000000 0.050000 0.150000
v 0.100000 0.050000 0.150000
v 0.200000 0.050000 0.150000
v -0.100000 0.050000 0.050000
v 0.000000 0.050000 0.050000
v 0.100000 0.050000 0.050000
v 0.200000 0.050000 0.050000
v 0.000000 0.050000 -0.050000
v 0.100000 0.050000 -0.050000
v -0.600000 0.150000 0.150000
v -0.500000 0.150000 0.150000
v -0.700000 0.150000 0.050000
v -0.600000 0.150000 0.050000
v -0.500000 0.150000 0.050000
v -0.400000 0.150000 0.050000
v -0.700000 0.150000 -0.050000
v -0.600000 0.150000 -0.050000
v -0.500000 0.150000 -0.050000
v -0.400000 0.150000 -0.050000
v -0.600000 0.150000 -0.150000
v -0.500000 0.150000 -0.150000
v -0.600000 -0.150000 0.650000
v -0.500000 -0.150000 0.650000
v 0.200000 -0.150000 0.650000
v 0.300000 -0.150000 0.650000
v -0.600000 -0.150000 0.550000
v -0.500000 -0.150000 0.550000
v -0.100000 -0.150000 0.550000
v 0.000000 -0.150000 0.550000
v 0.200000 -0.150000 0.550000
v 0.300000 -0.150000 0.550000
v -0.100000 -0.150000 0.450000
v 0.000000 -0.150000 0.450000
v 0.500000 -0.150000 0.050000
v 0.600000 -0.150000 0.050000
v 0.500000 -0.150000 -0.050000
v 0.600000 -0.150000 -0.050000
v -0.400000 -0.050000 0.450000
v -0.300000 -0.050000 0.450000
v -0.400000 -0.050000 0.350000
v -0.300000 -0.050000 0.350000
v 0.100000 -0.050000 -0.350000
v 0.200000 -0.050000 -0.350000
v 0.100000 -0.050000 -0.450000
v 0.200000 -0.050000 -0.450000
v 0.400000 -0.050000 -0.450000
v 0.500000 -0.050000 -0.450000
v -0.600000 -0.050000 -0.550000
v -0.500000 -0.050000 -0.550000
v 0.300000 -0.050000 -0.550000
v 0.400000 -0.050000 -0.550000
v 0.500000 -0.050000 -0.550000
v 0.600000 -0.050000 -0.550000
v -0.600000 -0.050000 -0.650000
v -0.500000 -0.050000 -0.650000
v 0.300000 -0.050000 -0.650000
v 0.400000 -0.050000 -0.650000
v 0.500000 -0.050000 -0.650000
v 0.600000 -0.050000 -0.650000
v 0.400000 -0.050000 -0.750000
v 0.500000 -0.050000 -0.750000
v 0.100000 0.050000 0.750000
v 0.200000 0.050000 0.750000
v 0.100000 0.050000 0.650000
v 0.200000 0.050000 0.650000
v 0.200000 0.050000 0.350000
v 0.300000 0.050000 0.350000
v 0.200000 0.050000 0.250000
v 0.300000 0.050000 0.250000
v -0.700000 0.050000 0.050000
v -0.600000 0.050000 0.050000
v -0.700000 0.050000 -0.050000
v -0.600000 0.050000 -0.050000
v 0.400000 0.050000 -0.150000
v 0.500000 0.050000 -0.150000
v 0.400000 0.050000 -0.250000
v 0.500000 0.050000 -0.250000
v -0.400000 0.050000 -0.350000
v -0.300000 0.050000 -0.350000
v -0.400000 0.050000 -0.450000
v -0.300000 0.050000 -0.450000
v 0.600000 0.150000 0.550000
v 0.700000 0.150000 0.550000
v 0.600000 0.150000 0.450000
v 0.700000 0.150000 0.450000
v 0.000000 0.150000 0.250000
v 0.100000 0.150000 0.250000
v -0.100000 0.150000 0.150000
v 0.000000 0.150000 0.150000
v 0.100000 0.150000 0.150000
v 0.200000 0.150000 0.150000
v -0.100000 0.150000 0.050000
v 0.000000 0.150000 0.050000
v 0.100000 0.150000 0.050000
v 0.200000 0.150000 0.050000
v 0.000000 0.150000 -0.050000
v 0.100000 0.150000 -0.050000
v -0.600000 0.250000 0.150000
v -0.500000 0.250000 0.150000
v -0.700000 0.250000 0.050000
v -0.600000 0.250000 0.050000
v -0.500000 0.250000 0.050000
v -0.400000 0.250000 0.050000
v -0.700000 0.250000 -0.050000
v -0.600000 0.250000 -0.050000
v -0.500000 0.250000 -0.050000
v -0.400000 0.250000 -0.050000
v -0.600000 0.250000 -0.150000
v -0.500000 0.250000 -0.150000
v 0.300000 0.250000 -0.350000
v 0.400000 0.250000 -0.350000
v 0.300000 0.250000 -0.450000
v 0.400000 0.250000 -0.450000
vn -0.0000 -1.0000 -0.0000
vn -0.0000 1.0000 -0.0000
vn -0.0000 -0.0000 1.0000
vn -0.0000 -0.0000 -1.0000
vn -1.0000 -0.0000 -0.0000
vn 1.0000 -0.0000 -0.0000
vt 0.982422 0.500000
vt 0.978516 0.500000
vt 0.970703 0.500000
vt 0.974609 0.500000
vt 0.986328 0.500000
s 0
usemtl palette_1.014
f 463/1/1 459/1/1 458/1/1 462/1/1
f 563/2/2 567/2/2 566/2/2 562/2/2
f 517/3/2 519/3/2 518/3/2 516/3/2
f 431/3/1 427/3/1 426/3/1 430/3/1
f 260/3/3 258/3/3 257/3/3 259/3/3
f 368/3/4 370/3/4 369/3/4 367/3/4
f 575/4/2 579/4/2 578/4/2 574/4/2
f 272/3/3 270/3/3 269/3/3 271/3/3
f 493/4/1 489/4/1 488/4/1 492/4/1
f 276/3/3 274/3/3 273/3/3 275/3/3
f 78/1/5 76/1/5 75/1/5 77/1/5
f 364/3/4 366/3/4 365/3/4 363/3/4
f 92/1/5 88/1/5 87/1/5 91/1/5
f 134/3/6 136/3/6 135/3/6 133/3/6
f 200/3/3 198/3/3 197/3/3 199/3/3
f 239/3/3 236/3/3 235/3/3 238/3/3
f 208/3/3 206/3/3 205/3/3 207/3/3
f 122/4/6 124/4/6 123/4/6 121/4/6
f 564/5/2 568/5/2 567/5/2 563/5/2
f 42/3/5 40/3/5 39/3/5 41/3/5
f 176/1/6 180/1/6 179/1/6 175/1/6
f 495/4/1 492/4/1 491/4/1 494/4/1
f 300/3/4 302/3/4 301/3/4 299/3/4
f 435/3/1 433/3/1 432/3/1 434/3/1
f 532/1/2 535/1/2 534/1/2 531/1/2
f 190/1/6 192/1/6 191/1/6 189/1/6
f 56/2/5 52/2/5 51/2/5 55/2/5
f 36/3/5 32/3/5 31/3/5 35/3/5
f 25/3/5 22/3/5 21/3/5 24/3/5
f 483/2/1 480/2/1 479/2/1 482/2/1
f 382/3/4 385/3/4 384/3/4 381/3/4
f 386/1/4 388/1/4 387/1/4 385/1/4
f 4/3/5 2/3/5 1/3/5 3/3/5
f 162/3/6 166/3/6 165/3/6 161/3/6
f 90/1/5 86/1/5 85/1/5 89/1/5
f 160/3/6 164/3/6 163/3/6 159/3/6
f 148/3/6 154/3/6 153/3/6 147/3/6
f 280/1/3 278/1/3 277/1/3 279/1/3
f 94/3/5 82/3/5 81/3/5 93/3/5
f 289/1/3 286/1/3 285/1/3 288/1/3
f 168/3/6 170/3/6 169/3/6 167/3/6
f 401/3/1 396/3/1 395/3/1 400/3/1
f 237/2/3 234/2/3 233/2/3 236/2/3
f 488/4/1 485/4/1 484/4/1 487/4/1
f 527/1/2 533/1/2 532/1/2 526/1/2
f 212/3/3 210/3/3 209/3/3 211/3/3
f 46/2/5 44/2/5 43/2/5 45/2/5
f 499/3/2 505/3/2 504/3/2 498/3/2
f 324/2/4 327/2/4 326/2/4 323/2/4
f 479/2/1 475/2/1 474/2/1 478/2/1
f 102/3/5 100/3/5 99/3/5 101/3/5
f 204/3/3 202/3/3 201/3/3 203/3/3
f 291/3/3 288/3/3 287/3/3 290/3/3
f 156/2/6 158/2/6 157/2/6 155/2/6
f 294/1/3 292/1/3 291/1/3 293/1/3
f 513/3/2 515/3/2 514/3/2 512/3/2
f 390/1/4 392/1/4 391/1/4 389/1/4
f 411/3/1 403/3/1 402/3/1 410/3/1
f 348/2/4 350/2/4 349/2/4 347/2/4
f 398/3/1 394/3/1 393/3/1 397/3/1
f 150/3/6 152/3/6 151/3/6 149/3/6
f 228/2/3 226/2/3 225/2/3 227/2/3
f 268/3/3 266/3/3 265/3/3 267/3/3
f 253/3/3 250/3/3 249/3/3 244/3/3 243/3/3 248/3/3 247/3/3 252/3/3
f 509/3/2 511/3/2 510/3/2 508/3/2
f 465/1/1 461/1/1 460/1/1 464/1/1
f 220/3/3 218/3/3 217/3/3 219/3/3
f 8/4/5 6/4/5 5/4/5 7/4/5
f 553/3/2 555/3/2 554/3/2 552/3/2
f 537/3/2 539/3/2 538/3/2 536/3/2
f 376/3/4 378/3/4 377/3/4 375/3/4
f 360/3/4 362/3/4 361/3/4 359/3/4
f 344/4/4 346/4/4 345/4/4 343/4/4
f 415/3/1 409/3/1 408/3/1 414/3/1
f 51/3/5 48/3/5 47/3/5 50/3/5
f 216/3/3 214/3/3 213/3/3 215/3/3
f 503/3/2 507/3/2 506/3/2 502/3/2
f 460/1/1 457/1/1 456/1/1 459/1/1
f 467/1/1 464/1/1 463/1/1 466/1/1
f 568/2/2 571/2/2 570/2/2 567/2/2
f 108/3/6 112/3/6 111/3/6 107/3/6
f 549/3/2 551/3/2 550/3/2 548/3/2
f 178/1/6 182/1/6 181/1/6 177/1/6
f 18/3/5 12/3/5 11/3/5 17/3/5
f 114/4/6 118/4/6 117/4/6 113/4/6
f 16/3/5 10/3/5 9/3/5 15/3/5
f 445/3/1 439/3/1 438/3/1 444/3/1
f 541/3/2 543/3/2 542/3/2 540/3/2
f 561/2/2 564/2/2 563/2/2 560/2/2
f 476/2/1 473/2/1 472/2/1 475/2/1
f 340/3/4 343/3/4 342/3/4 337/3/4 338/3/4 333/3/4 334/3/4 339/3/4
f 380/1/4 383/1/4 382/1/4 379/1/4
f 429/3/1 423/3/1 422/3/1 428/3/1
f 374/3/4 373/3/4 371/3/4 372/3/4
f 106/3/6 115/3/6 114/3/6 105/3/6
f 481/2/1 477/2/1 476/2/1 480/2/1
f 296/3/4 298/3/4 297/3/4 295/3/4
f 38/3/5 34/3/5 33/3/5 37/3/5
f 356/4/4 358/4/4 357/4/4 355/4/4
f 312/3/4 314/3/4 313/3/4 311/3/4
f 72/3/5 68/3/5 67/3/5 71/3/5
f 526/5/2 532/5/2 531/5/2 525/5/2
f 557/3/2 559/3/2 558/3/2 556/3/2
f 521/1/2 526/1/2 525/1/2 520/1/2
f 580/4/2 583/4/2 582/4/2 579/4/2
f 525/1/2 531/1/2 530/1/2 524/1/2
f 62/3/5 60/3/5 59/3/5 61/3/5
f 491/4/1 487/4/1 486/4/1 490/4/1
f 142/2/6 146/2/6 145/2/6 141/2/6
f 172/3/6 184/3/6 183/3/6 171/3/6
f 523/3/2 529/3/2 528/3/2 522/3/2
f 352/3/4 354/3/4 353/3/4 351/3/4
f 140/2/6 144/2/6 143/2/6 139/2/6
f 251/4/3 246/4/3 245/4/3 250/4/3
f 576/5/2 580/5/2 579/5/2 575/5/2
f 565/2/2 569/2/2 568/2/2 564/2/2
f 425/3/1 421/3/1 420/3/1 424/3/1
f 242/2/3 240/2/3 239/2/3 241/2/3
f 419/3/1 417/3/1 416/3/1 418/3/1
f 545/3/2 547/3/2 546/3/2 544/3/2
f 232/4/3 230/4/3 229/4/3 231/4/3
f 20/3/5 14/3/5 13/3/5 19/3/5
f 128/3/6 132/3/6 131/3/6 127/3/6
f 174/3/6 177/3/6 176/3/6 173/3/6
f 194/3/6 196/3/6 195/3/6 193/3/6
f 256/4/3 254/4/3 253/4/3 255/4/3
f 304/3/4 306/3/4 305/3/4 303/3/4
f 453/3/1 449/3/1 448/3/1 452/3/1
f 455/3/1 451/3/1 450/3/1 454/3/1
f 138/3/6 141/3/6 140/3/6 137/3/6
f 70/3/5 66/3/5 65/3/5 69/3/5
f 585/3/2 587/3/2 586/3/2 584/3/2
f 573/4/2 576/4/2 575/4/2 572/4/2
f 98/3/5 96/3/5 95/3/5 97/3/5
f 186/3/6 188/3/6 187/3/6 185/3/6
f 413/3/1 407/3/1 406/3/1 412/3/1
f 443/3/1 437/3/1 436/3/1 442/3/1
f 104/3/6 110/3/6 109/3/6 103/3/6
f 577/4/2 581/4/2 580/4/2 576/4/2
f 126/3/6 130/3/6 129/3/6 125/3/6
f 80/3/5 74/3/5 73/3/5 79/3/5
f 116/4/6 120/4/6 119/4/6 115/4/6
f 28/4/5 24/4/5 23/4/5 27/4/5
f 326/3/4 329/3/4 328/3/4 325/3/4
f 284/3/3 282/3/3 281/3/3 283/3/3
f 330/2/4 332/2/4 331/2/4 329/2/4
f 405/3/1 399/3/1 398/3/1 404/3/1
f 308/3/4 310/3/4 309/3/4 307/3/4
f 336/4/4 341/4/4 340/4/4 335/4/4
f 471/3/1 469/3/1 468/3/1 470/3/1
f 30/4/5 26/4/5 25/4/5 29/4/5
f 54/2/5 50/2/5 49/2/5 53/2/5
f 64/3/5 58/3/5 57/3/5 63/3/5
f 316/3/4 318/3/4 317/3/4 315/3/4
f 320/3/4 322/3/4 321/3/4 319/3/4
f 87/3/5 84/3/5 83/3/5 86/3/5
f 264/3/3 262/3/3 261/3/3 263/3/3
f 224/3/3 222/3/3 221/3/3 223/3/3
f 447/3/1 441/3/1 440/3/1 446/3/1
f 497/3/2 501/3/2 500/3/2 496/3/2
