# Blender 4.1.1
# www.blender.org
mtllib flowers_2_1.mtl
o ????????????
v -0.700000 0.100000 -0.000000
v -0.700000 0.100000 -0.100000
v -0.700000 0.200000 -0.000000
v -0.700000 0.200000 -0.100000
v -0.600000 -0.200000 0.000000
v -0.600000 -0.200000 -0.100000
v -0.600000 0.100000 0.100000
v -0.600000 0.100000 -0.000000
v -0.600000 0.100000 -0.100000
v -0.600000 0.100000 -0.200000
v -0.600000 0.200000 0.100000
v -0.600000 0.200000 -0.000000
v -0.600000 0.200000 -0.100000
v -0.600000 0.200000 -0.200000
v -0.500000 -0.200000 -0.400000
v -0.500000 -0.200000 -0.500000
v -0.500000 0.200000 -0.400000
v -0.500000 0.200000 -0.500000
v -0.400000 -0.200000 0.600000
v -0.400000 -0.200000 0.500000
v -0.400000 -0.200000 0.100000
v -0.400000 -0.200000 0.000000
v -0.400000 -0.200000 -0.500000
v -0.400000 -0.200000 -0.600000
v -0.400000 -0.100000 0.600000
v -0.400000 -0.100000 0.500000
v -0.400000 -0.000000 -0.500000
v -0.400000 -0.000000 -0.600000
v -0.400000 0.100000 0.100000
v -0.400000 0.100000 -0.000000
v -0.300000 0.000000 0.400000
v -0.300000 0.000000 0.300000
v -0.300000 0.100000 0.400000
v -0.300000 0.100000 0.300000
v -0.200000 -0.200000 0.400000
v -0.200000 -0.200000 0.300000
v -0.200000 -0.200000 -0.100000
v -0.200000 -0.200000 -0.200000
v -0.200000 -0.100000 -0.100000
v -0.200000 -0.100000 -0.200000
v -0.200000 0.000000 0.500000
v -0.200000 0.000000 0.400000
v -0.200000 0.000000 0.300000
v -0.200000 0.000000 0.200000
v -0.200000 0.100000 0.500000
v -0.200000 0.100000 0.400000
v -0.200000 0.100000 0.300000
v -0.200000 0.100000 0.200000
v 0.000000 -0.200000 0.000000
v 0.000000 -0.200000 -0.100000
v 0.000000 -0.200000 -0.300000
v 0.000000 -0.200000 -0.400000
v 0.000000 -0.100000 -0.300000
v 0.000000 -0.100000 -0.400000
v 0.000000 0.000000 0.000000
v 0.000000 -0.000000 -0.100000
v 0.100000 -0.200000 0.700000
v 0.100000 -0.200000 0.600000
v 0.100000 -0.200000 0.500000
v 0.100000 -0.200000 0.400000
v 0.100000 0.000000 0.700000
v 0.100000 0.000000 0.600000
v 0.100000 0.200000 0.500000
v 0.100000 0.200000 0.400000
v 0.200000 -0.200000 -0.400000
v 0.200000 -0.200000 -0.500000
v 0.200000 0.100000 -0.400000
v 0.200000 0.100000 -0.500000
v 0.300000 -0.200000 0.400000
v 0.300000 -0.200000 0.300000
v 0.300000 -0.100000 0.400000
v 0.300000 -0.100000 0.300000
v 0.300000 -0.000000 -0.100000
v 0.300000 -0.000000 -0.200000
v 0.300000 0.100000 -0.100000
v 0.300000 0.100000 -0.200000
v 0.400000 -0.200000 -0.100000
v 0.400000 -0.200000 -0.200000
v 0.400000 0.000000 0.000000
v 0.400000 -0.000000 -0.100000
v 0.400000 -0.000000 -0.200000
v 0.400000 -0.000000 -0.300000
v 0.400000 0.100000 -0.000000
v 0.400000 0.100000 -0.100000
v 0.400000 0.100000 -0.200000
v 0.400000 0.100000 -0.300000
v 0.500000 -0.200000 -0.400000
v 0.500000 -0.200000 -0.500000
v 0.500000 -0.200000 -0.600000
v 0.500000 -0.200000 -0.700000
v 0.500000 -0.100000 -0.400000
v 0.500000 -0.100000 -0.500000
v 0.500000 0.200000 -0.600000
v 0.500000 0.200000 -0.700000
v 0.600000 -0.200000 0.500000
v 0.600000 -0.200000 0.400000
v 0.600000 0.000000 0.500000
v 0.600000 0.000000 0.400000
v -0.500000 -0.200000 0.000000
v -0.500000 -0.200000 -0.100000
v -0.500000 0.100000 0.100000
v -0.500000 0.100000 -0.000000
v -0.500000 0.100000 -0.100000
v -0.500000 0.100000 -0.200000
v -0.500000 0.200000 0.100000
v -0.500000 0.200000 -0.000000
v -0.500000 0.200000 -0.100000
v -0.500000 0.200000 -0.200000
v -0.400000 -0.200000 -0.400000
v -0.400000 -0.200000 -0.500000
v -0.400000 0.100000 -0.000000
v -0.400000 0.100000 -0.100000
v -0.400000 0.200000 -0.000000
v -0.400000 0.200000 -0.100000
v -0.400000 0.200000 -0.400000
v -0.400000 0.200000 -0.500000
v -0.300000 -0.200000 0.600000
v -0.300000 -0.200000 0.500000
v -0.300000 -0.200000 0.100000
v -0.300000 -0.200000 0.000000
v -0.300000 -0.200000 -0.500000
v -0.300000 -0.200000 -0.600000
v -0.300000 -0.100000 0.600000
v -0.300000 -0.100000 0.500000
v -0.300000 -0.000000 -0.500000
v -0.300000 -0.000000 -0.600000
v -0.300000 0.100000 0.100000
v -0.300000 0.100000 -0.000000
v -0.100000 -0.200000 0.400000
v -0.100000 -0.200000 0.300000
v -0.100000 -0.200000 -0.100000
v -0.100000 -0.200000 -0.200000
v -0.100000 -0.100000 -0.100000
v -0.100000 -0.100000 -0.200000
v -0.100000 0.000000 0.500000
v -0.100000 0.000000 0.400000
v -0.100000 0.000000 0.300000
v -0.100000 0.000000 0.200000
v -0.100000 0.100000 0.500000
v -0.100000 0.100000 0.400000
v -0.100000 0.100000 0.300000
v -0.100000 0.100000 0.200000
v 0.000000 0.000000 0.400000
v 0.000000 0.000000 0.300000
v 0.000000 0.100000 0.400000
v 0.000000 0.100000 0.300000
v 0.100000 -0.200000 0.000000
v 0.100000 -0.200000 -0.100000
v 0.100000 -0.200000 -0.300000
v 0.100000 -0.200000 -0.400000
v 0.100000 -0.100000 -0.300000
v 0.100000 -0.100000 -0.400000
v 0.100000 0.000000 0.000000
v 0.100000 -0.000000 -0.100000
v 0.200000 -0.200000 0.700000
v 0.200000 -0.200000 0.600000
v 0.200000 -0.200000 0.500000
v 0.200000 -0.200000 0.400000
v 0.200000 0.000000 0.700000
v 0.200000 0.000000 0.600000
v 0.200000 0.200000 0.500000
v 0.200000 0.200000 0.400000
v 0.300000 -0.200000 -0.400000
v 0.300000 -0.200000 -0.500000
v 0.300000 0.100000 -0.400000
v 0.300000 0.100000 -0.500000
v 0.400000 -0.200000 0.400000
v 0.400000 -0.200000 0.300000
v 0.400000 -0.100000 0.400000
v 0.400000 -0.100000 0.300000
v 0.500000 -0.200000 -0.100000
v 0.500000 -0.200000 -0.200000
v 0.500000 0.000000 0.000000
v 0.500000 -0.000000 -0.100000
v 0.500000 -0.000000 -0.200000
v 0.500000 -0.000000 -0.300000
v 0.500000 0.100000 -0.000000
v 0.500000 0.100000 -0.100000
v 0.500000 0.100000 -0.200000
v 0.500000 0.100000 -0.300000
v 0.600000 -0.200000 -0.400000
v 0.600000 -0.200000 -0.500000
v 0.600000 -0.200000 -0.600000
v 0.600000 -0.200000 -0.700000
v 0.600000 -0.100000 -0.400000
v 0.600000 -0.100000 -0.500000
v 0.600000 -0.000000 -0.100000
v 0.600000 -0.000000 -0.200000
v 0.600000 0.100000 -0.100000
v 0.600000 0.100000 -0.200000
v 0.600000 0.200000 -0.600000
v 0.600000 0.200000 -0.700000
v 0.700000 -0.200000 0.500000
v 0.700000 -0.200000 0.400000
v 0.700000 0.000000 0.500000
v 0.700000 0.000000 0.400000
v 0.100000 -0.200000 0.700000
v 0.100000 0.000000 0.700000
v 0.200000 -0.200000 0.700000
v 0.200000 0.000000 0.700000
v -0.400000 -0.200000 0.600000
v -0.400000 -0.100000 0.600000
v -0.300000 -0.200000 0.600000
v -0.300000 -0.100000 0.600000
v -0.200000 0.000000 0.500000
v -0.200000 0.100000 0.500000
v -0.100000 0.000000 0.500000
v -0.100000 0.100000 0.500000
v 0.100000 -0.200000 0.500000
v 0.100000 0.200000 0.500000
v 0.200000 -0.200000 0.500000
v 0.200000 0.200000 0.500000
v 0.600000 -0.200000 0.500000
v 0.600000 0.000000 0.500000
v 0.700000 -0.200000 0.500000
v 0.700000 0.000000 0.500000
v -0.300000 0.000000 0.400000
v -0.300000 0.100000 0.400000
v -0.200000 -0.200000 0.400000
v -0.200000 0.000000 0.400000
v -0.200000 0.100000 0.400000
v -0.100000 -0.200000 0.400000
v -0.100000 0.000000 0.400000
v -0.100000 0.100000 0.400000
v 0.000000 0.000000 0.400000
v 0.000000 0.100000 0.400000
v 0.300000 -0.200000 0.400000
v 0.300000 -0.100000 0.400000
v 0.400000 -0.200000 0.400000
v 0.400000 -0.100000 0.400000
v -0.600000 0.100000 0.100000
v -0.600000 0.200000 0.100000
v -0.500000 0.100000 0.100000
v -0.500000 0.200000 0.100000
v -0.400000 -0.200000 0.100000
v -0.400000 0.100000 0.100000
v -0.300000 -0.200000 0.100000
v -0.300000 0.100000 0.100000
v -0.700000 0.100000 -0.000000
v -0.700000 0.200000 -0.000000
v -0.600000 -0.200000 0.000000
v -0.600000 0.100000 -0.000000
v -0.600000 0.200000 -0.000000
v -0.500000 -0.200000 0.000000
v -0.500000 0.100000 -0.000000
v -0.500000 0.200000 -0.000000
v -0.400000 0.100000 -0.000000
v -0.400000 0.200000 -0.000000
v 0.000000 -0.200000 0.000000
v 0.000000 0.000000 0.000000
v 0.100000 -0.200000 0.000000
v 0.100000 0.000000 0.000000
v 0.400000 0.000000 0.000000
v 0.400000 0.100000 -0.000000
v 0.500000 0.000000 0.000000
v 0.500000 0.100000 -0.000000
v -0.200000 -0.200000 -0.100000
v -0.200000 -0.100000 -0.100000
v -0.100000 -0.200000 -0.100000
v -0.100000 -0.100000 -0.100000
v 0.300000 -0.000000 -0.100000
v 0.300000 0.100000 -0.100000
v 0.400000 -0.200000 -0.100000
v 0.400000 -0.000000 -0.100000
v 0.400000 0.100000 -0.100000
v 0.500000 -0.200000 -0.100000
v 0.500000 -0.000000 -0.100000
v 0.500000 0.100000 -0.100000
v 0.600000 -0.000000 -0.100000
v 0.600000 0.100000 -0.100000
v 0.000000 -0.200000 -0.300000
v 0.000000 -0.100000 -0.300000
v 0.100000 -0.200000 -0.300000
v 0.100000 -0.100000 -0.300000
v -0.500000 -0.200000 -0.400000
v -0.500000 0.200000 -0.400000
v -0.400000 -0.200000 -0.400000
v -0.400000 0.200000 -0.400000
v 0.200000 -0.200000 -0.400000
v 0.200000 0.100000 -0.400000
v 0.300000 -0.200000 -0.400000
v 0.300000 0.100000 -0.400000
v 0.500000 -0.200000 -0.400000
v 0.500000 -0.100000 -0.400000
v 0.600000 -0.200000 -0.400000
v 0.600000 -0.100000 -0.400000
v -0.400000 -0.200000 -0.500000
v -0.400000 -0.000000 -0.500000
v -0.300000 -0.200000 -0.500000
v -0.300000 -0.000000 -0.500000
v 0.500000 -0.200000 -0.600000
v 0.500000 0.200000 -0.600000
v 0.600000 -0.200000 -0.600000
v 0.600000 0.200000 -0.600000
v 0.100000 -0.200000 0.600000
v 0.100000 0.000000 0.600000
v 0.200000 -0.200000 0.600000
v 0.200000 0.000000 0.600000
v -0.400000 -0.200000 0.500000
v -0.400000 -0.100000 0.500000
v -0.300000 -0.200000 0.500000
v -0.300000 -0.100000 0.500000
v 0.100000 -0.200000 0.400000
v 0.100000 0.200000 0.400000
v 0.200000 -0.200000 0.400000
v 0.200000 0.200000 0.400000
v 0.600000 -0.200000 0.400000
v 0.600000 0.000000 0.400000
v 0.700000 -0.200000 0.400000
v 0.700000 0.000000 0.400000
v -0.300000 0.000000 0.300000
v -0.300000 0.100000 0.300000
v -0.200000 -0.200000 0.300000
v -0.200000 0.000000 0.300000
v -0.200000 0.100000 0.300000
v -0.100000 -0.200000 0.300000
v -0.100000 0.000000 0.300000
v -0.100000 0.100000 0.300000
v 0.000000 0.000000 0.300000
v 0.000000 0.100000 0.300000
v 0.300000 -0.200000 0.300000
v 0.300000 -0.100000 0.300000
v 0.400000 -0.200000 0.300000
v 0.400000 -0.100000 0.300000
v -0.200000 0.000000 0.200000
v -0.200000 0.100000 0.200000
v -0.100000 0.000000 0.200000
v -0.100000 0.100000 0.200000
v -0.400000 -0.200000 0.000000
v -0.400000 0.100000 -0.000000
v -0.300000 -0.200000 0.000000
v -0.300000 0.100000 -0.000000
v -0.700000 0.100000 -0.100000
v -0.700000 0.200000 -0.100000
v -0.600000 -0.200000 -0.100000
v -0.600000 0.100000 -0.100000
v -0.600000 0.200000 -0.100000
v -0.500000 -0.200000 -0.100000
v -0.500000 0.100000 -0.100000
v -0.500000 0.200000 -0.100000
v -0.400000 0.100000 -0.100000
v -0.400000 0.200000 -0.100000
v 0.000000 -0.200000 -0.100000
v 0.000000 -0.000000 -0.100000
v 0.100000 -0.200000 -0.100000
v 0.100000 -0.000000 -0.100000
v -0.600000 0.100000 -0.200000
v -0.600000 0.200000 -0.200000
v -0.500000 0.100000 -0.200000
v -0.500000 0.200000 -0.200000
v -0.200000 -0.200000 -0.200000
v -0.200000 -0.100000 -0.200000
v -0.100000 -0.200000 -0.200000
v -0.100000 -0.100000 -0.200000
v 0.300000 -0.000000 -0.200000
v 0.300000 0.100000 -0.200000
v 0.400000 -0.200000 -0.200000
v 0.400000 -0.000000 -0.200000
v 0.400000 0.100000 -0.200000
v 0.500000 -0.200000 -0.200000
v 0.500000 -0.000000 -0.200000
v 0.500000 0.100000 -0.200000
v 0.600000 -0.000000 -0.200000
v 0.600000 0.100000 -0.200000
v 0.400000 -0.000000 -0.300000
v 0.400000 0.100000 -0.300000
v 0.500000 -0.000000 -0.300000
v 0.500000 0.100000 -0.300000
v 0.000000 -0.200000 -0.400000
v 0.000000 -0.100000 -0.400000
v 0.100000 -0.200000 -0.400000
v 0.100000 -0.100000 -0.400000
v -0.500000 -0.200000 -0.500000
v -0.500000 0.200000 -0.500000
v -0.400000 -0.200000 -0.500000
v -0.400000 0.200000 -0.500000
v 0.200000 -0.200000 -0.500000
v 0.200000 0.100000 -0.500000
v 0.300000 -0.200000 -0.500000
v 0.300000 0.100000 -0.500000
v 0.500000 -0.200000 -0.500000
v 0.500000 -0.100000 -0.500000
v 0.600000 -0.200000 -0.500000
v 0.600000 -0.100000 -0.500000
v -0.400000 -0.200000 -0.600000
v -0.400000 -0.000000 -0.600000
v -0.300000 -0.200000 -0.600000
v -0.300000 -0.000000 -0.600000
v 0.500000 -0.200000 -0.700000
v 0.500000 0.200000 -0.700000
v 0.600000 -0.200000 -0.700000
v 0.600000 0.200000 -0.700000
v 0.100000 -0.200000 0.700000
v 0.200000 -0.200000 0.700000
v -0.400000 -0.200000 0.600000
v -0.300000 -0.200000 0.600000
v 0.100000 -0.200000 0.600000
v 0.200000 -0.200000 0.600000
v -0.400000 -0.200000 0.500000
v -0.300000 -0.200000 0.500000
v 0.100000 -0.200000 0.500000
v 0.200000 -0.200000 0.500000
v 0.600000 -0.200000 0.500000
v 0.700000 -0.200000 0.500000
v -0.200000 -0.200000 0.400000
v -0.100000 -0.200000 0.400000
v 0.100000 -0.200000 0.400000
v 0.200000 -0.200000 0.400000
v 0.300000 -0.200000 0.400000
v 0.400000 -0.200000 0.400000
v 0.600000 -0.200000 0.400000
v 0.700000 -0.200000 0.400000
v -0.200000 -0.200000 0.300000
v -0.100000 -0.200000 0.300000
v 0.300000 -0.200000 0.300000
v 0.400000 -0.200000 0.300000
v -0.400000 -0.200000 0.100000
v -0.300000 -0.200000 0.100000
v -0.600000 -0.200000 0.000000
v -0.500000 -0.200000 0.000000
v -0.400000 -0.200000 0.000000
v -0.300000 -0.200000 0.000000
v 0.000000 -0.200000 0.000000
v 0.100000 -0.200000 0.000000
v -0.600000 -0.200000 -0.100000
v -0.500000 -0.200000 -0.100000
v -0.200000 -0.200000 -0.100000
v -0.100000 -0.200000 -0.100000
v 0.000000 -0.200000 -0.100000
v 0.100000 -0.200000 -0.100000
v 0.400000 -0.200000 -0.100000
v 0.500000 -0.200000 -0.100000
v -0.200000 -0.200000 -0.200000
v -0.100000 -0.200000 -0.200000
v 0.400000 -0.200000 -0.200000
v 0.500000 -0.200000 -0.200000
v 0.000000 -0.200000 -0.300000
v 0.100000 -0.200000 -0.300000
v -0.500000 -0.200000 -0.400000
v -0.400000 -0.200000 -0.400000
v 0.000000 -0.200000 -0.400000
v 0.100000 -0.200000 -0.400000
v 0.200000 -0.200000 -0.400000
v 0.300000 -0.200000 -0.400000
v 0.500000 -0.200000 -0.400000
v 0.600000 -0.200000 -0.400000
v -0.500000 -0.200000 -0.500000
v -0.400000 -0.200000 -0.500000
v -0.300000 -0.200000 -0.500000
v 0.200000 -0.200000 -0.500000
v 0.300000 -0.200000 -0.500000
v 0.500000 -0.200000 -0.500000
v 0.600000 -0.200000 -0.500000
v -0.400000 -0.200000 -0.600000
v -0.300000 -0.200000 -0.600000
v 0.500000 -0.200000 -0.600000
v 0.600000 -0.200000 -0.600000
v 0.500000 -0.200000 -0.700000
v 0.600000 -0.200000 -0.700000
v -0.200000 0.000000 0.500000
v -0.100000 0.000000 0.500000
v -0.300000 0.000000 0.400000
v -0.200000 0.000000 0.400000
v -0.100000 0.000000 0.400000
v 0.000000 0.000000 0.400000
v -0.300000 0.000000 0.300000
v -0.200000 0.000000 0.300000
v -0.100000 0.000000 0.300000
v 0.000000 0.000000 0.300000
v -0.200000 0.000000 0.200000
v -0.100000 0.000000 0.200000
v 0.400000 0.000000 0.000000
v 0.500000 0.000000 0.000000
v 0.300000 -0.000000 -0.100000
v 0.400000 -0.000000 -0.100000
v 0.500000 -0.000000 -0.100000
v 0.600000 -0.000000 -0.100000
v 0.300000 -0.000000 -0.200000
v 0.400000 -0.000000 -0.200000
v 0.500000 -0.000000 -0.200000
v 0.600000 -0.000000 -0.200000
v 0.400000 -0.000000 -0.300000
v 0.500000 -0.000000 -0.300000
v -0.600000 0.100000 0.100000
v -0.500000 0.100000 0.100000
v -0.700000 0.100000 -0.000000
v -0.600000 0.100000 -0.000000
v -0.500000 0.100000 -0.000000
v -0.400000 0.100000 -0.000000
v -0.700000 0.100000 -0.100000
v -0.600000 0.100000 -0.100000
v -0.500000 0.100000 -0.100000
v -0.400000 0.100000 -0.100000
v -0.600000 0.100000 -0.200000
v -0.500000 0.100000 -0.200000
v -0.400000 -0.100000 0.600000
v -0.300000 -0.100000 0.600000
v -0.400000 -0.100000 0.500000
v -0.300000 -0.100000 0.500000
v 0.300000 -0.100000 0.400000
v 0.400000 -0.100000 0.400000
v 0.300000 -0.100000 0.300000
v 0.400000 -0.100000 0.300000
v -0.200000 -0.100000 -0.100000
v -0.100000 -0.100000 -0.100000
v -0.200000 -0.100000 -0.200000
v -0.100000 -0.100000 -0.200000
v 0.000000 -0.100000 -0.300000
v 0.100000 -0.100000 -0.300000
v 0.000000 -0.100000 -0.400000
v 0.100000 -0.100000 -0.400000
v 0.500000 -0.100000 -0.400000
v 0.600000 -0.100000 -0.400000
v 0.500000 -0.100000 -0.500000
v 0.600000 -0.100000 -0.500000
v 0.100000 0.000000 0.700000
v 0.200000 0.000000 0.700000
v 0.100000 0.000000 0.600000
v 0.200000 0.000000 0.600000
v 0.600000 0.000000 0.500000
v 0.700000 0.000000 0.500000
v 0.600000 0.000000 0.400000
v 0.700000 0.000000 0.400000
v 0.000000 0.000000 0.000000
v 0.100000 0.000000 0.000000
v 0.000000 -0.000000 -0.100000
v 0.100000 -0.000000 -0.100000
v -0.400000 -0.000000 -0.500000
v -0.300000 -0.000000 -0.500000
v -0.400000 -0.000000 -0.600000
v -0.300000 -0.000000 -0.600000
v -0.200000 0.100000 0.500000
v -0.100000 0.100000 0.500000
v -0.300000 0.100000 0.400000
v -0.200000 0.100000 0.400000
v -0.100000 0.100000 0.400000
v 0.000000 0.100000 0.400000
v -0.300000 0.100000 0.300000
v -0.200000 0.100000 0.300000
v -0.100000 0.100000 0.300000
v 0.000000 0.100000 0.300000
v -0.200000 0.100000 0.200000
v -0.100000 0.100000 0.200000
v -0.400000 0.100000 0.100000
v -0.300000 0.100000 0.100000
v -0.400000 0.100000 -0.000000
v -0.300000 0.100000 -0.000000
v 0.400000 0.100000 -0.000000
v 0.500000 0.100000 -0.000000
v 0.300000 0.100000 -0.100000
v 0.400000 0.100000 -0.100000
v 0.500000 0.100000 -0.100000
v 0.600000 0.100000 -0.100000
v 0.300000 0.100000 -0.200000
v 0.400000 0.100000 -0.200000
v 0.500000 0.100000 -0.200000
v 0.600000 0.100000 -0.200000
v 0.400000 0.100000 -0.300000
v 0.500000 0.100000 -0.300000
v 0.200000 0.100000 -0.400000
v 0.300000 0.100000 -0.400000
v 0.200000 0.100000 -0.500000
v 0.300000 0.100000 -0.500000
v 0.100000 0.200000 0.500000
v 0.200000 0.200000 0.500000
v 0.100000 0.200000 0.400000
v 0.200000 0.200000 0.400000
v -0.600000 0.200000 0.100000
v -0.500000 0.200000 0.100000
v -0.700000 0.200000 -0.000000
v -0.600000 0.200000 -0.000000
v -0.500000 0.200000 -0.000000
v -0.400000 0.200000 -0.000000
v -0.700000 0.200000 -0.100000
v -0.600000 0.200000 -0.100000
v -0.500000 0.200000 -0.100000
v -0.400000 0.200000 -0.100000
v -0.600000 0.200000 -0.200000
v -0.500000 0.200000 -0.200000
v -0.500000 0.200000 -0.400000
v -0.400000 0.200000 -0.400000
v -0.500000 0.200000 -0.500000
v -0.400000 0.200000 -0.500000
v 0.500000 0.200000 -0.600000
v 0.600000 0.200000 -0.600000
v 0.500000 0.200000 -0.700000
v 0.600000 0.200000 -0.700000
vn -0.0000 1.0000 -0.0000
vn 1.0000 -0.0000 -0.0000
vn -1.0000 -0.0000 -0.0000
vn -0.0000 -0.0000 -1.0000
vn -0.0000 -1.0000 -0.0000
vn -0.0000 -0.0000 1.0000
vt 0.974609 0.500000
vt 0.970703 0.500000
vt 0.986328 0.500000
vt 0.978516 0.500000
vt 0.982422 0.500000
s 0
usemtl palette_1.015
f 549/1/1 552/1/1 551/1/1 548/1/1
f 172/2/2 175/2/2 174/2/2 171/2/2
f 28/2/3 24/2/3 23/2/3 27/2/3
f 148/2/2 154/2/2 153/2/2 147/2/2
f 358/2/4 361/2/4 360/2/4 357/2/4
f 366/1/4 368/1/4 367/1/4 365/1/4
f 18/2/3 16/2/3 15/2/3 17/2/3
f 483/1/5 480/1/5 479/1/5 482/1/5
f 256/1/6 254/1/6 253/1/6 255/1/6
f 430/2/5 424/2/5 423/2/5 429/2/5
f 260/2/6 258/2/6 257/2/6 259/2/6
f 267/2/6 264/2/6 263/2/6 266/2/6
f 62/2/3 58/2/3 57/2/3 61/2/3
f 208/3/6 206/3/6 205/3/6 207/3/6
f 436/2/5 432/2/5 431/2/5 435/2/5
f 308/2/4 310/2/4 309/2/4 307/2/4
f 76/1/3 74/1/3 73/1/3 75/1/3
f 278/2/6 276/2/6 275/2/6 277/2/6
f 464/3/5 461/3/5 460/3/5 463/3/5
f 408/2/5 402/2/5 401/2/5 407/2/5
f 184/2/2 192/2/2 191/2/2 183/2/2
f 245/2/6 242/2/6 241/2/6 244/2/6
f 529/2/1 531/2/1 530/2/1 528/2/1
f 382/2/4 384/2/4 383/2/4 381/2/4
f 92/2/3 88/2/3 87/2/3 91/2/3
f 226/3/6 224/3/6 223/3/6 225/3/6
f 536/4/1 540/4/1 539/4/1 535/4/1
f 34/3/3 32/3/3 31/3/3 33/3/3
f 545/2/1 547/2/1 546/2/1 544/2/1
f 110/2/2 116/2/2 115/2/2 109/2/2
f 314/2/4 317/2/4 316/2/4 313/2/4
f 481/1/5 477/1/5 476/1/5 480/1/5
f 286/2/6 284/2/6 283/2/6 285/2/6
f 459/2/5 457/2/5 456/2/5 458/2/5
f 274/2/6 272/2/6 271/2/6 273/2/6
f 352/2/4 354/2/4 353/2/4 351/2/4
f 26/2/3 20/2/3 19/2/3 25/2/3
f 340/5/4 342/5/4 341/5/4 339/5/4
f 102/5/2 106/5/2 105/5/2 101/5/2
f 200/2/6 198/2/6 197/2/6 199/2/6
f 400/2/5 396/2/5 395/2/5 399/2/5
f 495/5/5 492/5/5 491/5/5 494/5/5
f 265/1/6 262/1/6 261/1/6 264/1/6
f 156/2/2 160/2/2 159/2/2 155/2/2
f 212/2/6 210/2/6 209/2/6 211/2/6
f 132/2/2 134/2/2 133/2/2 131/2/2
f 535/3/1 539/3/1 538/3/1 534/3/1
f 318/3/4 320/3/4 319/3/4 317/3/4
f 104/5/2 108/5/2 107/5/2 103/5/2
f 434/2/5 428/2/5 427/2/5 433/2/5
f 326/3/4 328/3/4 327/3/4 325/3/4
f 304/2/4 306/2/4 305/2/4 303/2/4
f 174/1/2 178/1/2 177/1/2 173/1/2
f 86/1/3 82/1/3 81/1/3 85/1/3
f 158/2/2 162/2/2 161/2/2 157/2/2
f 204/2/6 202/2/6 201/2/6 203/2/6
f 390/2/4 392/2/4 391/2/4 389/2/4
f 68/2/3 66/2/3 65/2/3 67/2/3
f 282/2/6 280/2/6 279/2/6 281/2/6
f 330/2/4 332/2/4 331/2/4 329/2/4
f 296/2/4 298/2/4 297/2/4 295/2/4
f 9/2/3 6/2/3 5/2/3 8/2/3
f 448/2/5 440/2/5 439/2/5 447/2/5
f 234/5/6 232/5/6 231/5/6 233/5/6
f 221/3/6 218/3/6 217/3/6 220/3/6
f 585/2/1 587/2/1 586/2/1 584/2/1
f 336/2/4 339/2/4 338/2/4 335/2/4
f 248/5/6 246/5/6 245/5/6 247/5/6
f 493/5/5 489/5/5 488/5/5 492/5/5
f 476/1/5 473/1/5 472/1/5 475/1/5
f 270/1/6 268/1/6 267/1/6 269/1/6
f 573/5/1 577/5/1 576/5/1 572/5/1
f 112/5/2 114/5/2 113/5/2 111/5/2
f 194/2/2 196/2/2 195/2/2 193/2/2
f 378/2/4 380/2/4 379/2/4 377/2/4
f 551/1/1 555/1/1 554/1/1 550/1/1
f 451/2/5 444/2/5 443/2/5 450/2/5
f 122/2/2 126/2/2 125/2/2 121/2/2
f 223/2/6 220/2/6 219/2/6 222/2/6
f 40/2/3 38/2/3 37/2/3 39/2/3
f 130/2/2 137/2/2 136/2/2 129/2/2
f 30/2/3 22/2/3 21/2/3 29/2/3
f 537/3/1 541/3/1 540/3/1 536/3/1
f 571/5/1 575/5/1 574/5/1 570/5/1
f 98/2/3 96/2/3 95/2/3 97/2/3
f 118/2/2 124/2/2 123/2/2 117/2/2
f 176/1/2 180/1/2 179/1/2 175/1/2
f 94/2/3 90/2/3 89/2/3 93/2/3
f 84/1/3 80/1/3 79/1/3 83/1/3
f 168/2/2 170/2/2 169/2/2 167/2/2
f 416/2/5 410/2/5 409/2/5 415/2/5
f 48/3/3 44/3/3 43/3/3 47/3/3
f 72/2/3 70/2/3 69/2/3 71/2/3
f 120/2/2 128/2/2 127/2/2 119/2/2
f 322/2/4 324/2/4 323/2/4 321/2/4
f 442/2/5 438/2/5 437/2/5 441/2/5
f 334/5/4 337/5/4 336/5/4 333/5/4
f 216/2/6 214/2/6 213/2/6 215/2/6
f 501/2/1 503/2/1 502/2/1 500/2/1
f 479/1/5 475/1/5 474/1/5 478/1/5
f 561/2/1 563/2/1 562/2/1 560/2/1
f 572/4/1 576/4/1 575/4/1 571/4/1
f 300/2/4 302/2/4 301/2/4 299/2/4
f 455/2/5 449/2/5 448/2/5 454/2/5
f 230/2/6 228/2/6 227/2/6 229/2/6
f 164/2/2 166/2/2 165/2/2 163/2/2
f 312/3/4 315/3/4 314/3/4 311/3/4
f 14/5/3 10/5/3 9/5/3 13/5/3
f 150/2/2 152/2/2 151/2/2 149/2/2
f 56/2/3 50/2/3 49/2/3 55/2/3
f 138/3/2 142/3/2 141/3/2 137/3/2
f 412/2/5 404/2/5 403/2/5 411/2/5
f 294/2/6 292/2/6 291/2/6 293/2/6
f 238/2/6 236/2/6 235/2/6 237/2/6
f 552/4/1 556/4/1 555/4/1 551/4/1
f 569/5/1 572/5/1 571/5/1 568/5/1
f 553/1/1 557/1/1 556/1/1 552/1/1
f 376/2/4 375/2/4 373/2/4 374/2/4
f 182/2/2 186/2/2 185/2/2 181/2/2
f 100/2/2 103/2/2 102/2/2 99/2/2
f 344/2/4 346/2/4 345/2/4 343/2/4
f 43/2/3 36/2/3 35/2/3 42/2/3
f 581/2/1 583/2/1 582/2/1 580/2/1
f 565/2/1 567/2/1 566/2/1 564/2/1
f 491/5/5 487/5/5 486/5/5 490/5/5
f 414/2/5 406/2/5 405/2/5 413/2/5
f 348/5/4 350/5/4 349/5/4 347/5/4
f 64/2/3 60/2/3 59/2/3 63/2/3
f 386/2/4 388/2/4 387/2/4 385/2/4
f 426/2/5 420/2/5 419/2/5 425/2/5
f 290/2/6 288/2/6 287/2/6 289/2/6
f 144/3/2 146/3/2 145/3/2 143/3/2
f 471/3/5 468/3/5 467/3/5 470/3/5
f 576/5/1 579/5/1 578/5/1 575/5/1
f 467/3/5 463/3/5 462/3/5 466/3/5
f 46/3/3 42/3/3 41/3/3 45/3/3
f 521/2/1 523/2/1 522/2/1 520/2/1
f 488/5/5 485/5/5 484/5/5 487/5/5
f 469/3/5 465/3/5 464/3/5 468/3/5
f 4/5/3 2/5/3 1/5/3 3/5/3
f 370/2/4 372/2/4 371/2/4 369/2/4
f 525/2/1 527/2/1 526/2/1 524/2/1
f 453/2/5 446/2/5 445/2/5 452/2/5
f 136/3/2 140/3/2 139/3/2 135/3/2
f 422/2/5 418/2/5 417/2/5 421/2/5
f 12/5/3 8/5/3 7/5/3 11/5/3
f 517/2/1 519/2/1 518/2/1 516/2/1
f 243/5/6 240/5/6 239/5/6 242/5/6
f 81/2/3 78/2/3 77/2/3 80/2/3
f 252/2/6 250/2/6 249/2/6 251/2/6
f 398/2/5 394/2/5 393/2/5 397/2/5
f 362/1/4 364/1/4 363/1/4 361/1/4
f 188/1/2 190/1/2 189/1/2 187/1/2
f 533/3/1 536/3/1 535/3/1 532/3/1
f 556/1/1 559/1/1 558/1/1 555/1/1
f 54/2/3 52/2/3 51/2/3 53/2/3
f 356/1/4 359/1/4 358/1/4 355/1/4
f 497/2/1 499/2/1 498/2/1 496/2/1
f 513/2/1 515/2/1 514/2/1 512/2/1
f 505/2/1 507/2/1 506/2/1 504/2/1
f 540/3/1 543/3/1 542/3/1 539/3/1
f 509/2/1 511/2/1 510/2/1 508/2/1
