# Blender 4.1.1
# www.blender.org
mtllib grass_2_1.mtl
o ????????????
v -0.650000 -0.200000 0.000000
v -0.650000 -0.200000 -0.100000
v -0.650000 0.200000 -0.000000
v -0.650000 0.200000 -0.100000
v -0.550000 -0.200000 -0.400000
v -0.550000 -0.200000 -0.500000
v -0.550000 0.200000 -0.400000
v -0.550000 0.200000 -0.500000
v -0.450000 -0.200000 0.600000
v -0.450000 -0.200000 0.500000
v -0.450000 -0.200000 0.100000
v -0.450000 -0.200000 0.000000
v -0.450000 -0.200000 -0.500000
v -0.450000 -0.200000 -0.600000
v -0.450000 -0.100000 0.600000
v -0.450000 -0.100000 0.500000
v -0.450000 -0.000000 -0.500000
v -0.450000 -0.000000 -0.600000
v -0.450000 0.100000 0.100000
v -0.450000 0.100000 -0.000000
v -0.250000 -0.200000 -0.100000
v -0.250000 -0.200000 -0.200000
v -0.250000 -0.100000 -0.100000
v -0.250000 -0.100000 -0.200000
v -0.050000 -0.200000 0.000000
v -0.050000 -0.200000 -0.100000
v -0.050000 -0.200000 -0.300000
v -0.050000 -0.200000 -0.400000
v -0.050000 -0.100000 -0.300000
v -0.050000 -0.100000 -0.400000
v -0.050000 0.000000 0.000000
v -0.050000 -0.000000 -0.100000
v 0.050000 -0.200000 0.700000
v 0.050000 -0.200000 0.600000
v 0.050000 -0.200000 0.500000
v 0.050000 -0.200000 0.400000
v 0.050000 0.000000 0.700000
v 0.050000 0.000000 0.600000
v 0.050000 0.200000 0.500000
v 0.050000 0.200000 0.400000
v 0.150000 -0.200000 -0.400000
v 0.150000 -0.200000 -0.500000
v 0.150000 0.100000 -0.400000
v 0.150000 0.100000 -0.500000
v 0.250000 -0.200000 0.400000
v 0.250000 -0.200000 0.300000
v 0.250000 -0.100000 0.400000
v 0.250000 -0.100000 0.300000
v 0.350000 -0.200000 -0.100000
v 0.350000 -0.200000 -0.200000
v 0.350000 0.100000 -0.100000
v 0.350000 0.100000 -0.200000
v 0.450000 -0.200000 -0.400000
v 0.450000 -0.200000 -0.500000
v 0.450000 -0.200000 -0.600000
v 0.450000 -0.200000 -0.700000
v 0.450000 -0.100000 -0.400000
v 0.450000 -0.100000 -0.500000
v 0.450000 0.200000 -0.600000
v 0.450000 0.200000 -0.700000
v 0.550000 -0.200000 0.500000
v 0.550000 -0.200000 0.400000
v 0.550000 0.000000 0.500000
v 0.550000 0.000000 0.400000
v -0.550000 -0.200000 0.000000
v -0.550000 -0.200000 -0.100000
v -0.550000 0.200000 -0.000000
v -0.550000 0.200000 -0.100000
v -0.450000 -0.200000 -0.400000
v -0.450000 -0.200000 -0.500000
v -0.450000 0.200000 -0.400000
v -0.450000 0.200000 -0.500000
v -0.350000 -0.200000 0.600000
v -0.350000 -0.200000 0.500000
v -0.350000 -0.200000 0.100000
v -0.350000 -0.200000 0.000000
v -0.350000 -0.200000 -0.500000
v -0.350000 -0.200000 -0.600000
v -0.350000 -0.100000 0.600000
v -0.350000 -0.100000 0.500000
v -0.350000 -0.000000 -0.500000
v -0.350000 -0.000000 -0.600000
v -0.350000 0.100000 0.100000
v -0.350000 0.100000 -0.000000
v -0.150000 -0.200000 -0.100000
v -0.150000 -0.200000 -0.200000
v -0.150000 -0.100000 -0.100000
v -0.150000 -0.100000 -0.200000
v 0.050000 -0.200000 0.000000
v 0.050000 -0.200000 -0.100000
v 0.050000 -0.200000 -0.300000
v 0.050000 -0.200000 -0.400000
v 0.050000 -0.100000 -0.300000
v 0.050000 -0.100000 -0.400000
v 0.050000 0.000000 0.000000
v 0.050000 -0.000000 -0.100000
v 0.150000 -0.200000 0.700000
v 0.150000 -0.200000 0.600000
v 0.150000 -0.200000 0.500000
v 0.150000 -0.200000 0.400000
v 0.150000 0.000000 0.700000
v 0.150000 0.000000 0.600000
v 0.150000 0.200000 0.500000
v 0.150000 0.200000 0.400000
v 0.250000 -0.200000 -0.400000
v 0.250000 -0.200000 -0.500000
v 0.250000 0.100000 -0.400000
v 0.250000 0.100000 -0.500000
v 0.350000 -0.200000 0.400000
v 0.350000 -0.200000 0.300000
v 0.350000 -0.100000 0.400000
v 0.350000 -0.100000 0.300000
v 0.450000 -0.200000 -0.100000
v 0.450000 -0.200000 -0.200000
v 0.450000 0.100000 -0.100000
v 0.450000 0.100000 -0.200000
v 0.550000 -0.200000 -0.400000
v 0.550000 -0.200000 -0.500000
v 0.550000 -0.200000 -0.600000
v 0.550000 -0.200000 -0.700000
v 0.550000 -0.100000 -0.400000
v 0.550000 -0.100000 -0.500000
v 0.550000 0.200000 -0.600000
v 0.550000 0.200000 -0.700000
v 0.650000 -0.200000 0.500000
v 0.650000 -0.200000 0.400000
v 0.650000 0.000000 0.500000
v 0.650000 0.000000 0.400000
v 0.050000 -0.200000 0.700000
v 0.050000 0.000000 0.700000
v 0.150000 -0.200000 0.700000
v 0.150000 0.000000 0.700000
v -0.450000 -0.200000 0.600000
v -0.450000 -0.100000 0.600000
v -0.350000 -0.200000 0.600000
v -0.350000 -0.100000 0.600000
v 0.050000 -0.200000 0.500000
v 0.050000 0.200000 0.500000
v 0.150000 -0.200000 0.500000
v 0.150000 0.200000 0.500000
v 0.550000 -0.200000 0.500000
v 0.550000 0.000000 0.500000
v 0.650000 -0.200000 0.500000
v 0.650000 0.000000 0.500000
v 0.250000 -0.200000 0.400000
v 0.250000 -0.100000 0.400000
v 0.350000 -0.200000 0.400000
v 0.350000 -0.100000 0.400000
v -0.450000 -0.200000 0.100000
v -0.450000 0.100000 0.100000
v -0.350000 -0.200000 0.100000
v -0.350000 0.100000 0.100000
v -0.650000 -0.200000 0.000000
v -0.650000 0.200000 -0.000000
v -0.550000 -0.200000 0.000000
v -0.550000 0.200000 -0.000000
v -0.050000 -0.200000 0.000000
v -0.050000 0.000000 0.000000
v 0.050000 -0.200000 0.000000
v 0.050000 0.000000 0.000000
v -0.250000 -0.200000 -0.100000
v -0.250000 -0.100000 -0.100000
v -0.150000 -0.200000 -0.100000
v -0.150000 -0.100000 -0.100000
v 0.350000 -0.200000 -0.100000
v 0.350000 0.100000 -0.100000
v 0.450000 -0.200000 -0.100000
v 0.450000 0.100000 -0.100000
v -0.050000 -0.200000 -0.300000
v -0.050000 -0.100000 -0.300000
v 0.050000 -0.200000 -0.300000
v 0.050000 -0.100000 -0.300000
v -0.550000 -0.200000 -0.400000
v -0.550000 0.200000 -0.400000
v -0.450000 -0.200000 -0.400000
v -0.450000 0.200000 -0.400000
v 0.150000 -0.200000 -0.400000
v 0.150000 0.100000 -0.400000
v 0.250000 -0.200000 -0.400000
v 0.250000 0.100000 -0.400000
v 0.450000 -0.200000 -0.400000
v 0.450000 -0.100000 -0.400000
v 0.550000 -0.200000 -0.400000
v 0.550000 -0.100000 -0.400000
v -0.450000 -0.200000 -0.500000
v -0.450000 -0.000000 -0.500000
v -0.350000 -0.200000 -0.500000
v -0.350000 -0.000000 -0.500000
v 0.450000 -0.200000 -0.600000
v 0.450000 0.200000 -0.600000
v 0.550000 -0.200000 -0.600000
v 0.550000 0.200000 -0.600000
v 0.050000 -0.200000 0.600000
v 0.050000 0.000000 0.600000
v 0.150000 -0.200000 0.600000
v 0.150000 0.000000 0.600000
v -0.450000 -0.200000 0.500000
v -0.450000 -0.100000 0.500000
v -0.350000 -0.200000 0.500000
v -0.350000 -0.100000 0.500000
v 0.050000 -0.200000 0.400000
v 0.050000 0.200000 0.400000
v 0.150000 -0.200000 0.400000
v 0.150000 0.200000 0.400000
v 0.550000 -0.200000 0.400000
v 0.550000 0.000000 0.400000
v 0.650000 -0.200000 0.400000
v 0.650000 0.000000 0.400000
v 0.250000 -0.200000 0.300000
v 0.250000 -0.100000 0.300000
v 0.350000 -0.200000 0.300000
v 0.350000 -0.100000 0.300000
v -0.450000 -0.200000 0.000000
v -0.450000 0.100000 -0.000000
v -0.350000 -0.200000 0.000000
v -0.350000 0.100000 -0.000000
v -0.650000 -0.200000 -0.100000
v -0.650000 0.200000 -0.100000
v -0.550000 -0.200000 -0.100000
v -0.550000 0.200000 -0.100000
v -0.050000 -0.200000 -0.100000
v -0.050000 -0.000000 -0.100000
v 0.050000 -0.200000 -0.100000
v 0.050000 -0.000000 -0.100000
v -0.250000 -0.200000 -0.200000
v -0.250000 -0.100000 -0.200000
v -0.150000 -0.200000 -0.200000
v -0.150000 -0.100000 -0.200000
v 0.350000 -0.200000 -0.200000
v 0.350000 0.100000 -0.200000
v 0.450000 -0.200000 -0.200000
v 0.450000 0.100000 -0.200000
v -0.050000 -0.200000 -0.400000
v -0.050000 -0.100000 -0.400000
v 0.050000 -0.200000 -0.400000
v 0.050000 -0.100000 -0.400000
v -0.550000 -0.200000 -0.500000
v -0.550000 0.200000 -0.500000
v -0.450000 -0.200000 -0.500000
v -0.450000 0.200000 -0.500000
v 0.150000 -0.200000 -0.500000
v 0.150000 0.100000 -0.500000
v 0.250000 -0.200000 -0.500000
v 0.250000 0.100000 -0.500000
v 0.450000 -0.200000 -0.500000
v 0.450000 -0.100000 -0.500000
v 0.550000 -0.200000 -0.500000
v 0.550000 -0.100000 -0.500000
v -0.450000 -0.200000 -0.600000
v -0.450000 -0.000000 -0.600000
v -0.350000 -0.200000 -0.600000
v -0.350000 -0.000000 -0.600000
v 0.450000 -0.200000 -0.700000
v 0.450000 0.200000 -0.700000
v 0.550000 -0.200000 -0.700000
v 0.550000 0.200000 -0.700000
v 0.050000 -0.200000 0.700000
v 0.150000 -0.200000 0.700000
v -0.450000 -0.200000 0.600000
v -0.350000 -0.200000 0.600000
v 0.050000 -0.200000 0.600000
v 0.150000 -0.200000 0.600000
v -0.450000 -0.200000 0.500000
v -0.350000 -0.200000 0.500000
v 0.050000 -0.200000 0.500000
v 0.150000 -0.200000 0.500000
v 0.550000 -0.200000 0.500000
v 0.650000 -0.200000 0.500000
v 0.050000 -0.200000 0.400000
v 0.150000 -0.200000 0.400000
v 0.250000 -0.200000 0.400000
v 0.350000 -0.200000 0.400000
v 0.550000 -0.200000 0.400000
v 0.650000 -0.200000 0.400000
v 0.250000 -0.200000 0.300000
v 0.350000 -0.200000 0.300000
v -0.450000 -0.200000 0.100000
v -0.350000 -0.200000 0.100000
v -0.650000 -0.200000 0.000000
v -0.550000 -0.200000 0.000000
v -0.450000 -0.200000 0.000000
v -0.350000 -0.200000 0.000000
v -0.050000 -0.200000 0.000000
v 0.050000 -0.200000 0.000000
v -0.650000 -0.200000 -0.100000
v -0.550000 -0.200000 -0.100000
v -0.250000 -0.200000 -0.100000
v -0.150000 -0.200000 -0.100000
v -0.050000 -0.200000 -0.100000
v 0.050000 -0.200000 -0.100000
v 0.350000 -0.200000 -0.100000
v 0.450000 -0.200000 -0.100000
v -0.250000 -0.200000 -0.200000
v -0.150000 -0.200000 -0.200000
v 0.350000 -0.200000 -0.200000
v 0.450000 -0.200000 -0.200000
v -0.050000 -0.200000 -0.300000
v 0.050000 -0.200000 -0.300000
v -0.550000 -0.200000 -0.400000
v -0.450000 -0.200000 -0.400000
v -0.050000 -0.200000 -0.400000
v 0.050000 -0.200000 -0.400000
v 0.150000 -0.200000 -0.400000
v 0.250000 -0.200000 -0.400000
v 0.450000 -0.200000 -0.400000
v 0.550000 -0.200000 -0.400000
v -0.550000 -0.200000 -0.500000
v -0.450000 -0.200000 -0.500000
v -0.350000 -0.200000 -0.500000
v 0.150000 -0.200000 -0.500000
v 0.250000 -0.200000 -0.500000
v 0.450000 -0.200000 -0.500000
v 0.550000 -0.200000 -0.500000
v -0.450000 -0.200000 -0.600000
v -0.350000 -0.200000 -0.600000
v 0.450000 -0.200000 -0.600000
v 0.550000 -0.200000 -0.600000
v 0.450000 -0.200000 -0.700000
v 0.550000 -0.200000 -0.700000
v -0.450000 -0.100000 0.600000
v -0.350000 -0.100000 0.600000
v -0.450000 -0.100000 0.500000
v -0.350000 -0.100000 0.500000
v 0.250000 -0.100000 0.400000
v 0.350000 -0.100000 0.400000
v 0.250000 -0.100000 0.300000
v 0.350000 -0.100000 0.300000
v -0.250000 -0.100000 -0.100000
v -0.150000 -0.100000 -0.100000
v -0.250000 -0.100000 -0.200000
v -0.150000 -0.100000 -0.200000
v -0.050000 -0.100000 -0.300000
v 0.050000 -0.100000 -0.300000
v -0.050000 -0.100000 -0.400000
v 0.050000 -0.100000 -0.400000
v 0.450000 -0.100000 -0.400000
v 0.550000 -0.100000 -0.400000
v 0.450000 -0.100000 -0.500000
v 0.550000 -0.100000 -0.500000
v 0.050000 0.000000 0.700000
v 0.150000 0.000000 0.700000
v 0.050000 0.000000 0.600000
v 0.150000 0.000000 0.600000
v 0.550000 0.000000 0.500000
v 0.650000 0.000000 0.500000
v 0.550000 0.000000 0.400000
v 0.650000 0.000000 0.400000
v -0.050000 0.000000 0.000000
v 0.050000 0.000000 0.000000
v -0.050000 -0.000000 -0.100000
v 0.050000 -0.000000 -0.100000
v -0.450000 -0.000000 -0.500000
v -0.350000 -0.000000 -0.500000
v -0.450000 -0.000000 -0.600000
v -0.350000 -0.000000 -0.600000
v -0.450000 0.100000 0.100000
v -0.350000 0.100000 0.100000
v -0.450000 0.100000 -0.000000
v -0.350000 0.100000 -0.000000
v 0.350000 0.100000 -0.100000
v 0.450000 0.100000 -0.100000
v 0.350000 0.100000 -0.200000
v 0.450000 0.100000 -0.200000
v 0.150000 0.100000 -0.400000
v 0.250000 0.100000 -0.400000
v 0.150000 0.100000 -0.500000
v 0.250000 0.100000 -0.500000
v 0.050000 0.200000 0.500000
v 0.150000 0.200000 0.500000
v 0.050000 0.200000 0.400000
v 0.150000 0.200000 0.400000
v -0.650000 0.200000 -0.000000
v -0.550000 0.200000 -0.000000
v -0.650000 0.200000 -0.100000
v -0.550000 0.200000 -0.100000
v -0.550000 0.200000 -0.400000
v -0.450000 0.200000 -0.400000
v -0.550000 0.200000 -0.500000
v -0.450000 0.200000 -0.500000
v 0.450000 0.200000 -0.600000
v 0.550000 0.200000 -0.600000
v 0.450000 0.200000 -0.700000
v 0.550000 0.200000 -0.700000
vn -0.0000 -1.0000 -0.0000
vn -0.0000 1.0000 -0.0000
vn -1.0000 -0.0000 -0.0000
vn 1.0000 -0.0000 -0.0000
vn -0.0000 -0.0000 1.0000
vn -0.0000 -0.0000 -1.0000
vt 0.970703 0.500000
s 0
usemtl palette_1.018
f 276/1/1 272/1/1 271/1/1 275/1/1
f 357/1/2 359/1/2 358/1/2 356/1/2
f 311/1/1 304/1/1 303/1/1 310/1/1
f 361/1/2 363/1/2 362/1/2 360/1/2
f 369/1/2 371/1/2 370/1/2 368/1/2
f 20/1/3 12/1/3 11/1/3 19/1/3
f 302/1/1 298/1/1 297/1/1 301/1/1
f 313/1/1 306/1/1 305/1/1 312/1/1
f 286/1/1 280/1/1 279/1/1 285/1/1
f 90/1/4 96/1/4 95/1/4 89/1/4
f 126/1/4 128/1/4 127/1/4 125/1/4
f 44/1/3 42/1/3 41/1/3 43/1/3
f 38/1/3 34/1/3 33/1/3 37/1/3
f 40/1/3 36/1/3 35/1/3 39/1/3
f 92/1/4 94/1/4 93/1/4 91/1/4
f 296/1/1 292/1/1 291/1/1 295/1/1
f 341/1/2 343/1/2 342/1/2 340/1/2
f 66/1/4 68/1/4 67/1/4 65/1/4
f 308/1/1 300/1/1 299/1/1 307/1/1
f 132/1/5 130/1/5 129/1/5 131/1/5
f 136/1/5 134/1/5 133/1/5 135/1/5
f 78/1/4 82/1/4 81/1/4 77/1/4
f 160/1/5 158/1/5 157/1/5 159/1/5
f 74/1/4 80/1/4 79/1/4 73/1/4
f 52/1/3 50/1/3 49/1/3 51/1/3
f 218/1/6 220/1/6 219/1/6 217/1/6
f 48/1/3 46/1/3 45/1/3 47/1/3
f 106/1/4 108/1/4 107/1/4 105/1/4
f 238/1/6 240/1/6 239/1/6 237/1/6
f 114/1/4 116/1/4 115/1/4 113/1/4
f 329/1/2 331/1/2 330/1/2 328/1/2
f 118/1/4 122/1/4 121/1/4 117/1/4
f 110/1/4 112/1/4 111/1/4 109/1/4
f 98/1/4 102/1/4 101/1/4 97/1/4
f 64/1/3 62/1/3 61/1/3 63/1/3
f 156/1/5 154/1/5 153/1/5 155/1/5
f 192/1/5 190/1/5 189/1/5 191/1/5
f 152/1/5 150/1/5 149/1/5 151/1/5
f 148/1/5 146/1/5 145/1/5 147/1/5
f 144/1/5 142/1/5 141/1/5 143/1/5
f 188/1/5 186/1/5 185/1/5 187/1/5
f 168/1/5 166/1/5 165/1/5 167/1/5
f 184/1/5 182/1/5 181/1/5 183/1/5
f 234/1/6 236/1/6 235/1/6 233/1/6
f 180/1/5 178/1/5 177/1/5 179/1/5
f 176/1/5 174/1/5 173/1/5 175/1/5
f 377/1/2 379/1/2 378/1/2 376/1/2
f 164/1/5 162/1/5 161/1/5 163/1/5
f 100/1/4 104/1/4 103/1/4 99/1/4
f 198/1/6 200/1/6 199/1/6 197/1/6
f 214/1/6 216/1/6 215/1/6 213/1/6
f 230/1/6 232/1/6 231/1/6 229/1/6
f 210/1/6 212/1/6 211/1/6 209/1/6
f 206/1/6 208/1/6 207/1/6 205/1/6
f 202/1/6 204/1/6 203/1/6 201/1/6
f 246/1/6 248/1/6 247/1/6 245/1/6
f 226/1/6 228/1/6 227/1/6 225/1/6
f 222/1/6 224/1/6 223/1/6 221/1/6
f 194/1/6 196/1/6 195/1/6 193/1/6
f 140/1/5 138/1/5 137/1/5 139/1/5
f 254/1/6 256/1/6 255/1/6 253/1/6
f 365/1/2 367/1/2 366/1/2 364/1/2
f 18/1/3 14/1/3 13/1/3 17/1/3
f 294/1/1 288/1/1 287/1/1 293/1/1
f 4/1/3 2/1/3 1/1/3 3/1/3
f 337/1/2 339/1/2 338/1/2 336/1/2
f 242/1/6 244/1/6 243/1/6 241/1/6
f 381/1/2 383/1/2 382/1/2 380/1/2
f 76/1/4 84/1/4 83/1/4 75/1/4
f 30/1/3 28/1/3 27/1/3 29/1/3
f 8/1/3 6/1/3 5/1/3 7/1/3
f 24/1/3 22/1/3 21/1/3 23/1/3
f 58/1/3 54/1/3 53/1/3 57/1/3
f 270/1/1 266/1/1 265/1/1 269/1/1
f 86/1/4 88/1/4 87/1/4 85/1/4
f 264/1/1 260/1/1 259/1/1 263/1/1
f 32/1/3 26/1/3 25/1/3 31/1/3
f 16/1/3 10/1/3 9/1/3 15/1/3
f 262/1/1 258/1/1 257/1/1 261/1/1
f 120/1/4 124/1/4 123/1/4 119/1/4
f 353/1/2 355/1/2 354/1/2 352/1/2
f 325/1/2 327/1/2 326/1/2 324/1/2
f 321/1/2 323/1/2 322/1/2 320/1/2
f 282/1/1 278/1/1 277/1/1 281/1/1
f 349/1/2 351/1/2 350/1/2 348/1/2
f 70/1/4 72/1/4 71/1/4 69/1/4
f 274/1/1 268/1/1 267/1/1 273/1/1
f 345/1/2 347/1/2 346/1/2 344/1/2
f 290/1/1 284/1/1 283/1/1 289/1/1
f 333/1/2 335/1/2 334/1/2 332/1/2
f 319/1/1 317/1/1 316/1/1 318/1/1
f 60/1/3 56/1/3 55/1/3 59/1/3
f 315/1/1 309/1/1 308/1/1 314/1/1
f 172/1/5 170/1/5 169/1/5 171/1/5
f 373/1/2 375/1/2 374/1/2 372/1/2
f 250/1/6 252/1/6 251/1/6 249/1/6
