# Blender 4.1.1
# www.blender.org
mtllib grass_1_1.mtl
o ????????????
v -0.650000 -0.250000 0.600000
v -0.650000 -0.250000 0.500000
v -0.650000 -0.250000 -0.600000
v -0.650000 -0.250000 -0.700000
v -0.650000 -0.150000 0.600000
v -0.650000 -0.150000 0.500000
v -0.650000 -0.050000 -0.600000
v -0.650000 -0.050000 -0.700000
v -0.550000 -0.050000 0.000000
v -0.550000 -0.050000 -0.100000
v -0.550000 0.050000 -0.000000
v -0.550000 0.050000 -0.100000
v -0.450000 -0.250000 0.400000
v -0.450000 -0.250000 0.300000
v -0.450000 -0.250000 0.000000
v -0.450000 -0.250000 -0.100000
v -0.450000 -0.250000 -0.400000
v -0.450000 -0.250000 -0.500000
v -0.450000 -0.050000 0.400000
v -0.450000 -0.050000 0.300000
v -0.450000 -0.050000 0.000000
v -0.450000 -0.050000 -0.100000
v -0.450000 0.050000 -0.000000
v -0.450000 0.050000 -0.100000
v -0.450000 0.050000 -0.400000
v -0.450000 0.050000 -0.500000
v -0.450000 0.250000 -0.000000
v -0.450000 0.250000 -0.100000
v -0.150000 -0.250000 0.500000
v -0.150000 -0.250000 0.400000
v -0.150000 -0.150000 0.500000
v -0.150000 -0.150000 0.400000
v -0.050000 -0.250000 0.100000
v -0.050000 -0.250000 0.000000
v -0.050000 0.150000 0.100000
v -0.050000 0.150000 -0.000000
v 0.050000 -0.250000 0.700000
v 0.050000 -0.250000 0.600000
v 0.050000 -0.250000 -0.400000
v 0.050000 -0.250000 -0.500000
v 0.050000 -0.050000 -0.400000
v 0.050000 -0.050000 -0.500000
v 0.050000 0.050000 0.700000
v 0.050000 0.050000 0.600000
v 0.150000 -0.250000 0.600000
v 0.150000 -0.250000 0.500000
v 0.150000 -0.250000 0.300000
v 0.150000 -0.250000 0.200000
v 0.150000 -0.150000 0.600000
v 0.150000 -0.150000 0.500000
v 0.150000 0.050000 0.300000
v 0.150000 0.050000 0.200000
v 0.250000 -0.250000 -0.400000
v 0.250000 -0.250000 -0.500000
v 0.250000 0.250000 -0.400000
v 0.250000 0.250000 -0.500000
v 0.350000 -0.250000 -0.200000
v 0.350000 -0.250000 -0.300000
v 0.350000 -0.250000 -0.600000
v 0.350000 -0.250000 -0.700000
v 0.350000 -0.050000 -0.600000
v 0.350000 -0.050000 -0.700000
v 0.350000 0.050000 -0.200000
v 0.350000 0.050000 -0.300000
v 0.450000 -0.250000 0.000000
v 0.450000 -0.250000 -0.100000
v 0.450000 -0.150000 0.000000
v 0.450000 -0.150000 -0.100000
v 0.550000 -0.250000 0.500000
v 0.550000 -0.250000 0.400000
v 0.550000 0.150000 0.500000
v 0.550000 0.150000 0.400000
v -0.550000 -0.250000 0.600000
v -0.550000 -0.250000 0.500000
v -0.550000 -0.250000 -0.600000
v -0.550000 -0.250000 -0.700000
v -0.550000 -0.150000 0.600000
v -0.550000 -0.150000 0.500000
v -0.550000 -0.050000 -0.600000
v -0.550000 -0.050000 -0.700000
v -0.350000 -0.250000 0.400000
v -0.350000 -0.250000 0.300000
v -0.350000 -0.250000 0.000000
v -0.350000 -0.250000 -0.100000
v -0.350000 -0.250000 -0.400000
v -0.350000 -0.250000 -0.500000
v -0.350000 -0.050000 0.400000
v -0.350000 -0.050000 0.300000
v -0.350000 0.050000 -0.400000
v -0.350000 0.050000 -0.500000
v -0.350000 0.250000 -0.000000
v -0.350000 0.250000 -0.100000
v -0.050000 -0.250000 0.500000
v -0.050000 -0.250000 0.400000
v -0.050000 -0.150000 0.500000
v -0.050000 -0.150000 0.400000
v 0.050000 -0.250000 0.100000
v 0.050000 -0.250000 0.000000
v 0.050000 0.150000 0.100000
v 0.050000 0.150000 -0.000000
v 0.150000 -0.250000 0.700000
v 0.150000 -0.250000 0.600000
v 0.150000 -0.250000 -0.400000
v 0.150000 -0.250000 -0.500000
v 0.150000 -0.050000 -0.400000
v 0.150000 -0.050000 -0.500000
v 0.150000 0.050000 0.700000
v 0.150000 0.050000 0.600000
v 0.250000 -0.250000 0.600000
v 0.250000 -0.250000 0.500000
v 0.250000 -0.250000 0.300000
v 0.250000 -0.250000 0.200000
v 0.250000 -0.150000 0.600000
v 0.250000 -0.150000 0.500000
v 0.250000 0.050000 0.300000
v 0.250000 0.050000 0.200000
v 0.350000 -0.250000 -0.400000
v 0.350000 -0.250000 -0.500000
v 0.350000 0.250000 -0.400000
v 0.350000 0.250000 -0.500000
v 0.450000 -0.250000 -0.200000
v 0.450000 -0.250000 -0.300000
v 0.450000 -0.250000 -0.600000
v 0.450000 -0.250000 -0.700000
v 0.450000 -0.050000 -0.600000
v 0.450000 -0.050000 -0.700000
v 0.450000 0.050000 -0.200000
v 0.450000 0.050000 -0.300000
v 0.550000 -0.250000 0.000000
v 0.550000 -0.250000 -0.100000
v 0.550000 -0.150000 0.000000
v 0.550000 -0.150000 -0.100000
v 0.650000 -0.250000 0.500000
v 0.650000 -0.250000 0.400000
v 0.650000 0.150000 0.500000
v 0.650000 0.150000 0.400000
v 0.050000 -0.250000 0.700000
v 0.050000 0.050000 0.700000
v 0.150000 -0.250000 0.700000
v 0.150000 0.050000 0.700000
v -0.650000 -0.250000 0.600000
v -0.650000 -0.150000 0.600000
v -0.550000 -0.250000 0.600000
v -0.550000 -0.150000 0.600000
v 0.150000 -0.250000 0.600000
v 0.150000 -0.150000 0.600000
v 0.250000 -0.250000 0.600000
v 0.250000 -0.150000 0.600000
v -0.150000 -0.250000 0.500000
v -0.150000 -0.150000 0.500000
v -0.050000 -0.250000 0.500000
v -0.050000 -0.150000 0.500000
v 0.550000 -0.250000 0.500000
v 0.550000 0.150000 0.500000
v 0.650000 -0.250000 0.500000
v 0.650000 0.150000 0.500000
v -0.450000 -0.250000 0.400000
v -0.450000 -0.050000 0.400000
v -0.350000 -0.250000 0.400000
v -0.350000 -0.050000 0.400000
v 0.150000 -0.250000 0.300000
v 0.150000 0.050000 0.300000
v 0.250000 -0.250000 0.300000
v 0.250000 0.050000 0.300000
v -0.050000 -0.250000 0.100000
v -0.050000 0.150000 0.100000
v 0.050000 -0.250000 0.100000
v 0.050000 0.150000 0.100000
v -0.550000 -0.050000 0.000000
v -0.550000 0.050000 -0.000000
v -0.450000 -0.250000 0.000000
v -0.450000 -0.050000 0.000000
v -0.450000 0.050000 -0.000000
v -0.450000 0.250000 -0.000000
v -0.350000 -0.250000 0.000000
v -0.350000 0.250000 -0.000000
v 0.450000 -0.250000 0.000000
v 0.450000 -0.150000 0.000000
v 0.550000 -0.250000 0.000000
v 0.550000 -0.150000 0.000000
v 0.350000 -0.250000 -0.200000
v 0.350000 0.050000 -0.200000
v 0.450000 -0.250000 -0.200000
v 0.450000 0.050000 -0.200000
v -0.450000 -0.250000 -0.400000
v -0.450000 0.050000 -0.400000
v -0.350000 -0.250000 -0.400000
v -0.350000 0.050000 -0.400000
v 0.050000 -0.250000 -0.400000
v 0.050000 -0.050000 -0.400000
v 0.150000 -0.250000 -0.400000
v 0.150000 -0.050000 -0.400000
v 0.250000 -0.250000 -0.400000
v 0.250000 0.250000 -0.400000
v 0.350000 -0.250000 -0.400000
v 0.350000 0.250000 -0.400000
v -0.650000 -0.250000 -0.600000
v -0.650000 -0.050000 -0.600000
v -0.550000 -0.250000 -0.600000
v -0.550000 -0.050000 -0.600000
v 0.350000 -0.250000 -0.600000
v 0.350000 -0.050000 -0.600000
v 0.450000 -0.250000 -0.600000
v 0.450000 -0.050000 -0.600000
v 0.050000 -0.250000 0.600000
v 0.050000 0.050000 0.600000
v 0.150000 -0.250000 0.600000
v 0.150000 0.050000 0.600000
v -0.650000 -0.250000 0.500000
v -0.650000 -0.150000 0.500000
v -0.550000 -0.250000 0.500000
v -0.550000 -0.150000 0.500000
v 0.150000 -0.250000 0.500000
v 0.150000 -0.150000 0.500000
v 0.250000 -0.250000 0.500000
v 0.250000 -0.150000 0.500000
v -0.150000 -0.250000 0.400000
v -0.150000 -0.150000 0.400000
v -0.050000 -0.250000 0.400000
v -0.050000 -0.150000 0.400000
v 0.550000 -0.250000 0.400000
v 0.550000 0.150000 0.400000
v 0.650000 -0.250000 0.400000
v 0.650000 0.150000 0.400000
v -0.450000 -0.250000 0.300000
v -0.450000 -0.050000 0.300000
v -0.350000 -0.250000 0.300000
v -0.350000 -0.050000 0.300000
v 0.150000 -0.250000 0.200000
v 0.150000 0.050000 0.200000
v 0.250000 -0.250000 0.200000
v 0.250000 0.050000 0.200000
v -0.050000 -0.250000 0.000000
v -0.050000 0.150000 -0.000000
v 0.050000 -0.250000 0.000000
v 0.050000 0.150000 -0.000000
v -0.550000 -0.050000 -0.100000
v -0.550000 0.050000 -0.100000
v -0.450000 -0.250000 -0.100000
v -0.450000 -0.050000 -0.100000
v -0.450000 0.050000 -0.100000
v -0.450000 0.250000 -0.100000
v -0.350000 -0.250000 -0.100000
v -0.350000 0.250000 -0.100000
v 0.450000 -0.250000 -0.100000
v 0.450000 -0.150000 -0.100000
v 0.550000 -0.250000 -0.100000
v 0.550000 -0.150000 -0.100000
v 0.350000 -0.250000 -0.300000
v 0.350000 0.050000 -0.300000
v 0.450000 -0.250000 -0.300000
v 0.450000 0.050000 -0.300000
v -0.450000 -0.250000 -0.500000
v -0.450000 0.050000 -0.500000
v -0.350000 -0.250000 -0.500000
v -0.350000 0.050000 -0.500000
v 0.050000 -0.250000 -0.500000
v 0.050000 -0.050000 -0.500000
v 0.150000 -0.250000 -0.500000
v 0.150000 -0.050000 -0.500000
v 0.250000 -0.250000 -0.500000
v 0.250000 0.250000 -0.500000
v 0.350000 -0.250000 -0.500000
v 0.350000 0.250000 -0.500000
v -0.650000 -0.250000 -0.700000
v -0.650000 -0.050000 -0.700000
v -0.550000 -0.250000 -0.700000
v -0.550000 -0.050000 -0.700000
v 0.350000 -0.250000 -0.700000
v 0.350000 -0.050000 -0.700000
v 0.450000 -0.250000 -0.700000
v 0.450000 -0.050000 -0.700000
v 0.050000 -0.250000 0.700000
v 0.150000 -0.250000 0.700000
v -0.650000 -0.250000 0.600000
v -0.550000 -0.250000 0.600000
v 0.050000 -0.250000 0.600000
v 0.150000 -0.250000 0.600000
v 0.250000 -0.250000 0.600000
v -0.650000 -0.250000 0.500000
v -0.550000 -0.250000 0.500000
v -0.150000 -0.250000 0.500000
v -0.050000 -0.250000 0.500000
v 0.150000 -0.250000 0.500000
v 0.250000 -0.250000 0.500000
v 0.550000 -0.250000 0.500000
v 0.650000 -0.250000 0.500000
v -0.450000 -0.250000 0.400000
v -0.350000 -0.250000 0.400000
v -0.150000 -0.250000 0.400000
v -0.050000 -0.250000 0.400000
v 0.550000 -0.250000 0.400000
v 0.650000 -0.250000 0.400000
v -0.450000 -0.250000 0.300000
v -0.350000 -0.250000 0.300000
v 0.150000 -0.250000 0.300000
v 0.250000 -0.250000 0.300000
v 0.150000 -0.250000 0.200000
v 0.250000 -0.250000 0.200000
v -0.050000 -0.250000 0.100000
v 0.050000 -0.250000 0.100000
v -0.450000 -0.250000 0.000000
v -0.350000 -0.250000 0.000000
v -0.050000 -0.250000 0.000000
v 0.050000 -0.250000 0.000000
v 0.450000 -0.250000 0.000000
v 0.550000 -0.250000 0.000000
v -0.450000 -0.250000 -0.100000
v -0.350000 -0.250000 -0.100000
v 0.450000 -0.250000 -0.100000
v 0.550000 -0.250000 -0.100000
v 0.350000 -0.250000 -0.200000
v 0.450000 -0.250000 -0.200000
v 0.350000 -0.250000 -0.300000
v 0.450000 -0.250000 -0.300000
v -0.450000 -0.250000 -0.400000
v -0.350000 -0.250000 -0.400000
v 0.050000 -0.250000 -0.400000
v 0.150000 -0.250000 -0.400000
v 0.250000 -0.250000 -0.400000
v 0.350000 -0.250000 -0.400000
v -0.450000 -0.250000 -0.500000
v -0.350000 -0.250000 -0.500000
v 0.050000 -0.250000 -0.500000
v 0.150000 -0.250000 -0.500000
v 0.250000 -0.250000 -0.500000
v 0.350000 -0.250000 -0.500000
v -0.650000 -0.250000 -0.600000
v -0.550000 -0.250000 -0.600000
v 0.350000 -0.250000 -0.600000
v 0.450000 -0.250000 -0.600000
v -0.650000 -0.250000 -0.700000
v -0.550000 -0.250000 -0.700000
v 0.350000 -0.250000 -0.700000
v 0.450000 -0.250000 -0.700000
v -0.550000 -0.050000 0.000000
v -0.450000 -0.050000 0.000000
v -0.550000 -0.050000 -0.100000
v -0.450000 -0.050000 -0.100000
v -0.650000 -0.150000 0.600000
v -0.550000 -0.150000 0.600000
v 0.150000 -0.150000 0.600000
v 0.250000 -0.150000 0.600000
v -0.650000 -0.150000 0.500000
v -0.550000 -0.150000 0.500000
v -0.150000 -0.150000 0.500000
v -0.050000 -0.150000 0.500000
v 0.150000 -0.150000 0.500000
v 0.250000 -0.150000 0.500000
v -0.150000 -0.150000 0.400000
v -0.050000 -0.150000 0.400000
v 0.450000 -0.150000 0.000000
v 0.550000 -0.150000 0.000000
v 0.450000 -0.150000 -0.100000
v 0.550000 -0.150000 -0.100000
v -0.450000 -0.050000 0.400000
v -0.350000 -0.050000 0.400000
v -0.450000 -0.050000 0.300000
v -0.350000 -0.050000 0.300000
v 0.050000 -0.050000 -0.400000
v 0.150000 -0.050000 -0.400000
v 0.050000 -0.050000 -0.500000
v 0.150000 -0.050000 -0.500000
v -0.650000 -0.050000 -0.600000
v -0.550000 -0.050000 -0.600000
v 0.350000 -0.050000 -0.600000
v 0.450000 -0.050000 -0.600000
v -0.650000 -0.050000 -0.700000
v -0.550000 -0.050000 -0.700000
v 0.350000 -0.050000 -0.700000
v 0.450000 -0.050000 -0.700000
v 0.050000 0.050000 0.700000
v 0.150000 0.050000 0.700000
v 0.050000 0.050000 0.600000
v 0.150000 0.050000 0.600000
v 0.150000 0.050000 0.300000
v 0.250000 0.050000 0.300000
v 0.150000 0.050000 0.200000
v 0.250000 0.050000 0.200000
v -0.550000 0.050000 -0.000000
v -0.450000 0.050000 -0.000000
v -0.550000 0.050000 -0.100000
v -0.450000 0.050000 -0.100000
v 0.350000 0.050000 -0.200000
v 0.450000 0.050000 -0.200000
v 0.350000 0.050000 -0.300000
v 0.450000 0.050000 -0.300000
v -0.450000 0.050000 -0.400000
v -0.350000 0.050000 -0.400000
v -0.450000 0.050000 -0.500000
v -0.350000 0.050000 -0.500000
v 0.550000 0.150000 0.500000
v 0.650000 0.150000 0.500000
v 0.550000 0.150000 0.400000
v 0.650000 0.150000 0.400000
v -0.050000 0.150000 0.100000
v 0.050000 0.150000 0.100000
v -0.050000 0.150000 -0.000000
v 0.050000 0.150000 -0.000000
v -0.450000 0.250000 -0.000000
v -0.350000 0.250000 -0.000000
v -0.450000 0.250000 -0.100000
v -0.350000 0.250000 -0.100000
v 0.250000 0.250000 -0.400000
v 0.350000 0.250000 -0.400000
v 0.250000 0.250000 -0.500000
v 0.350000 0.250000 -0.500000
vn -0.0000 -0.0000 -1.0000
vn -0.0000 -0.0000 1.0000
vn -0.0000 -1.0000 -0.0000
vn -1.0000 -0.0000 -0.0000
vn 1.0000 -0.0000 -0.0000
vn -0.0000 1.0000 -0.0000
vt 0.970703 0.500000
s 0
usemtl palette_1.017
f 226/1/1 228/1/1 227/1/1 225/1/1
f 144/1/2 142/1/2 141/1/2 143/1/2
f 281/1/3 276/1/3 275/1/3 280/1/3
f 210/1/1 212/1/1 211/1/1 209/1/1
f 250/1/1 252/1/1 251/1/1 249/1/1
f 311/1/3 307/1/3 306/1/3 310/1/3
f 309/1/3 303/1/3 302/1/3 308/1/3
f 12/1/4 10/1/4 9/1/4 11/1/4
f 28/1/4 24/1/4 23/1/4 27/1/4
f 68/1/4 66/1/4 65/1/4 67/1/4
f 291/1/3 283/1/3 282/1/3 290/1/3
f 206/1/1 208/1/1 207/1/1 205/1/1
f 32/1/4 30/1/4 29/1/4 31/1/4
f 122/1/5 128/1/5 127/1/5 121/1/5
f 86/1/5 90/1/5 89/1/5 85/1/5
f 20/1/4 14/1/4 13/1/4 19/1/4
f 180/1/2 178/1/2 177/1/2 179/1/2
f 325/1/3 319/1/3 318/1/3 324/1/3
f 156/1/2 154/1/2 153/1/2 155/1/2
f 389/1/6 391/1/6 390/1/6 388/1/6
f 72/1/4 70/1/4 69/1/4 71/1/4
f 234/1/1 236/1/1 235/1/1 233/1/1
f 36/1/4 34/1/4 33/1/4 35/1/4
f 107/1/5 101/1/5 102/1/5 108/1/5
f 373/1/6 375/1/6 374/1/6 372/1/6
f 295/1/3 289/1/3 288/1/3 294/1/3
f 64/1/4 58/1/4 57/1/4 63/1/4
f 8/1/4 4/1/4 3/1/4 7/1/4
f 347/1/6 351/1/6 350/1/6 346/1/6
f 140/1/2 138/1/2 137/1/2 139/1/2
f 335/1/3 331/1/3 330/1/3 334/1/3
f 397/1/6 399/1/6 398/1/6 396/1/6
f 52/1/4 48/1/4 47/1/4 51/1/4
f 134/1/5 136/1/5 135/1/5 133/1/5
f 130/1/5 132/1/5 131/1/5 129/1/5
f 118/1/5 120/1/5 119/1/5 117/1/5
f 82/1/5 88/1/5 87/1/5 81/1/5
f 110/1/5 114/1/5 113/1/5 109/1/5
f 74/1/5 78/1/5 77/1/5 73/1/5
f 254/1/1 256/1/1 255/1/1 253/1/1
f 164/1/2 162/1/2 161/1/2 163/1/2
f 188/1/2 186/1/2 185/1/2 187/1/2
f 62/1/4 60/1/4 59/1/4 61/1/4
f 124/1/5 126/1/5 125/1/5 123/1/5
f 218/1/1 220/1/1 219/1/1 217/1/1
f 405/1/6 407/1/6 406/1/6 404/1/6
f 353/1/6 355/1/6 354/1/6 352/1/6
f 56/1/4 54/1/4 53/1/4 55/1/4
f 84/1/5 92/1/5 91/1/5 83/1/5
f 293/1/3 287/1/3 286/1/3 292/1/3
f 184/1/2 182/1/2 181/1/2 183/1/2
f 361/1/6 363/1/6 362/1/6 360/1/6
f 377/1/6 379/1/6 378/1/6 376/1/6
f 315/1/3 313/1/3 312/1/3 314/1/3
f 214/1/1 216/1/1 215/1/1 213/1/1
f 266/1/1 268/1/1 267/1/1 265/1/1
f 222/1/1 224/1/1 223/1/1 221/1/1
f 6/1/4 2/1/4 1/1/4 5/1/4
f 230/1/1 232/1/1 231/1/1 229/1/1
f 168/1/2 166/1/2 165/1/2 167/1/2
f 343/1/6 349/1/6 348/1/6 342/1/6
f 333/1/3 329/1/3 328/1/3 332/1/3
f 299/1/3 297/1/3 296/1/3 298/1/3
f 152/1/2 150/1/2 149/1/2 151/1/2
f 196/1/2 194/1/2 193/1/2 195/1/2
f 262/1/1 264/1/1 263/1/1 261/1/1
f 50/1/4 46/1/4 45/1/4 49/1/4
f 285/1/3 279/1/3 278/1/3 284/1/3
f 26/1/4 18/1/4 17/1/4 25/1/4
f 160/1/2 158/1/2 157/1/2 159/1/2
f 258/1/1 260/1/1 259/1/1 257/1/1
f 270/1/1 272/1/1 271/1/1 269/1/1
f 76/1/5 80/1/5 79/1/5 75/1/5
f 381/1/6 383/1/6 382/1/6 380/1/6
f 278/1/3 274/1/3 273/1/3 277/1/3
f 341/1/6 345/1/6 344/1/6 340/1/6
f 204/1/2 202/1/2 201/1/2 203/1/2
f 305/1/3 301/1/3 300/1/3 304/1/3
f 148/1/2 146/1/2 145/1/2 147/1/2
f 241/1/1 242/1/1 244/1/1 243/1/1 239/1/1 240/1/1 237/1/1 238/1/1
f 94/1/5 96/1/5 95/1/5 93/1/5
f 327/1/3 321/1/3 320/1/3 326/1/3
f 323/1/3 317/1/3 316/1/3 322/1/3
f 44/1/4 38/1/4 37/1/4 43/1/4
f 98/1/5 100/1/5 99/1/5 97/1/5
f 192/1/2 190/1/2 189/1/2 191/1/2
f 42/1/4 40/1/4 39/1/4 41/1/4
f 200/1/2 198/1/2 197/1/2 199/1/2
f 401/1/6 403/1/6 402/1/6 400/1/6
f 104/1/5 106/1/5 105/1/5 103/1/5
f 393/1/6 395/1/6 394/1/6 392/1/6
f 339/1/3 337/1/3 336/1/3 338/1/3
f 365/1/6 369/1/6 368/1/6 364/1/6
f 112/1/5 116/1/5 115/1/5 111/1/5
f 357/1/6 359/1/6 358/1/6 356/1/6
f 385/1/6 387/1/6 386/1/6 384/1/6
f 22/1/4 16/1/4 15/1/4 21/1/4
f 367/1/6 371/1/6 370/1/6 366/1/6
f 172/1/2 171/1/2 175/1/2 176/1/2 174/1/2 173/1/2 170/1/2 169/1/2
f 246/1/1 248/1/1 247/1/1 245/1/1
