# Blender 4.1.1
# www.blender.org
mtllib mushrooms_2_1.mtl
o ????????????
v -0.750000 0.150000 0.100000
v -0.750000 0.150000 -0.200000
v -0.750000 0.250000 0.100000
v -0.750000 0.250000 -0.200000
v -0.650000 -0.250000 0.000000
v -0.650000 -0.250000 -0.100000
v -0.650000 0.150000 -0.000000
v -0.650000 0.150000 -0.100000
v -0.550000 -0.250000 -0.400000
v -0.550000 -0.250000 -0.500000
v -0.550000 0.150000 -0.400000
v -0.550000 0.150000 -0.500000
v -0.450000 -0.250000 0.600000
v -0.450000 -0.250000 0.500000
v -0.450000 -0.250000 0.100000
v -0.450000 -0.250000 0.000000
v -0.450000 -0.250000 -0.500000
v -0.450000 -0.250000 -0.600000
v -0.450000 -0.150000 0.600000
v -0.450000 -0.150000 0.500000
v -0.450000 -0.050000 -0.500000
v -0.450000 -0.050000 -0.600000
v -0.450000 0.050000 0.100000
v -0.450000 0.050000 -0.000000
v -0.350000 -0.050000 0.400000
v -0.350000 -0.050000 0.100000
v -0.350000 0.050000 0.400000
v -0.350000 0.050000 0.100000
v -0.250000 -0.250000 0.300000
v -0.250000 -0.250000 0.200000
v -0.250000 -0.250000 -0.100000
v -0.250000 -0.250000 -0.200000
v -0.250000 -0.150000 -0.100000
v -0.250000 -0.150000 -0.200000
v -0.250000 -0.050000 0.300000
v -0.250000 -0.050000 0.200000
v -0.050000 -0.250000 0.000000
v -0.050000 -0.250000 -0.100000
v -0.050000 -0.250000 -0.300000
v -0.050000 -0.250000 -0.400000
v -0.050000 -0.150000 -0.300000
v -0.050000 -0.150000 -0.400000
v -0.050000 -0.050000 0.000000
v -0.050000 -0.050000 -0.100000
v 0.050000 -0.250000 0.700000
v 0.050000 -0.250000 0.600000
v 0.050000 -0.250000 0.500000
v 0.050000 -0.250000 0.400000
v 0.050000 -0.050000 0.700000
v 0.050000 -0.050000 0.600000
v 0.050000 0.150000 0.500000
v 0.050000 0.150000 0.400000
v 0.150000 -0.250000 -0.400000
v 0.150000 -0.250000 -0.500000
v 0.150000 0.050000 -0.400000
v 0.150000 0.050000 -0.500000
v 0.250000 -0.250000 0.400000
v 0.250000 -0.250000 0.300000
v 0.250000 -0.250000 -0.300000
v 0.250000 -0.250000 -0.400000
v 0.250000 -0.150000 0.400000
v 0.250000 -0.150000 0.300000
v 0.250000 -0.150000 -0.300000
v 0.250000 -0.150000 -0.400000
v 0.250000 -0.050000 -0.300000
v 0.250000 -0.050000 -0.400000
v 0.350000 -0.250000 -0.100000
v 0.350000 -0.250000 -0.200000
v 0.350000 0.050000 -0.100000
v 0.350000 0.050000 -0.200000
v 0.450000 -0.250000 -0.300000
v 0.450000 -0.250000 -0.400000
v 0.450000 -0.250000 -0.500000
v 0.450000 -0.250000 -0.600000
v 0.450000 -0.250000 -0.700000
v 0.450000 -0.150000 -0.300000
v 0.450000 -0.150000 -0.400000
v 0.450000 -0.150000 -0.500000
v 0.450000 -0.050000 0.600000
v 0.450000 -0.050000 0.300000
v 0.450000 -0.050000 -0.300000
v 0.450000 -0.050000 -0.400000
v 0.450000 0.050000 0.600000
v 0.450000 0.050000 0.300000
v 0.450000 0.150000 -0.600000
v 0.450000 0.150000 -0.700000
v 0.550000 -0.250000 0.500000
v 0.550000 -0.250000 0.400000
v 0.550000 -0.250000 -0.100000
v 0.550000 -0.250000 -0.200000
v 0.550000 -0.050000 0.500000
v 0.550000 -0.050000 0.400000
v 0.550000 -0.050000 -0.100000
v 0.550000 -0.050000 -0.200000
v 0.550000 0.050000 -0.100000
v 0.550000 0.050000 -0.200000
v -0.550000 -0.250000 0.000000
v -0.550000 -0.250000 -0.100000
v -0.550000 0.150000 -0.000000
v -0.550000 0.150000 -0.100000
v -0.450000 -0.250000 -0.400000
v -0.450000 -0.250000 -0.500000
v -0.450000 0.150000 0.100000
v -0.450000 0.150000 -0.200000
v -0.450000 0.150000 -0.400000
v -0.450000 0.150000 -0.500000
v -0.450000 0.250000 0.100000
v -0.450000 0.250000 -0.200000
v -0.350000 -0.250000 0.600000
v -0.350000 -0.250000 0.500000
v -0.350000 -0.250000 0.100000
v -0.350000 -0.250000 0.000000
v -0.350000 -0.250000 -0.500000
v -0.350000 -0.250000 -0.600000
v -0.350000 -0.150000 0.600000
v -0.350000 -0.150000 0.500000
v -0.350000 -0.050000 -0.500000
v -0.350000 -0.050000 -0.600000
v -0.350000 0.050000 0.100000
v -0.350000 0.050000 -0.000000
v -0.150000 -0.250000 0.300000
v -0.150000 -0.250000 0.200000
v -0.150000 -0.250000 -0.100000
v -0.150000 -0.250000 -0.200000
v -0.150000 -0.150000 -0.100000
v -0.150000 -0.150000 -0.200000
v -0.150000 -0.050000 0.300000
v -0.150000 -0.050000 0.200000
v -0.050000 -0.050000 0.400000
v -0.050000 -0.050000 0.100000
v -0.050000 0.050000 0.400000
v -0.050000 0.050000 0.100000
v 0.050000 -0.250000 0.000000
v 0.050000 -0.250000 -0.100000
v 0.050000 -0.250000 -0.300000
v 0.050000 -0.250000 -0.400000
v 0.050000 -0.150000 -0.300000
v 0.050000 -0.150000 -0.400000
v 0.050000 -0.050000 0.000000
v 0.050000 -0.050000 -0.100000
v 0.150000 -0.250000 0.700000
v 0.150000 -0.250000 0.600000
v 0.150000 -0.250000 0.500000
v 0.150000 -0.250000 0.400000
v 0.150000 -0.050000 0.700000
v 0.150000 -0.050000 0.600000
v 0.150000 0.150000 0.500000
v 0.150000 0.150000 0.400000
v 0.250000 -0.250000 -0.400000
v 0.250000 -0.250000 -0.500000
v 0.250000 0.050000 -0.400000
v 0.250000 0.050000 -0.500000
v 0.350000 -0.250000 0.400000
v 0.350000 -0.250000 0.300000
v 0.350000 -0.250000 -0.300000
v 0.350000 -0.250000 -0.400000
v 0.350000 -0.150000 0.400000
v 0.350000 -0.150000 0.300000
v 0.350000 -0.150000 -0.300000
v 0.350000 -0.150000 -0.400000
v 0.350000 -0.050000 -0.300000
v 0.350000 -0.050000 -0.400000
v 0.450000 -0.250000 -0.100000
v 0.450000 -0.250000 -0.200000
v 0.450000 0.050000 -0.100000
v 0.450000 0.050000 -0.200000
v 0.550000 -0.250000 -0.300000
v 0.550000 -0.250000 -0.400000
v 0.550000 -0.250000 -0.500000
v 0.550000 -0.250000 -0.600000
v 0.550000 -0.250000 -0.700000
v 0.550000 -0.150000 -0.300000
v 0.550000 -0.150000 -0.400000
v 0.550000 -0.150000 -0.500000
v 0.550000 -0.050000 -0.300000
v 0.550000 -0.050000 -0.400000
v 0.550000 0.150000 -0.600000
v 0.550000 0.150000 -0.700000
v 0.650000 -0.250000 0.500000
v 0.650000 -0.250000 0.400000
v 0.650000 -0.250000 -0.100000
v 0.650000 -0.250000 -0.200000
v 0.650000 -0.050000 0.500000
v 0.650000 -0.050000 0.400000
v 0.650000 -0.050000 -0.100000
v 0.650000 -0.050000 -0.200000
v 0.650000 0.050000 -0.100000
v 0.650000 0.050000 -0.200000
v 0.750000 -0.050000 0.600000
v 0.750000 -0.050000 0.300000
v 0.750000 0.050000 0.600000
v 0.750000 0.050000 0.300000
v 0.050000 -0.250000 0.700000
v 0.050000 -0.050000 0.700000
v 0.150000 -0.250000 0.700000
v 0.150000 -0.050000 0.700000
v -0.450000 -0.250000 0.600000
v -0.450000 -0.150000 0.600000
v -0.350000 -0.250000 0.600000
v -0.350000 -0.150000 0.600000
v 0.450000 -0.050000 0.600000
v 0.450000 0.050000 0.600000
v 0.750000 -0.050000 0.600000
v 0.750000 0.050000 0.600000
v 0.050000 -0.250000 0.500000
v 0.050000 0.150000 0.500000
v 0.150000 -0.250000 0.500000
v 0.150000 0.150000 0.500000
v 0.550000 -0.250000 0.500000
v 0.550000 -0.050000 0.500000
v 0.650000 -0.250000 0.500000
v 0.650000 -0.050000 0.500000
v -0.350000 -0.050000 0.400000
v -0.350000 0.050000 0.400000
v -0.050000 -0.050000 0.400000
v -0.050000 0.050000 0.400000
v 0.250000 -0.250000 0.400000
v 0.250000 -0.150000 0.400000
v 0.350000 -0.250000 0.400000
v 0.350000 -0.150000 0.400000
v -0.250000 -0.250000 0.300000
v -0.250000 -0.050000 0.300000
v -0.150000 -0.250000 0.300000
v -0.150000 -0.050000 0.300000
v -0.750000 0.150000 0.100000
v -0.750000 0.250000 0.100000
v -0.450000 -0.250000 0.100000
v -0.450000 0.050000 0.100000
v -0.450000 0.150000 0.100000
v -0.450000 0.250000 0.100000
v -0.350000 -0.250000 0.100000
v -0.350000 0.050000 0.100000
v -0.650000 -0.250000 0.000000
v -0.650000 0.150000 -0.000000
v -0.550000 -0.250000 0.000000
v -0.550000 0.150000 -0.000000
v -0.050000 -0.250000 0.000000
v -0.050000 -0.050000 0.000000
v 0.050000 -0.250000 0.000000
v 0.050000 -0.050000 0.000000
v -0.250000 -0.250000 -0.100000
v -0.250000 -0.150000 -0.100000
v -0.150000 -0.250000 -0.100000
v -0.150000 -0.150000 -0.100000
v 0.350000 -0.250000 -0.100000
v 0.350000 0.050000 -0.100000
v 0.450000 -0.250000 -0.100000
v 0.450000 0.050000 -0.100000
v 0.550000 -0.250000 -0.100000
v 0.550000 -0.050000 -0.100000
v 0.550000 0.050000 -0.100000
v 0.650000 -0.250000 -0.100000
v 0.650000 -0.050000 -0.100000
v 0.650000 0.050000 -0.100000
v -0.050000 -0.250000 -0.300000
v -0.050000 -0.150000 -0.300000
v 0.050000 -0.250000 -0.300000
v 0.050000 -0.150000 -0.300000
v 0.250000 -0.250000 -0.300000
v 0.250000 -0.150000 -0.300000
v 0.250000 -0.050000 -0.300000
v 0.350000 -0.250000 -0.300000
v 0.350000 -0.150000 -0.300000
v 0.350000 -0.050000 -0.300000
v 0.450000 -0.250000 -0.300000
v 0.450000 -0.150000 -0.300000
v 0.450000 -0.050000 -0.300000
v 0.550000 -0.250000 -0.300000
v 0.550000 -0.150000 -0.300000
v 0.550000 -0.050000 -0.300000
v -0.550000 -0.250000 -0.400000
v -0.550000 0.150000 -0.400000
v -0.450000 -0.250000 -0.400000
v -0.450000 0.150000 -0.400000
v 0.150000 -0.250000 -0.400000
v 0.150000 0.050000 -0.400000
v 0.250000 -0.250000 -0.400000
v 0.250000 0.050000 -0.400000
v -0.450000 -0.250000 -0.500000
v -0.450000 -0.050000 -0.500000
v -0.350000 -0.250000 -0.500000
v -0.350000 -0.050000 -0.500000
v 0.450000 -0.250000 -0.600000
v 0.450000 0.150000 -0.600000
v 0.550000 -0.250000 -0.600000
v 0.550000 0.150000 -0.600000
v 0.050000 -0.250000 0.600000
v 0.050000 -0.050000 0.600000
v 0.150000 -0.250000 0.600000
v 0.150000 -0.050000 0.600000
v -0.450000 -0.250000 0.500000
v -0.450000 -0.150000 0.500000
v -0.350000 -0.250000 0.500000
v -0.350000 -0.150000 0.500000
v 0.050000 -0.250000 0.400000
v 0.050000 0.150000 0.400000
v 0.150000 -0.250000 0.400000
v 0.150000 0.150000 0.400000
v 0.550000 -0.250000 0.400000
v 0.550000 -0.050000 0.400000
v 0.650000 -0.250000 0.400000
v 0.650000 -0.050000 0.400000
v 0.250000 -0.250000 0.300000
v 0.250000 -0.150000 0.300000
v 0.350000 -0.250000 0.300000
v 0.350000 -0.150000 0.300000
v 0.450000 -0.050000 0.300000
v 0.450000 0.050000 0.300000
v 0.750000 -0.050000 0.300000
v 0.750000 0.050000 0.300000
v -0.250000 -0.250000 0.200000
v -0.250000 -0.050000 0.200000
v -0.150000 -0.250000 0.200000
v -0.150000 -0.050000 0.200000
v -0.350000 -0.050000 0.100000
v -0.350000 0.050000 0.100000
v -0.050000 -0.050000 0.100000
v -0.050000 0.050000 0.100000
v -0.450000 -0.250000 0.000000
v -0.450000 0.050000 -0.000000
v -0.350000 -0.250000 0.000000
v -0.350000 0.050000 -0.000000
v -0.650000 -0.250000 -0.100000
v -0.650000 0.150000 -0.100000
v -0.550000 -0.250000 -0.100000
v -0.550000 0.150000 -0.100000
v -0.050000 -0.250000 -0.100000
v -0.050000 -0.050000 -0.100000
v 0.050000 -0.250000 -0.100000
v 0.050000 -0.050000 -0.100000
v -0.750000 0.150000 -0.200000
v -0.750000 0.250000 -0.200000
v -0.450000 0.150000 -0.200000
v -0.450000 0.250000 -0.200000
v -0.250000 -0.250000 -0.200000
v -0.250000 -0.150000 -0.200000
v -0.150000 -0.250000 -0.200000
v -0.150000 -0.150000 -0.200000
v 0.350000 -0.250000 -0.200000
v 0.350000 0.050000 -0.200000
v 0.450000 -0.250000 -0.200000
v 0.450000 0.050000 -0.200000
v 0.550000 -0.250000 -0.200000
v 0.550000 -0.050000 -0.200000
v 0.550000 0.050000 -0.200000
v 0.650000 -0.250000 -0.200000
v 0.650000 -0.050000 -0.200000
v 0.650000 0.050000 -0.200000
v -0.050000 -0.250000 -0.400000
v -0.050000 -0.150000 -0.400000
v 0.050000 -0.250000 -0.400000
v 0.050000 -0.150000 -0.400000
v 0.250000 -0.250000 -0.400000
v 0.250000 -0.150000 -0.400000
v 0.250000 -0.050000 -0.400000
v 0.350000 -0.250000 -0.400000
v 0.350000 -0.150000 -0.400000
v 0.350000 -0.050000 -0.400000
v 0.450000 -0.150000 -0.400000
v 0.450000 -0.050000 -0.400000
v 0.550000 -0.150000 -0.400000
v 0.550000 -0.050000 -0.400000
v -0.550000 -0.250000 -0.500000
v -0.550000 0.150000 -0.500000
v -0.450000 -0.250000 -0.500000
v -0.450000 0.150000 -0.500000
v 0.150000 -0.250000 -0.500000
v 0.150000 0.050000 -0.500000
v 0.250000 -0.250000 -0.500000
v 0.250000 0.050000 -0.500000
v 0.450000 -0.250000 -0.500000
v 0.450000 -0.150000 -0.500000
v 0.550000 -0.250000 -0.500000
v 0.550000 -0.150000 -0.500000
v -0.450000 -0.250000 -0.600000
v -0.450000 -0.050000 -0.600000
v -0.350000 -0.250000 -0.600000
v -0.350000 -0.050000 -0.600000
v 0.450000 -0.250000 -0.700000
v 0.450000 0.150000 -0.700000
v 0.550000 -0.250000 -0.700000
v 0.550000 0.150000 -0.700000
v 0.050000 -0.250000 0.700000
v 0.150000 -0.250000 0.700000
v -0.450000 -0.250000 0.600000
v -0.350000 -0.250000 0.600000
v 0.050000 -0.250000 0.600000
v 0.150000 -0.250000 0.600000
v -0.450000 -0.250000 0.500000
v -0.350000 -0.250000 0.500000
v 0.050000 -0.250000 0.500000
v 0.150000 -0.250000 0.500000
v 0.550000 -0.250000 0.500000
v 0.650000 -0.250000 0.500000
v 0.050000 -0.250000 0.400000
v 0.150000 -0.250000 0.400000
v 0.250000 -0.250000 0.400000
v 0.350000 -0.250000 0.400000
v 0.550000 -0.250000 0.400000
v 0.650000 -0.250000 0.400000
v -0.250000 -0.250000 0.300000
v -0.150000 -0.250000 0.300000
v 0.250000 -0.250000 0.300000
v 0.350000 -0.250000 0.300000
v -0.250000 -0.250000 0.200000
v -0.150000 -0.250000 0.200000
v -0.450000 -0.250000 0.100000
v -0.350000 -0.250000 0.100000
v -0.650000 -0.250000 0.000000
v -0.550000 -0.250000 0.000000
v -0.450000 -0.250000 0.000000
v -0.350000 -0.250000 0.000000
v -0.050000 -0.250000 0.000000
v 0.050000 -0.250000 0.000000
v -0.650000 -0.250000 -0.100000
v -0.550000 -0.250000 -0.100000
v -0.250000 -0.250000 -0.100000
v -0.150000 -0.250000 -0.100000
v -0.050000 -0.250000 -0.100000
v 0.050000 -0.250000 -0.100000
v 0.350000 -0.250000 -0.100000
v 0.450000 -0.250000 -0.100000
v 0.550000 -0.250000 -0.100000
v 0.650000 -0.250000 -0.100000
v -0.250000 -0.250000 -0.200000
v -0.150000 -0.250000 -0.200000
v 0.350000 -0.250000 -0.200000
v 0.450000 -0.250000 -0.200000
v 0.550000 -0.250000 -0.200000
v 0.650000 -0.250000 -0.200000
v -0.050000 -0.250000 -0.300000
v 0.050000 -0.250000 -0.300000
v 0.250000 -0.250000 -0.300000
v 0.350000 -0.250000 -0.300000
v 0.450000 -0.250000 -0.300000
v 0.550000 -0.250000 -0.300000
v -0.550000 -0.250000 -0.400000
v -0.450000 -0.250000 -0.400000
v -0.050000 -0.250000 -0.400000
v 0.050000 -0.250000 -0.400000
v 0.150000 -0.250000 -0.400000
v 0.250000 -0.250000 -0.400000
v 0.350000 -0.250000 -0.400000
v 0.450000 -0.250000 -0.400000
v 0.550000 -0.250000 -0.400000
v -0.550000 -0.250000 -0.500000
v -0.450000 -0.250000 -0.500000
v -0.350000 -0.250000 -0.500000
v 0.150000 -0.250000 -0.500000
v 0.250000 -0.250000 -0.500000
v 0.450000 -0.250000 -0.500000
v 0.550000 -0.250000 -0.500000
v -0.450000 -0.250000 -0.600000
v -0.350000 -0.250000 -0.600000
v 0.450000 -0.250000 -0.600000
v 0.550000 -0.250000 -0.600000
v 0.450000 -0.250000 -0.700000
v 0.550000 -0.250000 -0.700000
v 0.450000 -0.050000 0.600000
v 0.750000 -0.050000 0.600000
v 0.550000 -0.050000 0.500000
v 0.650000 -0.050000 0.500000
v -0.350000 -0.050000 0.400000
v -0.050000 -0.050000 0.400000
v 0.550000 -0.050000 0.400000
v 0.650000 -0.050000 0.400000
v -0.250000 -0.050000 0.300000
v -0.150000 -0.050000 0.300000
v 0.450000 -0.050000 0.300000
v 0.750000 -0.050000 0.300000
v -0.250000 -0.050000 0.200000
v -0.150000 -0.050000 0.200000
v -0.350000 -0.050000 0.100000
v -0.050000 -0.050000 0.100000
v -0.750000 0.150000 0.100000
v -0.450000 0.150000 0.100000
v -0.650000 0.150000 -0.000000
v -0.550000 0.150000 -0.000000
v -0.650000 0.150000 -0.100000
v -0.550000 0.150000 -0.100000
v -0.750000 0.150000 -0.200000
v -0.450000 0.150000 -0.200000
v -0.450000 -0.150000 0.600000
v -0.350000 -0.150000 0.600000
v -0.450000 -0.150000 0.500000
v -0.350000 -0.150000 0.500000
v 0.250000 -0.150000 0.400000
v 0.350000 -0.150000 0.400000
v 0.250000 -0.150000 0.300000
v 0.350000 -0.150000 0.300000
v -0.250000 -0.150000 -0.100000
v -0.150000 -0.150000 -0.100000
v -0.250000 -0.150000 -0.200000
v -0.150000 -0.150000 -0.200000
v -0.050000 -0.150000 -0.300000
v 0.050000 -0.150000 -0.300000
v -0.050000 -0.150000 -0.400000
v 0.050000 -0.150000 -0.400000
v 0.450000 -0.150000 -0.400000
v 0.550000 -0.150000 -0.400000
v 0.450000 -0.150000 -0.500000
v 0.550000 -0.150000 -0.500000
v 0.050000 -0.050000 0.700000
v 0.150000 -0.050000 0.700000
v 0.050000 -0.050000 0.600000
v 0.150000 -0.050000 0.600000
v -0.050000 -0.050000 0.000000
v 0.050000 -0.050000 0.000000
v -0.050000 -0.050000 -0.100000
v 0.050000 -0.050000 -0.100000
v 0.250000 -0.050000 -0.300000
v 0.350000 -0.050000 -0.300000
v 0.450000 -0.050000 -0.300000
v 0.550000 -0.050000 -0.300000
v 0.250000 -0.050000 -0.400000
v 0.350000 -0.050000 -0.400000
v 0.450000 -0.050000 -0.400000
v 0.550000 -0.050000 -0.400000
v -0.450000 -0.050000 -0.500000
v -0.350000 -0.050000 -0.500000
v -0.450000 -0.050000 -0.600000
v -0.350000 -0.050000 -0.600000
v 0.450000 0.050000 0.600000
v 0.750000 0.050000 0.600000
v -0.350000 0.050000 0.400000
v -0.050000 0.050000 0.400000
v 0.450000 0.050000 0.300000
v 0.750000 0.050000 0.300000
v -0.450000 0.050000 0.100000
v -0.350000 0.050000 0.100000
v -0.050000 0.050000 0.100000
v -0.450000 0.050000 -0.000000
v -0.350000 0.050000 -0.000000
v 0.350000 0.050000 -0.100000
v 0.450000 0.050000 -0.100000
v 0.550000 0.050000 -0.100000
v 0.650000 0.050000 -0.100000
v 0.350000 0.050000 -0.200000
v 0.450000 0.050000 -0.200000
v 0.550000 0.050000 -0.200000
v 0.650000 0.050000 -0.200000
v 0.150000 0.050000 -0.400000
v 0.250000 0.050000 -0.400000
v 0.150000 0.050000 -0.500000
v 0.250000 0.050000 -0.500000
v 0.050000 0.150000 0.500000
v 0.150000 0.150000 0.500000
v 0.050000 0.150000 0.400000
v 0.150000 0.150000 0.400000
v -0.550000 0.150000 -0.400000
v -0.450000 0.150000 -0.400000
v -0.550000 0.150000 -0.500000
v -0.450000 0.150000 -0.500000
v 0.450000 0.150000 -0.600000
v 0.550000 0.150000 -0.600000
v 0.450000 0.150000 -0.700000
v 0.550000 0.150000 -0.700000
v -0.750000 0.250000 0.100000
v -0.450000 0.250000 0.100000
v -0.750000 0.250000 -0.200000
v -0.450000 0.250000 -0.200000
vn -0.0000 -0.0000 1.0000
vn -1.0000 -0.0000 -0.0000
vn -0.0000 1.0000 -0.0000
vn -0.0000 -0.0000 -1.0000
vn -0.0000 -1.0000 -0.0000
vn 1.0000 -0.0000 -0.0000
vt 0.974609 0.500000
vt 0.970703 0.500000
vt 0.982422 0.500000
vt 0.986328 0.500000
vt 0.978516 0.500000
s 0
usemtl palette_1.020
f 263/1/1 260/1/1 259/1/1 262/1/1
f 86/2/2 75/2/2 74/2/2 85/2/2
f 22/2/2 18/2/2 17/2/2 21/2/2
f 264/3/1 261/3/1 260/3/1 263/3/1
f 508/2/3 510/2/3 509/2/3 507/2/3
f 380/2/4 382/2/4 381/2/4 379/2/4
f 77/1/2 72/1/2 71/1/2 76/1/2
f 504/2/3 506/2/3 505/2/3 503/2/3
f 282/2/1 280/2/1 279/2/1 281/2/1
f 396/2/5 392/2/5 391/2/5 395/2/5
f 114/2/6 118/2/6 117/2/6 113/2/6
f 320/2/4 322/2/4 321/2/4 319/2/4
f 96/3/2 94/3/2 93/3/2 95/3/2
f 400/1/5 394/1/5 393/1/5 399/1/5
f 144/2/6 148/2/6 147/2/6 143/2/6
f 64/1/2 60/1/2 59/1/2 63/1/2
f 312/1/4 314/1/4 313/1/4 311/1/4
f 535/2/3 539/2/3 538/2/3 534/2/3
f 269/1/1 266/1/1 265/1/1 268/1/1
f 258/2/1 256/2/1 255/2/1 257/2/1
f 134/2/6 140/2/6 139/2/6 133/2/6
f 308/4/4 310/4/4 309/4/4 307/4/4
f 464/5/5 463/5/5 471/5/5 467/5/5 468/5/5 472/5/5 474/5/5
f 390/2/5 386/2/5 385/2/5 389/2/5
f 559/5/3 561/5/3 560/5/3 558/5/3
f 316/5/4 318/5/4 317/5/4 315/5/4
f 488/2/3 490/2/3 489/2/3 487/2/3
f 44/2/2 38/2/2 37/2/2 43/2/2
f 112/2/6 120/2/6 119/2/6 111/2/6
f 102/2/6 106/2/6 105/2/6 101/2/6
f 420/2/5 414/2/5 413/2/5 419/2/5
f 288/2/4 290/2/4 289/2/4 287/2/4
f 344/1/4 347/1/4 346/1/4 343/1/4
f 445/1/5 436/1/5 435/1/5 444/1/5
f 156/1/6 160/1/6 159/1/6 155/1/6
f 151/2/6 149/2/6 150/2/6 152/2/6
f 190/4/6 192/4/6 191/4/6 189/4/6
f 122/1/6 128/1/6 127/1/6 121/1/6
f 274/2/1 272/2/1 271/2/1 273/2/1
f 124/2/6 126/2/6 125/2/6 123/2/6
f 110/2/6 116/2/6 115/2/6 109/2/6
f 470/4/5 466/4/5 465/4/5 461/4/5 460/4/5 459/4/5 469/4/5
f 304/2/4 306/2/4 305/2/4 303/2/4
f 496/2/3 498/2/3 497/2/3 495/2/3
f 24/2/2 16/2/2 15/2/2 23/2/2
f 186/3/6 188/3/6 187/3/6 185/3/6
f 168/1/6 173/1/6 172/1/6 167/1/6
f 240/2/1 238/2/1 237/2/1 239/2/1
f 142/2/6 146/2/6 145/2/6 141/2/6
f 204/4/1 202/4/1 201/4/1 203/4/1
f 430/1/5 424/1/5 423/1/5 429/1/5
f 452/2/5 445/2/5 444/2/5 451/2/5
f 12/2/2 10/2/2 9/2/2 11/2/2
f 547/2/3 549/2/3 548/2/3 546/2/3
f 454/2/5 448/2/5 447/2/5 453/2/5
f 232/2/1 228/2/1 227/2/1 231/2/1
f 62/2/2 58/2/2 57/2/2 61/2/2
f 328/2/4 330/2/4 329/2/4 327/2/4
f 512/3/3 516/3/3 515/3/3 511/3/3
f 340/2/4 342/2/4 341/2/4 339/2/4
f 492/2/3 494/2/3 493/2/3 491/2/3
f 20/2/2 14/2/2 13/2/2 19/2/2
f 36/1/2 30/1/2 29/1/2 35/1/2
f 520/2/3 522/2/3 521/2/3 519/2/3
f 472/5/5 471/5/5 463/5/5 473/5/5 474/5/5
f 360/3/4 362/3/4 361/3/4 359/3/4
f 8/1/2 6/1/2 5/1/2 7/1/2
f 365/2/4 363/2/4 364/2/4 366/2/4
f 173/3/6 176/3/6 175/3/6 172/3/6
f 286/2/1 284/2/1 283/2/1 285/2/1
f 130/5/6 132/5/6 131/5/6 129/5/6
f 551/2/3 553/2/3 552/2/3 550/2/3
f 34/2/2 32/2/2 31/2/2 33/2/2
f 526/5/3 531/5/3 530/5/3 525/5/3
f 514/3/3 518/3/3 517/3/3 513/3/3
f 52/2/2 48/2/2 47/2/2 51/2/2
f 406/1/5 402/1/5 401/1/5 405/1/5
f 404/2/5 398/2/5 397/2/5 403/2/5
f 388/2/5 384/2/5 383/2/5 387/2/5
f 66/3/2 64/3/2 63/3/2 65/3/2
f 94/1/2 90/1/2 89/1/2 93/1/2
f 296/2/4 298/2/4 297/2/4 295/2/4
f 196/2/1 194/2/1 193/2/1 195/2/1
f 92/1/2 88/1/2 87/1/2 91/1/2
f 216/5/1 214/5/1 213/5/1 215/5/1
f 336/2/4 338/2/4 337/2/4 335/2/4
f 230/5/1 226/5/1 225/5/1 229/5/1
f 355/3/4 358/3/4 357/3/4 354/3/4
f 278/2/1 276/2/1 275/2/1 277/2/1
f 50/2/2 46/2/2 45/2/2 49/2/2
f 443/1/5 434/1/5 433/1/5 442/1/5
f 372/2/4 374/2/4 373/2/4 371/2/4
f 376/2/4 378/2/4 377/2/4 375/2/4
f 428/2/5 422/2/5 421/2/5 427/2/5
f 479/5/5 477/5/5 475/5/5 481/5/5 480/5/5
f 42/2/2 40/2/2 39/2/2 41/2/2
f 368/2/4 370/2/4 369/2/4 367/2/4
f 56/2/2 54/2/2 53/2/2 55/2/2
f 171/2/6 178/2/6 177/2/6 170/2/6
f 182/1/6 186/1/6 185/1/6 181/1/6
f 236/1/1 234/1/1 233/1/1 235/1/1
f 447/2/5 438/2/5 437/2/5 446/2/5
f 555/2/3 557/2/3 556/2/3 554/2/3
f 537/3/3 541/3/3 540/3/3 536/3/3
f 169/2/6 174/2/6 173/2/6 168/2/6
f 244/2/1 242/2/1 241/2/1 243/2/1
f 70/2/2 68/2/2 67/2/2 69/2/2
f 476/5/5 475/5/5 477/5/5 478/5/5 480/5/5 481/5/5 482/5/5
f 212/1/1 210/1/1 209/1/1 211/1/1
f 426/2/5 418/2/5 417/2/5 425/2/5
f 154/2/6 158/2/6 157/2/6 153/2/6
f 220/2/1 218/2/1 217/2/1 219/2/1
f 136/2/6 138/2/6 137/2/6 135/2/6
f 164/2/6 166/2/6 165/2/6 163/2/6
f 450/2/5 442/2/5 441/2/5 449/2/5
f 98/1/6 100/1/6 99/1/6 97/1/6
f 412/2/5 408/2/5 407/2/5 411/2/5
f 458/2/5 456/2/5 455/2/5 457/2/5
f 416/1/5 410/1/5 409/1/5 415/1/5
f 180/1/6 184/1/6 183/1/6 179/1/6
f 543/2/3 545/2/3 544/2/3 542/2/3
f 270/3/1 267/3/1 266/3/1 269/3/1
f 200/2/1 198/2/1 197/2/1 199/2/1
f 484/2/3 486/2/3 485/2/3 483/2/3
f 248/2/1 246/2/1 245/2/1 247/2/1
f 84/4/2 80/4/2 79/4/2 83/4/2
f 500/2/3 502/2/3 501/2/3 499/2/3
f 253/1/1 250/1/1 249/1/1 252/1/1
f 78/2/2 73/2/2 72/2/2 77/2/2
f 524/4/3 528/4/3 527/4/3 523/4/3
f 292/2/4 294/2/4 293/2/4 291/2/4
f 470/4/5 460/4/5 461/4/5 462/4/5 466/4/5
f 345/3/4 348/3/4 347/3/4 344/3/4
f 354/1/4 357/1/4 356/1/4 353/1/4
f 4/5/2 2/5/2 1/5/2 3/5/2
f 332/5/4 334/5/4 333/5/4 331/5/4
f 254/3/1 251/3/1 250/3/1 253/3/1
f 350/2/4 352/2/4 351/2/4 349/2/4
f 28/5/2 26/5/2 25/5/2 27/5/2
f 160/3/6 162/3/6 161/3/6 159/3/6
f 82/3/2 77/3/2 76/3/2 81/3/2
f 224/1/1 222/1/1 221/1/1 223/1/1
f 208/2/1 206/2/1 205/2/1 207/2/1
f 300/1/4 302/1/4 301/1/4 299/1/4
f 324/1/4 326/1/4 325/1/4 323/1/4
f 440/2/5 432/2/5 431/2/5 439/2/5
f 104/5/6 108/5/6 107/5/6 103/5/6
f 530/2/3 533/2/3 532/2/3 529/2/3
