# Blender 4.1.1
# www.blender.org
mtllib stone_1.mtl
o ????????????
v -0.500000 -0.050000 0.150000
v -0.500000 -0.050000 -0.050000
v -0.500000 0.050000 0.150000
v -0.500000 0.050000 -0.050000
v -0.200000 -0.050000 -0.450000
v -0.200000 -0.050000 -0.550000
v -0.200000 0.050000 -0.450000
v -0.200000 0.050000 -0.550000
v 0.100000 -0.050000 0.550000
v 0.100000 -0.050000 0.350000
v 0.100000 -0.050000 0.050000
v 0.100000 -0.050000 -0.050000
v 0.100000 0.050000 0.550000
v 0.100000 0.050000 0.350000
v 0.100000 0.050000 0.050000
v 0.100000 0.050000 -0.050000
v 0.300000 -0.050000 -0.050000
v 0.300000 -0.050000 -0.250000
v 0.300000 0.050000 -0.050000
v 0.300000 0.050000 -0.250000
v -0.400000 -0.050000 0.150000
v -0.400000 -0.050000 -0.050000
v -0.400000 0.050000 0.150000
v -0.400000 0.050000 -0.050000
v -0.100000 -0.050000 -0.450000
v -0.100000 -0.050000 -0.550000
v -0.100000 0.050000 -0.450000
v -0.100000 0.050000 -0.550000
v 0.200000 -0.050000 0.050000
v 0.200000 -0.050000 -0.050000
v 0.200000 0.050000 0.050000
v 0.200000 0.050000 -0.050000
v 0.400000 -0.050000 0.550000
v 0.400000 -0.050000 0.350000
v 0.400000 0.050000 0.550000
v 0.400000 0.050000 0.350000
v 0.500000 -0.050000 -0.050000
v 0.500000 -0.050000 -0.250000
v 0.500000 0.050000 -0.050000
v 0.500000 0.050000 -0.250000
v 0.100000 -0.050000 0.550000
v 0.100000 0.050000 0.550000
v 0.400000 -0.050000 0.550000
v 0.400000 0.050000 0.550000
v -0.500000 -0.050000 0.150000
v -0.500000 0.050000 0.150000
v -0.400000 -0.050000 0.150000
v -0.400000 0.050000 0.150000
v 0.100000 -0.050000 0.050000
v 0.100000 0.050000 0.050000
v 0.200000 -0.050000 0.050000
v 0.200000 0.050000 0.050000
v 0.300000 -0.050000 -0.050000
v 0.300000 0.050000 -0.050000
v 0.500000 -0.050000 -0.050000
v 0.500000 0.050000 -0.050000
v -0.200000 -0.050000 -0.450000
v -0.200000 0.050000 -0.450000
v -0.100000 -0.050000 -0.450000
v -0.100000 0.050000 -0.450000
v 0.100000 -0.050000 0.350000
v 0.100000 0.050000 0.350000
v 0.400000 -0.050000 0.350000
v 0.400000 0.050000 0.350000
v -0.500000 -0.050000 -0.050000
v -0.500000 0.050000 -0.050000
v -0.400000 -0.050000 -0.050000
v -0.400000 0.050000 -0.050000
v 0.100000 -0.050000 -0.050000
v 0.100000 0.050000 -0.050000
v 0.200000 -0.050000 -0.050000
v 0.200000 0.050000 -0.050000
v 0.300000 -0.050000 -0.250000
v 0.300000 0.050000 -0.250000
v 0.500000 -0.050000 -0.250000
v 0.500000 0.050000 -0.250000
v -0.200000 -0.050000 -0.550000
v -0.200000 0.050000 -0.550000
v -0.100000 -0.050000 -0.550000
v -0.100000 0.050000 -0.550000
v 0.100000 -0.050000 0.550000
v 0.400000 -0.050000 0.550000
v 0.100000 -0.050000 0.350000
v 0.400000 -0.050000 0.350000
v -0.500000 -0.050000 0.150000
v -0.400000 -0.050000 0.150000
v 0.100000 -0.050000 0.050000
v 0.200000 -0.050000 0.050000
v -0.500000 -0.050000 -0.050000
v -0.400000 -0.050000 -0.050000
v 0.100000 -0.050000 -0.050000
v 0.200000 -0.050000 -0.050000
v 0.300000 -0.050000 -0.050000
v 0.500000 -0.050000 -0.050000
v 0.300000 -0.050000 -0.250000
v 0.500000 -0.050000 -0.250000
v -0.200000 -0.050000 -0.450000
v -0.100000 -0.050000 -0.450000
v -0.200000 -0.050000 -0.550000
v -0.100000 -0.050000 -0.550000
v 0.100000 0.050000 0.550000
v 0.400000 0.050000 0.550000
v 0.100000 0.050000 0.350000
v 0.400000 0.050000 0.350000
v -0.500000 0.050000 0.150000
v -0.400000 0.050000 0.150000
v 0.100000 0.050000 0.050000
v 0.200000 0.050000 0.050000
v -0.500000 0.050000 -0.050000
v -0.400000 0.050000 -0.050000
v 0.100000 0.050000 -0.050000
v 0.200000 0.050000 -0.050000
v 0.300000 0.050000 -0.050000
v 0.500000 0.050000 -0.050000
v 0.300000 0.050000 -0.250000
v 0.500000 0.050000 -0.250000
v -0.200000 0.050000 -0.450000
v -0.100000 0.050000 -0.450000
v -0.200000 0.050000 -0.550000
v -0.100000 0.050000 -0.550000
vn -0.0000 -0.0000 -1.0000
vn -0.0000 -1.0000 -0.0000
vn 1.0000 -0.0000 -0.0000
vn -1.0000 -0.0000 -0.0000
vn -0.0000 -0.0000 1.0000
vn -0.0000 1.0000 -0.0000
vt 0.982422 0.500000
s 0
usemtl palette_1.022
f 70/1/1 72/1/1 71/1/1 69/1/1
f 90/1/2 86/1/2 85/1/2 89/1/2
f 30/1/3 32/1/3 31/1/3 29/1/3
f 14/1/4 10/1/4 9/1/4 13/1/4
f 26/1/3 28/1/3 27/1/3 25/1/3
f 66/1/1 68/1/1 67/1/1 65/1/1
f 22/1/3 24/1/3 23/1/3 21/1/3
f 20/1/4 18/1/4 17/1/4 19/1/4
f 16/1/4 12/1/4 11/1/4 15/1/4
f 62/1/1 64/1/1 63/1/1 61/1/1
f 38/1/3 40/1/3 39/1/3 37/1/3
f 44/1/5 42/1/5 41/1/5 43/1/5
f 60/1/5 58/1/5 57/1/5 59/1/5
f 84/1/2 82/1/2 81/1/2 83/1/2
f 56/1/5 54/1/5 53/1/5 55/1/5
f 52/1/5 50/1/5 49/1/5 51/1/5
f 48/1/5 46/1/5 45/1/5 47/1/5
f 34/1/3 36/1/3 35/1/3 33/1/3
f 78/1/1 80/1/1 79/1/1 77/1/1
f 106/1/6 110/1/6 109/1/6 105/1/6
f 102/1/6 104/1/6 103/1/6 101/1/6
f 74/1/1 76/1/1 75/1/1 73/1/1
f 8/1/4 6/1/4 5/1/4 7/1/4
f 4/1/4 2/1/4 1/1/4 3/1/4
f 96/1/2 94/1/2 93/1/2 95/1/2
f 100/1/2 98/1/2 97/1/2 99/1/2
f 92/1/2 88/1/2 87/1/2 91/1/2
f 108/1/6 112/1/6 111/1/6 107/1/6
f 114/1/6 116/1/6 115/1/6 113/1/6
f 118/1/6 120/1/6 119/1/6 117/1/6
