# Blender 4.1.1
# www.blender.org
mtllib stone.mtl
o ????????????
v -0.600000 -0.250000 0.200000
v -0.600000 -0.250000 -0.600000
v -0.600000 0.050000 0.200000
v -0.600000 0.050000 -0.600000
v -0.500000 0.050000 0.100000
v -0.500000 0.050000 -0.500000
v -0.500000 0.250000 0.100000
v -0.500000 0.250000 -0.500000
v 0.000000 -0.250000 0.600000
v 0.000000 -0.250000 0.500000
v 0.000000 -0.150000 0.600000
v 0.000000 -0.150000 0.500000
v 0.300000 -0.250000 0.500000
v 0.300000 -0.250000 0.300000
v 0.300000 -0.150000 0.500000
v 0.300000 -0.150000 0.300000
v 0.100000 -0.250000 0.600000
v 0.100000 -0.250000 0.500000
v 0.100000 -0.150000 0.600000
v 0.100000 -0.150000 0.500000
v 0.300000 0.050000 0.100000
v 0.300000 0.050000 -0.500000
v 0.300000 0.250000 0.100000
v 0.300000 0.250000 -0.500000
v 0.400000 -0.250000 0.200000
v 0.400000 -0.250000 -0.600000
v 0.400000 0.050000 0.200000
v 0.400000 0.050000 -0.600000
v 0.600000 -0.250000 0.500000
v 0.600000 -0.250000 0.300000
v 0.600000 -0.150000 0.500000
v 0.600000 -0.150000 0.300000
v 0.000000 -0.250000 0.600000
v 0.000000 -0.150000 0.600000
v 0.100000 -0.250000 0.600000
v 0.100000 -0.150000 0.600000
v 0.300000 -0.250000 0.500000
v 0.300000 -0.150000 0.500000
v 0.600000 -0.250000 0.500000
v 0.600000 -0.150000 0.500000
v -0.600000 -0.250000 0.200000
v -0.600000 0.050000 0.200000
v 0.400000 -0.250000 0.200000
v 0.400000 0.050000 0.200000
v -0.500000 0.050000 0.100000
v -0.500000 0.250000 0.100000
v 0.300000 0.050000 0.100000
v 0.300000 0.250000 0.100000
v 0.000000 -0.250000 0.500000
v 0.000000 -0.150000 0.500000
v 0.100000 -0.250000 0.500000
v 0.100000 -0.150000 0.500000
v 0.300000 -0.250000 0.300000
v 0.300000 -0.150000 0.300000
v 0.600000 -0.250000 0.300000
v 0.600000 -0.150000 0.300000
v -0.500000 0.050000 -0.500000
v -0.500000 0.250000 -0.500000
v 0.300000 0.050000 -0.500000
v 0.300000 0.250000 -0.500000
v -0.600000 -0.250000 -0.600000
v -0.600000 0.050000 -0.600000
v 0.400000 -0.250000 -0.600000
v 0.400000 0.050000 -0.600000
v 0.000000 -0.250000 0.600000
v 0.100000 -0.250000 0.600000
v 0.000000 -0.250000 0.500000
v 0.100000 -0.250000 0.500000
v 0.300000 -0.250000 0.500000
v 0.600000 -0.250000 0.500000
v 0.300000 -0.250000 0.300000
v 0.600000 -0.250000 0.300000
v -0.600000 -0.250000 0.200000
v 0.400000 -0.250000 0.200000
v -0.600000 -0.250000 -0.600000
v 0.400000 -0.250000 -0.600000
v 0.000000 -0.150000 0.600000
v 0.100000 -0.150000 0.600000
v 0.000000 -0.150000 0.500000
v 0.100000 -0.150000 0.500000
v 0.300000 -0.150000 0.500000
v 0.600000 -0.150000 0.500000
v 0.300000 -0.150000 0.300000
v 0.600000 -0.150000 0.300000
v -0.600000 0.050000 0.200000
v 0.400000 0.050000 0.200000
v -0.500000 0.050000 0.100000
v 0.300000 0.050000 0.100000
v -0.500000 0.050000 -0.500000
v 0.300000 0.050000 -0.500000
v -0.600000 0.050000 -0.600000
v 0.400000 0.050000 -0.600000
v -0.500000 0.250000 0.100000
v 0.300000 0.250000 0.100000
v -0.500000 0.250000 -0.500000
v 0.300000 0.250000 -0.500000
vn -0.0000 -0.0000 1.0000
vn -0.0000 -0.0000 -1.0000
vn 1.0000 -0.0000 -0.0000
vn -0.0000 -1.0000 -0.0000
vn -1.0000 -0.0000 -0.0000
vn -0.0000 1.0000 -0.0000
vt 0.982422 0.500000
s 0
usemtl palette_1.021
f 44/1/1 42/1/1 41/1/1 43/1/1
f 58/1/2 60/1/2 59/1/2 57/1/2
f 18/1/3 20/1/3 19/1/3 17/1/3
f 76/1/4 74/1/4 73/1/4 75/1/4
f 36/1/1 34/1/1 33/1/1 35/1/1
f 12/1/5 10/1/5 9/1/5 11/1/5
f 89/1/6 91/1/6 85/1/6 86/1/6 90/1/6 88/1/6 87/1/6
f 26/1/3 28/1/3 27/1/3 25/1/3
f 68/1/4 66/1/4 65/1/4 67/1/4
f 8/1/5 6/1/5 5/1/5 7/1/5
f 54/1/2 56/1/2 55/1/2 53/1/2
f 16/1/5 14/1/5 13/1/5 15/1/5
f 72/1/4 70/1/4 69/1/4 71/1/4
f 94/1/6 96/1/6 95/1/6 93/1/6
f 50/1/2 52/1/2 51/1/2 49/1/2
f 48/1/1 46/1/1 45/1/1 47/1/1
f 62/1/2 64/1/2 63/1/2 61/1/2
f 40/1/1 38/1/1 37/1/1 39/1/1
f 22/1/3 24/1/3 23/1/3 21/1/3
f 4/1/5 2/1/5 1/1/5 3/1/5
f 82/1/6 84/1/6 83/1/6 81/1/6
f 30/1/3 32/1/3 31/1/3 29/1/3
f 90/1/6 86/1/6 92/1/6 91/1/6 89/1/6
f 78/1/6 80/1/6 79/1/6 77/1/6
