# MagicaVoxel @ Ephtracy

# group
o 

# material
mtllib Chicken.mtl
usemtl palette

# normals
vn -1 0 0
vn 1 0 0
vn 0 0 1
vn 0 0 -1
vn 0 -1 0
vn 0 1 0

# texcoords
vt 0.908203 0.5
vt 0.912109 0.5
vt 0.955078 0.5
vt 0.990234 0.5

# verts
v -0.4 -0.9 0.3
v -0.4 -0.9 -0.2
v -0.4 -0.8 0.3
v -0.4 -0.8 -0.2
v -0.4 -0.5 0.2
v -0.4 -0.5 -0.3
v -0.4 -0.3 0.2
v -0.4 -0.3 -0.3
v -0.3 -0.8 0
v -0.3 -0.8 -0.1
v -0.3 -0.6 0.3
v -0.3 -0.6 0
v -0.3 -0.6 -0.1
v -0.3 -0.6 -0.5
v -0.3 -0.5 0.2
v -0.3 -0.5 -0.3
v -0.3 -0.3 0.2
v -0.3 -0.3 -0.3
v -0.3 -0.2 -0.2
v -0.3 -0.2 -0.5
v -0.3 0.2 0.2
v -0.3 0.2 0.1
v -0.3 0.3 0.2
v -0.3 0.3 0.1
v -0.3 0.5 0.3
v -0.3 0.5 -0.2
v -0.2 -0.9 0.3
v -0.2 -0.9 0.1
v -0.2 -0.8 0.3
v -0.2 -0.8 0.1
v -0.2 -0.6 0.4
v -0.2 -0.6 0.3
v -0.2 -0.5 -0.5
v -0.2 -0.5 -0.6
v -0.2 -0.2 -0.2
v -0.2 -0.2 -0.3
v -0.2 -0.2 -0.5
v -0.2 -0.2 -0.6
v -0.2 0.5 0.4
v -0.2 0.5 0.3
v -0.2 0.5 -0.2
v -0.2 0.5 -0.3
v -0.1 -0.1 0.6
v -0.1 -0.1 0.4
v -0.1 0.1 0.7
v -0.1 0.1 0.6
v -0.1 0.1 0.4
v -0.1 0.3 0.7
v -0.1 0.3 0.4
v -0.1 0.5 0.3
v -0.1 0.5 -0.1
v -0.1 0.7 0.3
v -0.1 0.7 -0.1
v 0.1 -0.9 0.3
v 0.1 -0.9 -0.2
v 0.1 -0.8 0.3
v 0.1 -0.8 -0.2
v 0.2 -0.8 0
v 0.2 -0.8 -0.1
v 0.2 -0.6 0
v 0.2 -0.6 -0.1
v 0.3 -0.9 0.3
v 0.3 -0.9 0.1
v 0.3 -0.8 0.3
v 0.3 -0.8 0.1
v -0.3 -0.9 0.3
v -0.3 -0.9 0.1
v -0.3 -0.8 0.3
v -0.3 -0.8 0.1
v -0.2 -0.8 0
v -0.2 -0.8 -0.1
v -0.2 -0.6 0
v -0.2 -0.6 -0.1
v -0.1 -0.9 0.3
v -0.1 -0.9 -0.2
v -0.1 -0.8 0.3
v -0.1 -0.8 -0.2
v 0.1 -0.1 0.6
v 0.1 -0.1 0.4
v 0.1 0.1 0.7
v 0.1 0.1 0.6
v 0.1 0.1 0.4
v 0.1 0.3 0.7
v 0.1 0.3 0.4
v 0.1 0.5 0.3
v 0.1 0.5 -0.1
v 0.1 0.7 0.3
v 0.1 0.7 -0.1
v 0.2 -0.9 0.3
v 0.2 -0.9 0.1
v 0.2 -0.8 0.3
v 0.2 -0.8 0.1
v 0.2 -0.6 0.4
v 0.2 -0.6 0.3
v 0.2 -0.5 -0.5
v 0.2 -0.5 -0.6
v 0.2 -0.2 -0.2
v 0.2 -0.2 -0.3
v 0.2 -0.2 -0.5
v 0.2 -0.2 -0.6
v 0.2 0.5 0.4
v 0.2 0.5 0.3
v 0.2 0.5 -0.2
v 0.2 0.5 -0.3
v 0.3 -0.8 0
v 0.3 -0.8 -0.1
v 0.3 -0.6 0.3
v 0.3 -0.6 0
v 0.3 -0.6 -0.1
v 0.3 -0.6 -0.5
v 0.3 -0.5 0.2
v 0.3 -0.5 -0.3
v 0.3 -0.3 0.2
v 0.3 -0.3 -0.3
v 0.3 -0.2 -0.2
v 0.3 -0.2 -0.5
v 0.3 0.2 0.2
v 0.3 0.2 0.1
v 0.3 0.3 0.2
v 0.3 0.3 0.1
v 0.3 0.5 0.3
v 0.3 0.5 -0.2
v 0.4 -0.9 0.3
v 0.4 -0.9 -0.2
v 0.4 -0.8 0.3
v 0.4 -0.8 -0.2
v 0.4 -0.5 0.2
v 0.4 -0.5 -0.3
v 0.4 -0.3 0.2
v 0.4 -0.3 -0.3
v -0.1 0.1 0.7
v -0.1 0.3 0.7
v 0.1 0.1 0.7
v 0.1 0.3 0.7
v -0.1 -0.1 0.6
v -0.1 0.1 0.6
v 0.1 -0.1 0.6
v 0.1 0.1 0.6
v -0.2 -0.6 0.4
v -0.2 0.5 0.4
v -0.1 -0.1 0.4
v -0.1 0.1 0.4
v -0.1 0.3 0.4
v 0.1 -0.1 0.4
v 0.1 0.1 0.4
v 0.1 0.3 0.4
v 0.2 -0.6 0.4
v 0.2 0.5 0.4
v -0.4 -0.9 0.3
v -0.4 -0.8 0.3
v -0.3 -0.9 0.3
v -0.3 -0.8 0.3
v -0.3 -0.6 0.3
v -0.3 0.5 0.3
v -0.2 -0.9 0.3
v -0.2 -0.8 0.3
v -0.2 -0.6 0.3
v -0.2 0.5 0.3
v -0.1 -0.9 0.3
v -0.1 -0.8 0.3
v -0.1 0.5 0.3
v -0.1 0.7 0.3
v 0.1 -0.9 0.3
v 0.1 -0.8 0.3
v 0.1 0.5 0.3
v 0.1 0.7 0.3
v 0.2 -0.9 0.3
v 0.2 -0.8 0.3
v 0.2 -0.6 0.3
v 0.2 0.5 0.3
v 0.3 -0.9 0.3
v 0.3 -0.8 0.3
v 0.3 -0.6 0.3
v 0.3 0.5 0.3
v 0.4 -0.9 0.3
v 0.4 -0.8 0.3
v -0.4 -0.5 0.2
v -0.4 -0.3 0.2
v -0.3 -0.5 0.2
v -0.3 -0.3 0.2
v 0.3 -0.5 0.2
v 0.3 -0.3 0.2
v 0.4 -0.5 0.2
v 0.4 -0.3 0.2
v -0.3 -0.9 0.1
v -0.3 -0.8 0.1
v -0.2 -0.9 0.1
v -0.2 -0.8 0.1
v 0.2 -0.9 0.1
v 0.2 -0.8 0.1
v 0.3 -0.9 0.1
v 0.3 -0.8 0.1
v -0.3 -0.8 0
v -0.3 -0.6 0
v -0.2 -0.8 0
v -0.2 -0.6 0
v 0.2 -0.8 0
v 0.2 -0.6 0
v 0.3 -0.8 0
v 0.3 -0.6 0
v -0.3 -0.8 -0.1
v -0.3 -0.6 -0.1
v -0.2 -0.8 -0.1
v -0.2 -0.6 -0.1
v -0.1 0.5 -0.1
v -0.1 0.7 -0.1
v 0.1 0.5 -0.1
v 0.1 0.7 -0.1
v 0.2 -0.8 -0.1
v 0.2 -0.6 -0.1
v 0.3 -0.8 -0.1
v 0.3 -0.6 -0.1
v -0.4 -0.9 -0.2
v -0.4 -0.8 -0.2
v -0.3 -0.2 -0.2
v -0.3 0.5 -0.2
v -0.2 -0.2 -0.2
v -0.2 0.5 -0.2
v -0.1 -0.9 -0.2
v -0.1 -0.8 -0.2
v 0.1 -0.9 -0.2
v 0.1 -0.8 -0.2
v 0.2 -0.2 -0.2
v 0.2 0.5 -0.2
v 0.3 -0.2 -0.2
v 0.3 0.5 -0.2
v 0.4 -0.9 -0.2
v 0.4 -0.8 -0.2
v -0.4 -0.5 -0.3
v -0.4 -0.3 -0.3
v -0.3 -0.5 -0.3
v -0.3 -0.3 -0.3
v -0.2 -0.2 -0.3
v -0.2 0.5 -0.3
v 0.2 -0.2 -0.3
v 0.2 0.5 -0.3
v 0.3 -0.5 -0.3
v 0.3 -0.3 -0.3
v 0.4 -0.5 -0.3
v 0.4 -0.3 -0.3
v -0.3 -0.6 -0.5
v -0.3 -0.2 -0.5
v -0.2 -0.5 -0.5
v -0.2 -0.2 -0.5
v 0.2 -0.5 -0.5
v 0.2 -0.2 -0.5
v 0.3 -0.6 -0.5
v 0.3 -0.2 -0.5
v -0.2 -0.5 -0.6
v -0.2 -0.2 -0.6
v 0.2 -0.5 -0.6
v 0.2 -0.2 -0.6
v -0.4 -0.9 0.3
v -0.3 -0.9 0.3
v -0.2 -0.9 0.3
v -0.1 -0.9 0.3
v 0.1 -0.9 0.3
v 0.2 -0.9 0.3
v 0.3 -0.9 0.3
v 0.4 -0.9 0.3
v -0.3 -0.9 0.1
v -0.2 -0.9 0.1
v 0.2 -0.9 0.1
v 0.3 -0.9 0.1
v -0.4 -0.9 -0.2
v -0.1 -0.9 -0.2
v 0.1 -0.9 -0.2
v 0.4 -0.9 -0.2
v -0.2 -0.6 0.4
v 0.2 -0.6 0.4
v -0.3 -0.6 0.3
v -0.2 -0.6 0.3
v 0.2 -0.6 0.3
v 0.3 -0.6 0.3
v -0.3 -0.6 0
v -0.2 -0.6 0
v 0.2 -0.6 0
v 0.3 -0.6 0
v -0.3 -0.6 -0.1
v -0.2 -0.6 -0.1
v 0.2 -0.6 -0.1
v 0.3 -0.6 -0.1
v -0.3 -0.6 -0.5
v 0.3 -0.6 -0.5
v -0.4 -0.5 0.2
v -0.3 -0.5 0.2
v 0.3 -0.5 0.2
v 0.4 -0.5 0.2
v -0.4 -0.5 -0.3
v -0.3 -0.5 -0.3
v 0.3 -0.5 -0.3
v 0.4 -0.5 -0.3
v -0.2 -0.5 -0.5
v 0.2 -0.5 -0.5
v -0.2 -0.5 -0.6
v 0.2 -0.5 -0.6
v -0.1 -0.1 0.6
v 0.1 -0.1 0.6
v -0.1 -0.1 0.4
v 0.1 -0.1 0.4
v -0.1 0.1 0.7
v 0.1 0.1 0.7
v -0.1 0.1 0.6
v 0.1 0.1 0.6
v -0.4 -0.8 0.3
v -0.3 -0.8 0.3
v -0.2 -0.8 0.3
v -0.1 -0.8 0.3
v 0.1 -0.8 0.3
v 0.2 -0.8 0.3
v 0.3 -0.8 0.3
v 0.4 -0.8 0.3
v -0.3 -0.8 0.1
v -0.2 -0.8 0.1
v 0.2 -0.8 0.1
v 0.3 -0.8 0.1
v -0.3 -0.8 0
v -0.2 -0.8 0
v 0.2 -0.8 0
v 0.3 -0.8 0
v -0.3 -0.8 -0.1
v -0.2 -0.8 -0.1
v 0.2 -0.8 -0.1
v 0.3 -0.8 -0.1
v -0.4 -0.8 -0.2
v -0.1 -0.8 -0.2
v 0.1 -0.8 -0.2
v 0.4 -0.8 -0.2
v -0.4 -0.3 0.2
v -0.3 -0.3 0.2
v 0.3 -0.3 0.2
v 0.4 -0.3 0.2
v -0.4 -0.3 -0.3
v -0.3 -0.3 -0.3
v 0.3 -0.3 -0.3
v 0.4 -0.3 -0.3
v -0.3 -0.2 -0.2
v -0.2 -0.2 -0.2
v 0.2 -0.2 -0.2
v 0.3 -0.2 -0.2
v -0.2 -0.2 -0.3
v 0.2 -0.2 -0.3
v -0.3 -0.2 -0.5
v -0.2 -0.2 -0.5
v 0.2 -0.2 -0.5
v 0.3 -0.2 -0.5
v -0.2 -0.2 -0.6
v 0.2 -0.2 -0.6
v -0.1 0.3 0.7
v 0.1 0.3 0.7
v -0.1 0.3 0.4
v 0.1 0.3 0.4
v -0.2 0.5 0.4
v 0.2 0.5 0.4
v -0.3 0.5 0.3
v -0.2 0.5 0.3
v -0.1 0.5 0.3
v 0.1 0.5 0.3
v 0.2 0.5 0.3
v 0.3 0.5 0.3
v -0.1 0.5 -0.1
v 0.1 0.5 -0.1
v -0.3 0.5 -0.2
v -0.2 0.5 -0.2
v 0.2 0.5 -0.2
v 0.3 0.5 -0.2
v -0.2 0.5 -0.3
v 0.2 0.5 -0.3
v -0.1 0.7 0.3
v 0.1 0.7 0.3
v -0.1 0.7 -0.1
v 0.1 0.7 -0.1

# faces
f 3/1/1 2/1/1 1/1/1
f 4/1/1 2/1/1 3/1/1
f 7/4/1 6/4/1 5/4/1
f 8/4/1 6/4/1 7/4/1
f 12/1/1 10/1/1 9/1/1
f 13/1/1 10/1/1 12/1/1
f 15/4/1 12/4/1 11/4/1
f 15/4/1 14/4/1 13/4/1
f 15/4/1 13/4/1 12/4/1
f 16/4/1 14/4/1 15/4/1
f 17/4/1 15/4/1 11/4/1
f 18/4/1 14/4/1 16/4/1
f 19/4/1 18/4/1 17/4/1
f 20/4/1 14/4/1 18/4/1
f 20/4/1 18/4/1 19/4/1
f 21/4/1 17/4/1 11/4/1
f 21/4/1 19/4/1 17/4/1
f 22/4/1 19/4/1 21/4/1
f 23/4/1 21/4/1 11/4/1
f 23/3/1 22/3/1 21/3/1
f 24/4/1 19/4/1 22/4/1
f 24/3/1 22/3/1 23/3/1
f 25/4/1 23/4/1 11/4/1
f 25/4/1 24/4/1 23/4/1
f 26/4/1 19/4/1 24/4/1
f 26/4/1 24/4/1 25/4/1
f 29/1/1 28/1/1 27/1/1
f 30/1/1 28/1/1 29/1/1
f 37/4/1 34/4/1 33/4/1
f 38/4/1 34/4/1 37/4/1
f 39/4/1 32/4/1 31/4/1
f 40/4/1 32/4/1 39/4/1
f 41/4/1 36/4/1 35/4/1
f 42/4/1 36/4/1 41/4/1
f 46/2/1 44/2/1 43/2/1
f 47/2/1 44/2/1 46/2/1
f 48/1/1 46/1/1 45/1/1
f 48/1/1 47/1/1 46/1/1
f 49/1/1 47/1/1 48/1/1
f 52/2/1 51/2/1 50/2/1
f 53/2/1 51/2/1 52/2/1
f 56/1/1 55/1/1 54/1/1
f 57/1/1 55/1/1 56/1/1
f 60/1/1 59/1/1 58/1/1
f 61/1/1 59/1/1 60/1/1
f 64/1/1 63/1/1 62/1/1
f 65/1/1 63/1/1 64/1/1
f 66/1/2 67/1/2 68/1/2
f 68/1/2 67/1/2 69/1/2
f 70/1/2 71/1/2 72/1/2
f 72/1/2 71/1/2 73/1/2
f 74/1/2 75/1/2 76/1/2
f 76/1/2 75/1/2 77/1/2
f 78/2/2 79/2/2 81/2/2
f 81/2/2 79/2/2 82/2/2
f 80/1/2 81/1/2 83/1/2
f 81/1/2 82/1/2 83/1/2
f 83/1/2 82/1/2 84/1/2
f 85/2/2 86/2/2 87/2/2
f 87/2/2 86/2/2 88/2/2
f 89/1/2 90/1/2 91/1/2
f 91/1/2 90/1/2 92/1/2
f 95/4/2 96/4/2 99/4/2
f 99/4/2 96/4/2 100/4/2
f 93/4/2 94/4/2 101/4/2
f 101/4/2 94/4/2 102/4/2
f 97/4/2 98/4/2 103/4/2
f 103/4/2 98/4/2 104/4/2
f 105/1/2 106/1/2 108/1/2
f 108/1/2 106/1/2 109/1/2
f 107/4/2 108/4/2 111/4/2
f 109/4/2 110/4/2 111/4/2
f 108/4/2 109/4/2 111/4/2
f 111/4/2 110/4/2 112/4/2
f 107/4/2 111/4/2 113/4/2
f 112/4/2 110/4/2 114/4/2
f 113/4/2 114/4/2 115/4/2
f 114/4/2 110/4/2 116/4/2
f 115/4/2 114/4/2 116/4/2
f 107/4/2 113/4/2 117/4/2
f 113/4/2 115/4/2 117/4/2
f 117/4/2 115/4/2 118/4/2
f 107/4/2 117/4/2 119/4/2
f 117/3/2 118/3/2 119/3/2
f 118/4/2 115/4/2 120/4/2
f 119/3/2 118/3/2 120/3/2
f 107/4/2 119/4/2 121/4/2
f 119/4/2 120/4/2 121/4/2
f 120/4/2 115/4/2 122/4/2
f 121/4/2 120/4/2 122/4/2
f 123/1/2 124/1/2 125/1/2
f 125/1/2 124/1/2 126/1/2
f 127/4/2 128/4/2 129/4/2
f 129/4/2 128/4/2 130/4/2
f 133/1/3 132/1/3 131/1/3
f 134/1/3 132/1/3 133/1/3
f 137/2/3 136/2/3 135/2/3
f 138/2/3 136/2/3 137/2/3
f 141/4/3 140/4/3 139/4/3
f 142/4/3 140/4/3 141/4/3
f 143/4/3 140/4/3 142/4/3
f 144/4/3 141/4/3 139/4/3
f 146/4/3 140/4/3 143/4/3
f 147/4/3 145/4/3 144/4/3
f 147/4/3 146/4/3 145/4/3
f 147/4/3 144/4/3 139/4/3
f 148/4/3 140/4/3 146/4/3
f 148/4/3 146/4/3 147/4/3
f 151/1/3 150/1/3 149/1/3
f 152/1/3 150/1/3 151/1/3
f 157/4/3 154/4/3 153/4/3
f 158/4/3 154/4/3 157/4/3
f 159/1/3 156/1/3 155/1/3
f 160/1/3 156/1/3 159/1/3
f 165/2/3 162/2/3 161/2/3
f 166/2/3 162/2/3 165/2/3
f 167/1/3 164/1/3 163/1/3
f 168/1/3 164/1/3 167/1/3
f 173/4/3 170/4/3 169/4/3
f 174/4/3 170/4/3 173/4/3
f 175/1/3 172/1/3 171/1/3
f 176/1/3 172/1/3 175/1/3
f 179/4/3 178/4/3 177/4/3
f 180/4/3 178/4/3 179/4/3
f 183/4/3 182/4/3 181/4/3
f 184/4/3 182/4/3 183/4/3
f 187/1/3 186/1/3 185/1/3
f 188/1/3 186/1/3 187/1/3
f 191/1/3 190/1/3 189/1/3
f 192/1/3 190/1/3 191/1/3
f 195/1/3 194/1/3 193/1/3
f 196/1/3 194/1/3 195/1/3
f 199/1/3 198/1/3 197/1/3
f 200/1/3 198/1/3 199/1/3
f 201/1/4 202/1/4 203/1/4
f 203/1/4 202/1/4 204/1/4
f 205/2/4 206/2/4 207/2/4
f 207/2/4 206/2/4 208/2/4
f 209/1/4 210/1/4 211/1/4
f 211/1/4 210/1/4 212/1/4
f 215/4/4 216/4/4 217/4/4
f 217/4/4 216/4/4 218/4/4
f 213/1/4 214/1/4 219/1/4
f 219/1/4 214/1/4 220/1/4
f 223/4/4 224/4/4 225/4/4
f 225/4/4 224/4/4 226/4/4
f 221/1/4 222/1/4 227/1/4
f 227/1/4 222/1/4 228/1/4
f 229/4/4 230/4/4 231/4/4
f 231/4/4 230/4/4 232/4/4
f 233/4/4 234/4/4 235/4/4
f 235/4/4 234/4/4 236/4/4
f 237/4/4 238/4/4 239/4/4
f 239/4/4 238/4/4 240/4/4
f 241/4/4 242/4/4 243/4/4
f 243/4/4 242/4/4 244/4/4
f 241/4/4 243/4/4 245/4/4
f 241/4/4 245/4/4 247/4/4
f 245/4/4 246/4/4 247/4/4
f 247/4/4 246/4/4 248/4/4
f 249/4/4 250/4/4 251/4/4
f 251/4/4 250/4/4 252/4/4
f 261/1/5 254/1/5 253/1/5
f 262/1/5 256/1/5 255/1/5
f 263/1/5 258/1/5 257/1/5
f 264/1/5 260/1/5 259/1/5
f 265/1/5 261/1/5 253/1/5
f 265/1/5 262/1/5 261/1/5
f 266/1/5 256/1/5 262/1/5
f 266/1/5 262/1/5 265/1/5
f 267/1/5 263/1/5 257/1/5
f 267/1/5 264/1/5 263/1/5
f 268/1/5 260/1/5 264/1/5
f 268/1/5 264/1/5 267/1/5
f 272/4/5 270/4/5 269/4/5
f 273/4/5 270/4/5 272/4/5
f 275/4/5 272/4/5 271/4/5
f 275/4/5 274/4/5 273/4/5
f 275/4/5 273/4/5 272/4/5
f 276/4/5 274/4/5 275/4/5
f 277/4/5 274/4/5 276/4/5
f 278/4/5 274/4/5 277/4/5
f 280/4/5 277/4/5 276/4/5
f 281/4/5 277/4/5 280/4/5
f 283/4/5 280/4/5 279/4/5
f 283/4/5 282/4/5 281/4/5
f 283/4/5 281/4/5 280/4/5
f 284/4/5 282/4/5 283/4/5
f 289/4/5 286/4/5 285/4/5
f 290/4/5 286/4/5 289/4/5
f 291/4/5 288/4/5 287/4/5
f 292/4/5 288/4/5 291/4/5
f 295/4/5 294/4/5 293/4/5
f 296/4/5 294/4/5 295/4/5
f 299/2/5 298/2/5 297/2/5
f 300/2/5 298/2/5 299/2/5
f 303/1/5 302/1/5 301/1/5
f 304/1/5 302/1/5 303/1/5
f 305/1/6 306/1/6 313/1/6
f 307/1/6 308/1/6 314/1/6
f 309/1/6 310/1/6 315/1/6
f 311/1/6 312/1/6 316/1/6
f 305/1/6 313/1/6 317/1/6
f 313/1/6 314/1/6 317/1/6
f 314/1/6 308/1/6 318/1/6
f 317/1/6 314/1/6 318/1/6
f 309/1/6 315/1/6 319/1/6
f 315/1/6 316/1/6 319/1/6
f 316/1/6 312/1/6 320/1/6
f 319/1/6 316/1/6 320/1/6
f 305/1/6 317/1/6 321/1/6
f 318/1/6 308/1/6 322/1/6
f 309/1/6 319/1/6 323/1/6
f 320/1/6 312/1/6 324/1/6
f 305/1/6 321/1/6 325/1/6
f 321/1/6 322/1/6 325/1/6
f 322/1/6 308/1/6 326/1/6
f 325/1/6 322/1/6 326/1/6
f 323/1/6 324/1/6 327/1/6
f 309/1/6 323/1/6 327/1/6
f 324/1/6 312/1/6 328/1/6
f 327/1/6 324/1/6 328/1/6
f 329/4/6 330/4/6 333/4/6
f 333/4/6 330/4/6 334/4/6
f 331/4/6 332/4/6 335/4/6
f 335/4/6 332/4/6 336/4/6
f 337/4/6 338/4/6 341/4/6
f 339/4/6 340/4/6 342/4/6
f 337/4/6 341/4/6 343/4/6
f 341/4/6 342/4/6 343/4/6
f 343/4/6 342/4/6 344/4/6
f 342/4/6 340/4/6 345/4/6
f 344/4/6 342/4/6 345/4/6
f 345/4/6 340/4/6 346/4/6
f 344/4/6 345/4/6 347/4/6
f 347/4/6 345/4/6 348/4/6
f 349/1/6 350/1/6 351/1/6
f 351/1/6 350/1/6 352/1/6
f 353/4/6 354/4/6 356/4/6
f 356/4/6 354/4/6 357/4/6
f 357/4/6 354/4/6 358/4/6
f 358/4/6 354/4/6 359/4/6
f 355/4/6 356/4/6 361/4/6
f 356/4/6 357/4/6 361/4/6
f 359/4/6 360/4/6 362/4/6
f 358/4/6 359/4/6 362/4/6
f 355/4/6 361/4/6 363/4/6
f 361/4/6 362/4/6 363/4/6
f 363/4/6 362/4/6 364/4/6
f 362/4/6 360/4/6 365/4/6
f 364/4/6 362/4/6 365/4/6
f 365/4/6 360/4/6 366/4/6
f 364/4/6 365/4/6 367/4/6
f 367/4/6 365/4/6 368/4/6
f 369/2/6 370/2/6 371/2/6
f 371/2/6 370/2/6 372/2/6
