# MagicaVoxel @ Ephtracy

# group
o 

# material
mtllib Frog.mtl
usemtl palette

# normals
vn -1 0 0
vn 1 0 0
vn 0 0 1
vn 0 0 -1
vn 0 -1 0
vn 0 1 0

# texcoords
vt 0.947266 0.5
vt 0.955078 0.5
vt 0.974609 0.5
vt 0.990234 0.5

# verts
v -0.6 0 0.1
v -0.6 0 0
v -0.6 0.3 0.1
v -0.6 0.3 0
v -0.6 0.4 0.1
v -0.6 0.4 0
v -0.6 0.6 0.1
v -0.6 0.6 0
v -0.5 0.6 0.1
v -0.5 0.6 0
v -0.5 0.7 0.1
v -0.5 0.7 0
v -0.3 -0.4 0.2
v -0.3 -0.4 -0.1
v -0.3 -0.3 0.2
v -0.3 -0.3 -0.1
v -0.3 -0.2 0.2
v -0.3 -0.2 0.1
v -0.3 -0.2 0
v -0.3 -0.2 -0.1
v -0.3 -0.1 0.2
v -0.3 -0.1 0.1
v -0.3 -0.1 0
v -0.3 -0.1 -0.1
v -0.3 0 0.2
v -0.3 0 0.1
v -0.3 0 0
v -0.3 0 -0.1
v -0.3 0.1 0.1
v -0.3 0.1 0
v -0.3 0.1 -0.1
v -0.3 0.4 0.2
v -0.3 0.4 0.1
v -0.3 0.5 0.2
v -0.3 0.5 0.1
v -0.3 0.5 -0.1
v -0.3 0.6 0.2
v -0.3 0.6 0.1
v -0.3 0.6 0
v -0.3 0.8 0.2
v -0.3 0.8 0.1
v -0.3 0.9 0.2
v -0.3 0.9 0
v -0.2 -0.9 0.1
v -0.2 -0.9 0
v -0.2 -0.5 0.1
v -0.2 -0.5 0
v -0.2 -0.4 0.1
v -0.2 -0.4 0
v -0.2 0.5 0.1
v -0.2 0.5 0
v -0.2 0.6 0.1
v -0.2 0.6 0
v 0 0.6 0.2
v 0 0.6 0.1
v 0 0.6 0
v 0 0.9 0.2
v 0 0.9 0.1
v 0 1 0.2
v 0 1 0
v 0.1 -0.9 0.1
v 0.1 -0.9 0
v 0.1 -0.5 0.1
v 0.1 -0.5 0
v 0.1 -0.4 0.1
v 0.1 -0.4 0
v 0.1 0.5 0.1
v 0.1 0.5 0
v 0.1 0.6 0.1
v 0.1 0.6 0
v 0.4 -0.4 0.1
v 0.4 -0.4 0
v 0.4 -0.2 0.1
v 0.4 -0.2 0
v 0.4 -0.1 0.1
v 0.4 -0.1 0
v 0.4 0 0.1
v 0.4 0 0
v -0.5 0.1 0.1
v -0.5 0.1 0
v -0.5 0.3 0.1
v -0.5 0.3 0
v -0.5 0.4 0.1
v -0.5 0.4 0
v -0.4 0.4 0.1
v -0.4 0.4 0
v -0.4 0.6 0.1
v -0.4 0.6 0
v -0.4 0.7 0.1
v -0.4 0.7 0
v -0.2 0.1 0.2
v -0.2 0.1 0.1
v -0.2 0.2 0.2
v -0.2 0.2 0.1
v -0.1 -0.9 0.1
v -0.1 -0.9 0
v -0.1 -0.5 0.1
v -0.1 -0.5 0
v -0.1 -0.4 0.1
v -0.1 -0.4 0
v -0.1 0.5 0.1
v -0.1 0.5 0
v -0.1 0.6 0.2
v -0.1 0.6 0.1
v -0.1 0.8 0.2
v -0.1 0.8 0.1
v -0.1 0.9 0.2
v -0.1 0.9 0
v 0.2 -0.9 0.1
v 0.2 -0.9 0
v 0.2 -0.5 0.1
v 0.2 -0.5 0
v 0.2 -0.4 0.1
v 0.2 -0.4 0
v 0.2 0.5 0.1
v 0.2 0.5 0
v 0.2 0.6 0.1
v 0.2 0.6 0
v 0.3 -0.4 0.2
v 0.3 -0.4 -0.1
v 0.3 -0.3 0.2
v 0.3 -0.3 -0.1
v 0.3 -0.2 0.2
v 0.3 -0.2 0.1
v 0.3 -0.1 0
v 0.3 -0.1 -0.1
v 0.3 0 0.2
v 0.3 0 0.1
v 0.3 0 0
v 0.3 0 -0.1
v 0.3 0.1 0.2
v 0.3 0.1 0.1
v 0.3 0.1 0
v 0.3 0.2 0.2
v 0.3 0.2 0.1
v 0.3 0.3 0.2
v 0.3 0.3 0.1
v 0.3 0.4 0
v 0.3 0.4 -0.1
v 0.3 0.5 0.2
v 0.3 0.5 0
v 0.3 0.5 -0.1
v 0.3 0.6 0.2
v 0.3 0.6 0.1
v 0.3 0.6 0
v 0.3 0.9 0.2
v 0.3 0.9 0.1
v 0.3 1 0.2
v 0.3 1 0.1
v 0.3 1 0
v 0.5 -0.4 0.1
v 0.5 -0.4 0
v 0.5 -0.2 0.1
v 0.5 -0.2 0
v 0.5 -0.1 0.1
v 0.5 -0.1 0
v 0.5 0 0.1
v 0.5 0 0
v 0.5 0.1 0.1
v 0.5 0.1 0
v -0.3 -0.4 0.2
v -0.3 -0.3 0.2
v -0.3 -0.2 0.2
v -0.3 -0.1 0.2
v -0.3 0 0.2
v -0.3 0.4 0.2
v -0.3 0.5 0.2
v -0.3 0.6 0.2
v -0.3 0.8 0.2
v -0.3 0.9 0.2
v -0.2 -0.2 0.2
v -0.2 -0.1 0.2
v -0.2 0.1 0.2
v -0.2 0.2 0.2
v -0.2 0.3 0.2
v -0.2 0.4 0.2
v -0.2 0.5 0.2
v -0.2 0.6 0.2
v -0.2 0.8 0.2
v -0.1 -0.2 0.2
v -0.1 0 0.2
v -0.1 0.4 0.2
v -0.1 0.5 0.2
v -0.1 0.6 0.2
v -0.1 0.8 0.2
v -0.1 0.9 0.2
v 0 -0.3 0.2
v 0 -0.2 0.2
v 0 0 0.2
v 0 0.6 0.2
v 0 0.9 0.2
v 0 1 0.2
v 0.1 -0.4 0.2
v 0.1 -0.3 0.2
v 0.1 -0.2 0.2
v 0.1 0.4 0.2
v 0.1 0.5 0.2
v 0.1 0.6 0.2
v 0.1 0.8 0.2
v 0.2 -0.4 0.2
v 0.2 -0.3 0.2
v 0.2 -0.2 0.2
v 0.2 0 0.2
v 0.2 0.6 0.2
v 0.2 0.8 0.2
v 0.2 0.9 0.2
v 0.2 1 0.2
v 0.3 -0.4 0.2
v 0.3 -0.3 0.2
v 0.3 -0.2 0.2
v 0.3 0 0.2
v 0.3 0.1 0.2
v 0.3 0.2 0.2
v 0.3 0.3 0.2
v 0.3 0.5 0.2
v 0.3 0.6 0.2
v 0.3 0.9 0.2
v 0.3 1 0.2
v -0.6 0 0.1
v -0.6 0.3 0.1
v -0.6 0.4 0.1
v -0.6 0.6 0.1
v -0.5 0 0.1
v -0.5 0.1 0.1
v -0.5 0.3 0.1
v -0.5 0.4 0.1
v -0.5 0.6 0.1
v -0.5 0.7 0.1
v -0.4 0.4 0.1
v -0.4 0.6 0.1
v -0.4 0.7 0.1
v -0.3 0 0.1
v -0.3 0.1 0.1
v -0.2 -0.9 0.1
v -0.2 -0.5 0.1
v -0.2 -0.4 0.1
v -0.2 0.1 0.1
v -0.2 0.2 0.1
v -0.2 0.5 0.1
v -0.2 0.6 0.1
v -0.1 -0.9 0.1
v -0.1 -0.5 0.1
v -0.1 -0.4 0.1
v -0.1 0.5 0.1
v -0.1 0.6 0.1
v 0.1 -0.9 0.1
v 0.1 -0.5 0.1
v 0.1 -0.4 0.1
v 0.1 0.5 0.1
v 0.1 0.6 0.1
v 0.2 -0.9 0.1
v 0.2 -0.5 0.1
v 0.2 -0.4 0.1
v 0.2 0.5 0.1
v 0.2 0.6 0.1
v 0.3 0 0.1
v 0.3 0.1 0.1
v 0.3 0.2 0.1
v 0.4 -0.4 0.1
v 0.4 -0.2 0.1
v 0.4 -0.1 0.1
v 0.4 0 0.1
v 0.5 -0.4 0.1
v 0.5 -0.2 0.1
v 0.5 -0.1 0.1
v 0.5 0 0.1
v 0.5 0.1 0.1
v -0.6 0 0
v -0.6 0.3 0
v -0.6 0.4 0
v -0.6 0.6 0
v -0.5 0 0
v -0.5 0.1 0
v -0.5 0.3 0
v -0.5 0.4 0
v -0.5 0.6 0
v -0.5 0.7 0
v -0.4 0.4 0
v -0.4 0.6 0
v -0.4 0.7 0
v -0.3 0 0
v -0.3 0.1 0
v -0.3 0.6 0
v -0.3 0.9 0
v -0.2 -0.9 0
v -0.2 -0.5 0
v -0.2 -0.4 0
v -0.2 0.5 0
v -0.2 0.6 0
v -0.1 -0.9 0
v -0.1 -0.5 0
v -0.1 -0.4 0
v -0.1 0.5 0
v -0.1 0.9 0
v 0 0.6 0
v 0 1 0
v 0.1 -0.9 0
v 0.1 -0.5 0
v 0.1 -0.4 0
v 0.1 0.5 0
v 0.1 0.6 0
v 0.2 -0.9 0
v 0.2 -0.5 0
v 0.2 -0.4 0
v 0.2 0.5 0
v 0.2 0.6 0
v 0.3 0 0
v 0.3 0.1 0
v 0.3 0.6 0
v 0.3 1 0
v 0.4 -0.4 0
v 0.4 -0.2 0
v 0.4 -0.1 0
v 0.4 0 0
v 0.5 -0.4 0
v 0.5 -0.2 0
v 0.5 -0.1 0
v 0.5 0 0
v 0.5 0.1 0
v -0.3 -0.4 -0.1
v -0.3 -0.3 -0.1
v -0.3 -0.2 -0.1
v -0.3 -0.1 -0.1
v -0.3 0 -0.1
v -0.3 0.1 -0.1
v -0.3 0.5 -0.1
v -0.2 -0.1 -0.1
v -0.2 0 -0.1
v -0.2 0.1 -0.1
v -0.2 0.3 -0.1
v -0.2 0.4 -0.1
v -0.1 -0.3 -0.1
v -0.1 -0.2 -0.1
v -0.1 0 -0.1
v -0.1 0.3 -0.1
v -0.1 0.4 -0.1
v 0 -0.3 -0.1
v 0 -0.2 -0.1
v 0.1 -0.3 -0.1
v 0.1 -0.1 -0.1
v 0.1 0 -0.1
v 0.1 0.1 -0.1
v 0.2 -0.3 -0.1
v 0.2 -0.1 -0.1
v 0.2 0 -0.1
v 0.2 0.1 -0.1
v 0.2 0.4 -0.1
v 0.2 0.5 -0.1
v 0.3 -0.4 -0.1
v 0.3 -0.3 -0.1
v 0.3 -0.1 -0.1
v 0.3 0 -0.1
v 0.3 0.4 -0.1
v 0.3 0.5 -0.1
v -0.2 -0.9 0.1
v -0.1 -0.9 0.1
v 0.1 -0.9 0.1
v 0.2 -0.9 0.1
v -0.2 -0.9 0
v -0.1 -0.9 0
v 0.1 -0.9 0
v 0.2 -0.9 0
v -0.3 -0.4 0.2
v 0.1 -0.4 0.2
v 0.2 -0.4 0.2
v 0.3 -0.4 0.2
v -0.2 -0.4 0.1
v -0.1 -0.4 0.1
v 0.1 -0.4 0.1
v 0.2 -0.4 0.1
v 0.4 -0.4 0.1
v 0.5 -0.4 0.1
v -0.2 -0.4 0
v -0.1 -0.4 0
v 0.1 -0.4 0
v 0.2 -0.4 0
v 0.4 -0.4 0
v 0.5 -0.4 0
v -0.3 -0.4 -0.1
v 0.3 -0.4 -0.1
v -0.6 0 0.1
v -0.5 0 0.1
v -0.3 0 0.1
v 0.3 0 0.1
v 0.4 0 0.1
v -0.6 0 0
v -0.5 0 0
v -0.3 0 0
v 0.3 0 0
v 0.4 0 0
v -0.2 0.2 0.2
v 0.3 0.2 0.2
v -0.2 0.2 0.1
v 0.3 0.2 0.1
v -0.5 0.4 0.1
v -0.4 0.4 0.1
v -0.5 0.4 0
v -0.4 0.4 0
v -0.3 0.6 0.2
v -0.2 0.6 0.2
v -0.1 0.6 0.2
v 0 0.6 0.2
v 0.1 0.6 0.2
v 0.2 0.6 0.2
v 0.3 0.6 0.2
v -0.3 0.6 0.1
v -0.2 0.6 0.1
v -0.1 0.6 0.1
v 0 0.6 0.1
v 0.1 0.6 0.1
v 0.2 0.6 0.1
v 0.3 0.6 0.1
v -0.3 0.6 0
v -0.2 0.6 0
v 0 0.6 0
v 0.1 0.6 0
v 0.2 0.6 0
v 0.3 0.6 0
v -0.2 0.1 0.2
v 0.3 0.1 0.2
v -0.5 0.1 0.1
v -0.3 0.1 0.1
v -0.2 0.1 0.1
v 0.3 0.1 0.1
v 0.5 0.1 0.1
v -0.5 0.1 0
v -0.3 0.1 0
v 0.3 0.1 0
v 0.5 0.1 0
v -0.3 0.5 0.2
v -0.2 0.5 0.2
v -0.1 0.5 0.2
v 0.1 0.5 0.2
v 0.3 0.5 0.2
v -0.3 0.5 0.1
v -0.2 0.5 0.1
v -0.1 0.5 0.1
v 0.1 0.5 0.1
v 0.2 0.5 0.1
v -0.2 0.5 0
v -0.1 0.5 0
v 0.1 0.5 0
v 0.2 0.5 0
v 0.3 0.5 0
v -0.3 0.5 -0.1
v 0.2 0.5 -0.1
v 0.3 0.5 -0.1
v -0.6 0.6 0.1
v -0.5 0.6 0.1
v -0.6 0.6 0
v -0.5 0.6 0
v -0.5 0.7 0.1
v -0.4 0.7 0.1
v -0.5 0.7 0
v -0.4 0.7 0
v -0.3 0.9 0.2
v -0.1 0.9 0.2
v -0.3 0.9 0
v -0.1 0.9 0
v 0 1 0.2
v 0.2 1 0.2
v 0.3 1 0.2
v 0.2 1 0.1
v 0.3 1 0.1
v 0 1 0
v 0.3 1 0

# faces
f 3/1/1 2/1/1 1/1/1
f 4/1/1 2/1/1 3/1/1
f 5/3/1 4/3/1 3/3/1
f 6/3/1 4/3/1 5/3/1
f 7/1/1 6/1/1 5/1/1
f 8/1/1 6/1/1 7/1/1
f 11/3/1 10/3/1 9/3/1
f 12/3/1 10/3/1 11/3/1
f 15/1/1 14/1/1 13/1/1
f 16/1/1 14/1/1 15/1/1
f 17/2/1 16/2/1 15/2/1
f 18/2/1 16/2/1 17/2/1
f 19/2/1 16/2/1 18/2/1
f 20/2/1 16/2/1 19/2/1
f 21/4/1 18/4/1 17/4/1
f 22/2/1 19/2/1 18/2/1
f 22/4/1 18/4/1 21/4/1
f 23/4/1 20/4/1 19/4/1
f 23/2/1 19/2/1 22/2/1
f 24/4/1 20/4/1 23/4/1
f 25/2/1 22/2/1 21/2/1
f 25/2/1 23/2/1 22/2/1
f 25/2/1 24/2/1 23/2/1
f 26/2/1 24/2/1 25/2/1
f 27/2/1 24/2/1 26/2/1
f 28/2/1 24/2/1 27/2/1
f 29/1/1 26/1/1 25/1/1
f 30/3/1 28/3/1 27/3/1
f 31/3/1 28/3/1 30/3/1
f 32/1/1 29/1/1 25/1/1
f 32/1/1 30/1/1 29/1/1
f 32/1/1 31/1/1 30/1/1
f 33/1/1 31/1/1 32/1/1
f 34/3/1 33/3/1 32/3/1
f 35/1/1 31/1/1 33/1/1
f 35/3/1 33/3/1 34/3/1
f 36/1/1 31/1/1 35/1/1
f 40/4/1 38/4/1 37/4/1
f 41/1/1 39/1/1 38/1/1
f 41/4/1 38/4/1 40/4/1
f 42/1/1 41/1/1 40/1/1
f 43/1/1 39/1/1 41/1/1
f 43/1/1 41/1/1 42/1/1
f 46/1/1 45/1/1 44/1/1
f 47/1/1 45/1/1 46/1/1
f 48/3/1 47/3/1 46/3/1
f 49/3/1 47/3/1 48/3/1
f 52/1/1 51/1/1 50/1/1
f 53/1/1 51/1/1 52/1/1
f 57/4/1 55/4/1 54/4/1
f 58/1/1 56/1/1 55/1/1
f 58/4/1 55/4/1 57/4/1
f 59/1/1 58/1/1 57/1/1
f 60/1/1 56/1/1 58/1/1
f 60/1/1 58/1/1 59/1/1
f 63/1/1 62/1/1 61/1/1
f 64/1/1 62/1/1 63/1/1
f 65/3/1 64/3/1 63/3/1
f 66/3/1 64/3/1 65/3/1
f 69/1/1 68/1/1 67/1/1
f 70/1/1 68/1/1 69/1/1
f 73/1/1 72/1/1 71/1/1
f 74/1/1 72/1/1 73/1/1
f 75/3/1 74/3/1 73/3/1
f 76/3/1 74/3/1 75/3/1
f 77/1/1 76/1/1 75/1/1
f 78/1/1 76/1/1 77/1/1
f 79/1/2 80/1/2 81/1/2
f 81/1/2 80/1/2 82/1/2
f 81/3/2 82/3/2 83/3/2
f 83/3/2 82/3/2 84/3/2
f 85/1/2 86/1/2 87/1/2
f 87/1/2 86/1/2 88/1/2
f 87/3/2 88/3/2 89/3/2
f 89/3/2 88/3/2 90/3/2
f 91/1/2 92/1/2 93/1/2
f 93/1/2 92/1/2 94/1/2
f 95/1/2 96/1/2 97/1/2
f 97/1/2 96/1/2 98/1/2
f 97/3/2 98/3/2 99/3/2
f 99/3/2 98/3/2 100/3/2
f 101/1/2 102/1/2 104/1/2
f 103/2/2 104/2/2 105/2/2
f 104/1/2 102/1/2 106/1/2
f 105/2/2 104/2/2 106/2/2
f 105/1/2 106/1/2 107/1/2
f 106/1/2 102/1/2 108/1/2
f 107/1/2 106/1/2 108/1/2
f 109/1/2 110/1/2 111/1/2
f 111/1/2 110/1/2 112/1/2
f 111/3/2 112/3/2 113/3/2
f 113/3/2 112/3/2 114/3/2
f 115/1/2 116/1/2 117/1/2
f 117/1/2 116/1/2 118/1/2
f 119/1/2 120/1/2 121/1/2
f 121/1/2 120/1/2 122/1/2
f 121/2/2 122/2/2 123/2/2
f 123/2/2 122/2/2 124/2/2
f 124/2/2 122/2/2 125/2/2
f 125/2/2 122/2/2 126/2/2
f 123/4/2 124/4/2 127/4/2
f 124/2/2 125/2/2 128/2/2
f 127/4/2 124/4/2 128/4/2
f 125/4/2 126/4/2 129/4/2
f 128/2/2 125/2/2 129/2/2
f 129/4/2 126/4/2 130/4/2
f 127/1/2 128/1/2 131/1/2
f 131/1/2 128/1/2 132/1/2
f 129/1/2 130/1/2 133/1/2
f 132/1/2 133/1/2 135/1/2
f 134/4/2 135/4/2 136/4/2
f 135/1/2 133/1/2 137/1/2
f 136/4/2 135/4/2 137/4/2
f 133/1/2 130/1/2 138/1/2
f 137/1/2 133/1/2 138/1/2
f 136/1/2 137/1/2 138/1/2
f 138/1/2 130/1/2 139/1/2
f 136/1/2 138/1/2 140/1/2
f 138/3/2 139/3/2 141/3/2
f 140/1/2 138/1/2 141/1/2
f 141/3/2 139/3/2 142/3/2
f 143/4/2 144/4/2 146/4/2
f 144/1/2 145/1/2 147/1/2
f 146/4/2 144/4/2 147/4/2
f 146/3/2 147/3/2 148/3/2
f 147/1/2 145/1/2 149/1/2
f 148/3/2 147/3/2 149/3/2
f 149/1/2 145/1/2 150/1/2
f 151/1/2 152/1/2 153/1/2
f 153/1/2 152/1/2 154/1/2
f 153/3/2 154/3/2 155/3/2
f 155/3/2 154/3/2 156/3/2
f 155/1/2 156/1/2 157/1/2
f 157/1/2 156/1/2 158/1/2
f 157/2/2 158/2/2 159/2/2
f 159/2/2 158/2/2 160/2/2
f 171/2/3 163/2/3 162/2/3
f 171/4/3 164/4/3 163/4/3
f 172/2/3 165/2/3 164/2/3
f 172/4/3 164/4/3 171/4/3
f 173/1/3 166/1/3 165/1/3
f 174/1/3 166/1/3 173/1/3
f 175/1/3 166/1/3 174/1/3
f 176/3/3 167/3/3 166/3/3
f 176/1/3 166/1/3 175/1/3
f 177/3/3 167/3/3 176/3/3
f 178/4/3 169/4/3 168/4/3
f 179/1/3 170/1/3 169/1/3
f 179/4/3 169/4/3 178/4/3
f 180/2/3 171/2/3 162/2/3
f 180/2/3 172/2/3 171/2/3
f 181/2/3 165/2/3 172/2/3
f 181/2/3 172/2/3 180/2/3
f 181/1/3 173/1/3 165/1/3
f 182/1/3 177/1/3 176/1/3
f 182/1/3 176/1/3 175/1/3
f 183/1/3 177/1/3 182/1/3
f 184/2/3 179/2/3 178/2/3
f 185/1/3 170/1/3 179/1/3
f 185/2/3 179/2/3 184/2/3
f 186/1/3 170/1/3 185/1/3
f 187/1/3 162/1/3 161/1/3
f 187/2/3 180/2/3 162/2/3
f 188/4/3 181/4/3 180/4/3
f 188/2/3 180/2/3 187/2/3
f 189/1/3 173/1/3 181/1/3
f 189/4/3 181/4/3 188/4/3
f 193/1/3 187/1/3 161/1/3
f 194/4/3 188/4/3 187/4/3
f 194/1/3 187/1/3 193/1/3
f 195/2/3 189/2/3 188/2/3
f 195/4/3 188/4/3 194/4/3
f 196/1/3 182/1/3 175/1/3
f 196/3/3 183/3/3 182/3/3
f 197/3/3 183/3/3 196/3/3
f 198/4/3 191/4/3 190/4/3
f 199/4/3 191/4/3 198/4/3
f 200/3/3 194/3/3 193/3/3
f 201/2/3 195/2/3 194/2/3
f 201/3/3 194/3/3 200/3/3
f 202/2/3 189/2/3 195/2/3
f 202/2/3 195/2/3 201/2/3
f 203/1/3 173/1/3 189/1/3
f 203/2/3 189/2/3 202/2/3
f 204/2/3 199/2/3 198/2/3
f 205/4/3 191/4/3 199/4/3
f 205/2/3 199/2/3 204/2/3
f 206/1/3 192/1/3 191/1/3
f 206/4/3 191/4/3 205/4/3
f 207/1/3 192/1/3 206/1/3
f 208/1/3 201/1/3 200/1/3
f 209/2/3 202/2/3 201/2/3
f 209/1/3 201/1/3 208/1/3
f 210/4/3 203/4/3 202/4/3
f 210/2/3 202/2/3 209/2/3
f 211/1/3 173/1/3 203/1/3
f 211/4/3 203/4/3 210/4/3
f 212/1/3 173/1/3 211/1/3
f 213/4/3 175/4/3 174/4/3
f 214/1/3 197/1/3 196/1/3
f 214/4/3 175/4/3 213/4/3
f 214/1/3 196/1/3 175/1/3
f 215/1/3 197/1/3 214/1/3
f 216/4/3 205/4/3 204/4/3
f 216/4/3 206/4/3 205/4/3
f 217/3/3 207/3/3 206/3/3
f 217/4/3 206/4/3 216/4/3
f 218/3/3 207/3/3 217/3/3
f 223/1/3 220/1/3 219/1/3
f 224/1/3 220/1/3 223/1/3
f 225/3/3 221/3/3 220/3/3
f 225/1/3 220/1/3 224/1/3
f 226/1/3 222/1/3 221/1/3
f 226/3/3 221/3/3 225/3/3
f 227/1/3 222/1/3 226/1/3
f 229/1/3 227/1/3 226/1/3
f 230/3/3 228/3/3 227/3/3
f 230/1/3 227/1/3 229/1/3
f 231/3/3 228/3/3 230/3/3
f 232/2/3 224/2/3 223/2/3
f 233/2/3 224/2/3 232/2/3
f 241/1/3 235/1/3 234/1/3
f 242/3/3 236/3/3 235/3/3
f 242/1/3 235/1/3 241/1/3
f 243/3/3 236/3/3 242/3/3
f 244/1/3 240/1/3 239/1/3
f 245/1/3 240/1/3 244/1/3
f 251/1/3 247/1/3 246/1/3
f 252/3/3 248/3/3 247/3/3
f 252/1/3 247/1/3 251/1/3
f 253/3/3 248/3/3 252/3/3
f 254/1/3 250/1/3 249/1/3
f 255/1/3 250/1/3 254/1/3
f 257/1/3 238/1/3 237/1/3
f 258/1/3 238/1/3 257/1/3
f 262/2/3 257/2/3 256/2/3
f 263/1/3 260/1/3 259/1/3
f 264/3/3 261/3/3 260/3/3
f 264/1/3 260/1/3 263/1/3
f 265/1/3 262/1/3 261/1/3
f 265/3/3 261/3/3 264/3/3
f 266/2/3 257/2/3 262/2/3
f 266/1/3 262/1/3 265/1/3
f 267/2/3 257/2/3 266/2/3
f 268/1/4 269/1/4 272/1/4
f 272/1/4 269/1/4 273/1/4
f 269/3/4 270/3/4 274/3/4
f 273/1/4 269/1/4 274/1/4
f 270/1/4 271/1/4 275/1/4
f 274/3/4 270/3/4 275/3/4
f 275/1/4 271/1/4 276/1/4
f 275/1/4 276/1/4 278/1/4
f 276/3/4 277/3/4 279/3/4
f 278/1/4 276/1/4 279/1/4
f 279/3/4 277/3/4 280/3/4
f 272/2/4 273/2/4 281/2/4
f 281/2/4 273/2/4 282/2/4
f 283/1/4 284/1/4 289/1/4
f 285/1/4 286/1/4 290/1/4
f 286/3/4 287/3/4 291/3/4
f 290/1/4 286/1/4 291/1/4
f 291/3/4 287/3/4 292/3/4
f 288/1/4 289/1/4 293/1/4
f 289/1/4 284/1/4 294/1/4
f 293/1/4 289/1/4 294/1/4
f 295/1/4 296/1/4 301/1/4
f 297/1/4 298/1/4 302/1/4
f 298/3/4 299/3/4 303/3/4
f 302/1/4 298/1/4 303/1/4
f 303/3/4 299/3/4 304/3/4
f 300/1/4 301/1/4 305/1/4
f 301/1/4 296/1/4 306/1/4
f 305/1/4 301/1/4 306/1/4
f 306/1/4 296/1/4 309/1/4
f 309/1/4 296/1/4 310/1/4
f 307/2/4 308/2/4 314/2/4
f 311/1/4 312/1/4 315/1/4
f 312/3/4 313/3/4 316/3/4
f 315/1/4 312/1/4 316/1/4
f 313/1/4 314/1/4 317/1/4
f 316/3/4 313/3/4 317/3/4
f 314/2/4 308/2/4 318/2/4
f 317/1/4 314/1/4 318/1/4
f 318/2/4 308/2/4 319/2/4
f 322/4/4 323/4/4 327/4/4
f 323/2/4 324/2/4 327/2/4
f 324/3/4 325/3/4 328/3/4
f 327/2/4 324/2/4 328/2/4
f 325/1/4 326/1/4 329/1/4
f 328/3/4 325/3/4 329/3/4
f 329/1/4 326/1/4 330/1/4
f 330/1/4 326/1/4 331/1/4
f 320/1/4 321/1/4 332/1/4
f 321/2/4 322/2/4 332/2/4
f 327/4/4 328/4/4 333/4/4
f 332/2/4 322/2/4 333/2/4
f 322/4/4 327/4/4 333/4/4
f 329/1/4 330/1/4 334/1/4
f 333/4/4 328/4/4 334/4/4
f 328/1/4 329/1/4 334/1/4
f 330/3/4 331/3/4 335/3/4
f 334/1/4 330/1/4 335/1/4
f 331/1/4 326/1/4 336/1/4
f 335/3/4 331/3/4 336/3/4
f 320/1/4 332/1/4 337/1/4
f 332/4/4 333/4/4 337/4/4
f 333/2/4 334/2/4 338/2/4
f 337/4/4 333/4/4 338/4/4
f 320/1/4 337/1/4 339/1/4
f 337/2/4 338/2/4 339/2/4
f 338/2/4 334/2/4 340/2/4
f 339/2/4 338/2/4 340/2/4
f 334/1/4 335/1/4 341/1/4
f 340/2/4 334/2/4 341/2/4
f 335/1/4 336/1/4 341/1/4
f 341/1/4 336/1/4 342/1/4
f 339/4/4 340/4/4 343/4/4
f 320/1/4 339/1/4 343/1/4
f 340/2/4 341/2/4 344/2/4
f 343/4/4 340/4/4 344/4/4
f 341/3/4 342/3/4 345/3/4
f 344/2/4 341/2/4 345/2/4
f 342/1/4 336/1/4 346/1/4
f 345/3/4 342/3/4 346/3/4
f 336/1/4 326/1/4 347/1/4
f 346/1/4 336/1/4 347/1/4
f 347/1/4 326/1/4 348/1/4
f 320/1/4 343/1/4 349/1/4
f 343/2/4 344/2/4 350/2/4
f 349/1/4 343/1/4 350/1/4
f 344/4/4 345/4/4 351/4/4
f 350/2/4 344/2/4 351/2/4
f 345/1/4 346/1/4 352/1/4
f 351/4/4 345/4/4 352/4/4
f 346/1/4 347/1/4 352/1/4
f 347/3/4 348/3/4 353/3/4
f 352/1/4 347/1/4 353/1/4
f 353/3/4 348/3/4 354/3/4
f 359/1/5 356/1/5 355/1/5
f 360/1/5 356/1/5 359/1/5
f 361/1/5 358/1/5 357/1/5
f 362/1/5 358/1/5 361/1/5
f 367/1/5 364/1/5 363/1/5
f 368/1/5 364/1/5 367/1/5
f 369/3/5 365/3/5 364/3/5
f 369/1/5 364/1/5 368/1/5
f 370/1/5 366/1/5 365/1/5
f 370/3/5 365/3/5 369/3/5
f 373/1/5 367/1/5 363/1/5
f 374/1/5 369/1/5 368/1/5
f 375/1/5 369/1/5 374/1/5
f 376/1/5 366/1/5 370/1/5
f 377/1/5 372/1/5 371/1/5
f 378/1/5 372/1/5 377/1/5
f 379/1/5 373/1/5 363/1/5
f 379/1/5 376/1/5 375/1/5
f 379/1/5 375/1/5 374/1/5
f 379/1/5 374/1/5 373/1/5
f 380/1/5 366/1/5 376/1/5
f 380/1/5 376/1/5 379/1/5
f 386/1/5 382/1/5 381/1/5
f 387/2/5 383/2/5 382/2/5
f 387/1/5 382/1/5 386/1/5
f 388/2/5 383/2/5 387/2/5
f 389/2/5 385/2/5 384/2/5
f 390/2/5 385/2/5 389/2/5
f 393/4/5 392/4/5 391/4/5
f 394/4/5 392/4/5 393/4/5
f 397/1/5 396/1/5 395/1/5
f 398/1/5 396/1/5 397/1/5
f 406/4/5 400/4/5 399/4/5
f 407/2/5 401/2/5 400/2/5
f 407/4/5 400/4/5 406/4/5
f 408/2/5 401/2/5 407/2/5
f 409/4/5 403/4/5 402/4/5
f 410/2/5 404/2/5 403/2/5
f 410/4/5 403/4/5 409/4/5
f 411/4/5 405/4/5 404/4/5
f 411/2/5 404/2/5 410/2/5
f 412/4/5 405/4/5 411/4/5
f 413/1/5 407/1/5 406/1/5
f 414/1/5 407/1/5 413/1/5
f 415/1/5 410/1/5 409/1/5
f 416/1/5 410/1/5 415/1/5
f 417/1/5 412/1/5 411/1/5
f 418/1/5 412/1/5 417/1/5
f 419/1/6 420/1/6 423/1/6
f 423/1/6 420/1/6 424/1/6
f 421/2/6 422/2/6 426/2/6
f 426/2/6 422/2/6 427/2/6
f 424/2/6 425/2/6 428/2/6
f 428/2/6 425/2/6 429/2/6
f 430/3/6 431/3/6 435/3/6
f 431/1/6 432/1/6 436/1/6
f 435/3/6 431/3/6 436/3/6
f 432/3/6 433/3/6 437/3/6
f 436/1/6 432/1/6 437/1/6
f 433/1/6 434/1/6 438/1/6
f 437/3/6 433/3/6 438/3/6
f 438/1/6 434/1/6 439/1/6
f 435/1/6 436/1/6 440/1/6
f 437/1/6 438/1/6 441/1/6
f 441/1/6 438/1/6 442/1/6
f 439/1/6 434/1/6 443/1/6
f 443/1/6 434/1/6 444/1/6
f 441/1/6 442/1/6 445/1/6
f 435/1/6 440/1/6 445/1/6
f 440/1/6 441/1/6 445/1/6
f 442/1/6 443/1/6 445/1/6
f 443/3/6 444/3/6 446/3/6
f 445/1/6 443/1/6 446/1/6
f 446/3/6 444/3/6 447/3/6
f 448/1/6 449/1/6 450/1/6
f 450/1/6 449/1/6 451/1/6
f 452/3/6 453/3/6 454/3/6
f 454/3/6 453/3/6 455/3/6
f 456/1/6 457/1/6 458/1/6
f 458/1/6 457/1/6 459/1/6
f 460/1/6 461/1/6 463/1/6
f 461/3/6 462/3/6 463/3/6
f 463/3/6 462/3/6 464/3/6
f 460/1/6 463/1/6 465/1/6
f 463/1/6 464/1/6 465/1/6
f 465/1/6 464/1/6 466/1/6
