# Blender 4.1.1
# www.blender.org
mtllib Frog.mtl
o Untitled
v -0.600000 0.000000 0.100000
v -0.600000 0.000000 0.000000
v -0.600000 0.300000 0.100000
v -0.600000 0.300000 -0.000000
v -0.600000 0.400000 0.100000
v -0.600000 0.400000 -0.000000
v -0.600000 0.600000 0.100000
v -0.600000 0.600000 -0.000000
v -0.500000 0.600000 0.100000
v -0.500000 0.600000 -0.000000
v -0.500000 0.700000 0.100000
v -0.500000 0.700000 -0.000000
v -0.300000 -0.400000 0.200000
v -0.300000 -0.400000 -0.100000
v -0.300000 -0.300000 0.200000
v -0.300000 -0.300000 -0.100000
v -0.300000 -0.200000 0.200000
v -0.300000 -0.200000 0.100000
v -0.300000 -0.200000 0.000000
v -0.300000 -0.200000 -0.100000
v -0.300000 -0.100000 0.200000
v -0.300000 -0.100000 0.100000
v -0.300000 -0.100000 0.000000
v -0.300000 -0.100000 -0.100000
v -0.300000 0.000000 0.200000
v -0.300000 0.000000 0.100000
v -0.300000 0.000000 0.000000
v -0.300000 -0.000000 -0.100000
v -0.300000 0.100000 0.100000
v -0.300000 0.100000 -0.000000
v -0.300000 0.100000 -0.100000
v -0.300000 0.400000 0.200000
v -0.300000 0.400000 0.100000
v -0.300000 0.500000 0.200000
v -0.300000 0.500000 0.100000
v -0.300000 0.500000 -0.100000
v -0.300000 0.600000 0.200000
v -0.300000 0.600000 0.100000
v -0.300000 0.600000 -0.000000
v -0.300000 0.800000 0.200000
v -0.300000 0.800000 0.100000
v -0.300000 0.900000 0.200000
v -0.300000 0.900000 -0.000000
v -0.200000 -0.900000 0.100000
v -0.200000 -0.900000 0.000000
v -0.200000 -0.500000 0.100000
v -0.200000 -0.500000 0.000000
v -0.200000 -0.400000 0.100000
v -0.200000 -0.400000 0.000000
v -0.200000 0.500000 0.100000
v -0.200000 0.500000 -0.000000
v -0.200000 0.600000 0.100000
v -0.200000 0.600000 -0.000000
v 0.000000 0.600000 0.200000
v 0.000000 0.600000 0.100000
v 0.000000 0.600000 -0.000000
v 0.000000 0.900000 0.200000
v 0.000000 0.900000 0.100000
v 0.000000 1.000000 0.200000
v 0.000000 1.000000 -0.000000
v 0.100000 -0.900000 0.100000
v 0.100000 -0.900000 0.000000
v 0.100000 -0.500000 0.100000
v 0.100000 -0.500000 0.000000
v 0.100000 -0.400000 0.100000
v 0.100000 -0.400000 0.000000
v 0.100000 0.500000 0.100000
v 0.100000 0.500000 -0.000000
v 0.100000 0.600000 0.100000
v 0.100000 0.600000 -0.000000
v 0.400000 -0.400000 0.100000
v 0.400000 -0.400000 0.000000
v 0.400000 -0.200000 0.100000
v 0.400000 -0.200000 0.000000
v 0.400000 -0.100000 0.100000
v 0.400000 -0.100000 0.000000
v 0.400000 0.000000 0.100000
v 0.400000 0.000000 0.000000
v -0.500000 0.100000 0.100000
v -0.500000 0.100000 -0.000000
v -0.500000 0.300000 0.100000
v -0.500000 0.300000 -0.000000
v -0.500000 0.400000 0.100000
v -0.500000 0.400000 -0.000000
v -0.400000 0.400000 0.100000
v -0.400000 0.400000 -0.000000
v -0.400000 0.600000 0.100000
v -0.400000 0.600000 -0.000000
v -0.400000 0.700000 0.100000
v -0.400000 0.700000 -0.000000
v -0.200000 0.100000 0.200000
v -0.200000 0.100000 0.100000
v -0.200000 0.200000 0.200000
v -0.200000 0.200000 0.100000
v -0.100000 -0.900000 0.100000
v -0.100000 -0.900000 0.000000
v -0.100000 -0.500000 0.100000
v -0.100000 -0.500000 0.000000
v -0.100000 -0.400000 0.100000
v -0.100000 -0.400000 0.000000
v -0.100000 0.500000 0.100000
v -0.100000 0.500000 -0.000000
v -0.100000 0.600000 0.200000
v -0.100000 0.600000 0.100000
v -0.100000 0.800000 0.200000
v -0.100000 0.800000 0.100000
v -0.100000 0.900000 0.200000
v -0.100000 0.900000 -0.000000
v 0.200000 -0.900000 0.100000
v 0.200000 -0.900000 0.000000
v 0.200000 -0.500000 0.100000
v 0.200000 -0.500000 0.000000
v 0.200000 -0.400000 0.100000
v 0.200000 -0.400000 0.000000
v 0.200000 0.500000 0.100000
v 0.200000 0.500000 -0.000000
v 0.200000 0.600000 0.100000
v 0.200000 0.600000 -0.000000
v 0.300000 -0.400000 0.200000
v 0.300000 -0.400000 -0.100000
v 0.300000 -0.300000 0.200000
v 0.300000 -0.300000 -0.100000
v 0.300000 -0.200000 0.200000
v 0.300000 -0.200000 0.100000
v 0.300000 -0.100000 0.000000
v 0.300000 -0.100000 -0.100000
v 0.300000 0.000000 0.200000
v 0.300000 0.000000 0.100000
v 0.300000 0.000000 0.000000
v 0.300000 -0.000000 -0.100000
v 0.300000 0.100000 0.200000
v 0.300000 0.100000 0.100000
v 0.300000 0.100000 -0.000000
v 0.300000 0.200000 0.200000
v 0.300000 0.200000 0.100000
v 0.300000 0.300000 0.200000
v 0.300000 0.300000 0.100000
v 0.300000 0.400000 -0.000000
v 0.300000 0.400000 -0.100000
v 0.300000 0.500000 0.200000
v 0.300000 0.500000 -0.000000
v 0.300000 0.500000 -0.100000
v 0.300000 0.600000 0.200000
v 0.300000 0.600000 0.100000
v 0.300000 0.600000 -0.000000
v 0.300000 0.900000 0.200000
v 0.300000 0.900000 0.100000
v 0.300000 1.000000 0.200000
v 0.300000 1.000000 0.100000
v 0.300000 1.000000 -0.000000
v 0.500000 -0.400000 0.100000
v 0.500000 -0.400000 0.000000
v 0.500000 -0.200000 0.100000
v 0.500000 -0.200000 0.000000
v 0.500000 -0.100000 0.100000
v 0.500000 -0.100000 0.000000
v 0.500000 0.000000 0.100000
v 0.500000 0.000000 0.000000
v 0.500000 0.100000 0.100000
v 0.500000 0.100000 -0.000000
v -0.300000 -0.400000 0.200000
v -0.300000 -0.300000 0.200000
v -0.300000 -0.200000 0.200000
v -0.300000 -0.100000 0.200000
v -0.300000 0.000000 0.200000
v -0.300000 0.400000 0.200000
v -0.300000 0.500000 0.200000
v -0.300000 0.600000 0.200000
v -0.300000 0.800000 0.200000
v -0.300000 0.900000 0.200000
v -0.200000 -0.200000 0.200000
v -0.200000 -0.100000 0.200000
v -0.200000 0.100000 0.200000
v -0.200000 0.200000 0.200000
v -0.200000 0.300000 0.200000
v -0.200000 0.400000 0.200000
v -0.200000 0.500000 0.200000
v -0.200000 0.600000 0.200000
v -0.200000 0.800000 0.200000
v -0.100000 -0.200000 0.200000
v -0.100000 0.000000 0.200000
v -0.100000 0.400000 0.200000
v -0.100000 0.500000 0.200000
v -0.100000 0.600000 0.200000
v -0.100000 0.800000 0.200000
v -0.100000 0.900000 0.200000
v 0.000000 -0.300000 0.200000
v 0.000000 -0.200000 0.200000
v 0.000000 0.000000 0.200000
v 0.000000 0.600000 0.200000
v 0.000000 0.900000 0.200000
v 0.000000 1.000000 0.200000
v 0.100000 -0.400000 0.200000
v 0.100000 -0.300000 0.200000
v 0.100000 -0.200000 0.200000
v 0.100000 0.400000 0.200000
v 0.100000 0.500000 0.200000
v 0.100000 0.600000 0.200000
v 0.100000 0.800000 0.200000
v 0.200000 -0.400000 0.200000
v 0.200000 -0.300000 0.200000
v 0.200000 -0.200000 0.200000
v 0.200000 0.000000 0.200000
v 0.200000 0.600000 0.200000
v 0.200000 0.800000 0.200000
v 0.200000 0.900000 0.200000
v 0.200000 1.000000 0.200000
v 0.300000 -0.400000 0.200000
v 0.300000 -0.300000 0.200000
v 0.300000 -0.200000 0.200000
v 0.300000 0.000000 0.200000
v 0.300000 0.100000 0.200000
v 0.300000 0.200000 0.200000
v 0.300000 0.300000 0.200000
v 0.300000 0.500000 0.200000
v 0.300000 0.600000 0.200000
v 0.300000 0.900000 0.200000
v 0.300000 1.000000 0.200000
v -0.600000 0.000000 0.100000
v -0.600000 0.300000 0.100000
v -0.600000 0.400000 0.100000
v -0.600000 0.600000 0.100000
v -0.500000 0.000000 0.100000
v -0.500000 0.100000 0.100000
v -0.500000 0.300000 0.100000
v -0.500000 0.400000 0.100000
v -0.500000 0.600000 0.100000
v -0.500000 0.700000 0.100000
v -0.400000 0.400000 0.100000
v -0.400000 0.600000 0.100000
v -0.400000 0.700000 0.100000
v -0.300000 0.000000 0.100000
v -0.300000 0.100000 0.100000
v -0.200000 -0.900000 0.100000
v -0.200000 -0.500000 0.100000
v -0.200000 -0.400000 0.100000
v -0.200000 0.100000 0.100000
v -0.200000 0.200000 0.100000
v -0.200000 0.500000 0.100000
v -0.200000 0.600000 0.100000
v -0.100000 -0.900000 0.100000
v -0.100000 -0.500000 0.100000
v -0.100000 -0.400000 0.100000
v -0.100000 0.500000 0.100000
v -0.100000 0.600000 0.100000
v 0.100000 -0.900000 0.100000
v 0.100000 -0.500000 0.100000
v 0.100000 -0.400000 0.100000
v 0.100000 0.500000 0.100000
v 0.100000 0.600000 0.100000
v 0.200000 -0.900000 0.100000
v 0.200000 -0.500000 0.100000
v 0.200000 -0.400000 0.100000
v 0.200000 0.500000 0.100000
v 0.200000 0.600000 0.100000
v 0.300000 0.000000 0.100000
v 0.300000 0.100000 0.100000
v 0.300000 0.200000 0.100000
v 0.400000 -0.400000 0.100000
v 0.400000 -0.200000 0.100000
v 0.400000 -0.100000 0.100000
v 0.400000 0.000000 0.100000
v 0.500000 -0.400000 0.100000
v 0.500000 -0.200000 0.100000
v 0.500000 -0.100000 0.100000
v 0.500000 0.000000 0.100000
v 0.500000 0.100000 0.100000
v -0.600000 0.000000 0.000000
v -0.600000 0.300000 -0.000000
v -0.600000 0.400000 -0.000000
v -0.600000 0.600000 -0.000000
v -0.500000 0.000000 0.000000
v -0.500000 0.100000 -0.000000
v -0.500000 0.300000 -0.000000
v -0.500000 0.400000 -0.000000
v -0.500000 0.600000 -0.000000
v -0.500000 0.700000 -0.000000
v -0.400000 0.400000 -0.000000
v -0.400000 0.600000 -0.000000
v -0.400000 0.700000 -0.000000
v -0.300000 0.000000 0.000000
v -0.300000 0.100000 -0.000000
v -0.300000 0.600000 -0.000000
v -0.300000 0.900000 -0.000000
v -0.200000 -0.900000 0.000000
v -0.200000 -0.500000 0.000000
v -0.200000 -0.400000 0.000000
v -0.200000 0.500000 -0.000000
v -0.200000 0.600000 -0.000000
v -0.100000 -0.900000 0.000000
v -0.100000 -0.500000 0.000000
v -0.100000 -0.400000 0.000000
v -0.100000 0.500000 -0.000000
v -0.100000 0.900000 -0.000000
v 0.000000 0.600000 -0.000000
v 0.000000 1.000000 -0.000000
v 0.100000 -0.900000 0.000000
v 0.100000 -0.500000 0.000000
v 0.100000 -0.400000 0.000000
v 0.100000 0.500000 -0.000000
v 0.100000 0.600000 -0.000000
v 0.200000 -0.900000 0.000000
v 0.200000 -0.500000 0.000000
v 0.200000 -0.400000 0.000000
v 0.200000 0.500000 -0.000000
v 0.200000 0.600000 -0.000000
v 0.300000 0.000000 0.000000
v 0.300000 0.100000 -0.000000
v 0.300000 0.600000 -0.000000
v 0.300000 1.000000 -0.000000
v 0.400000 -0.400000 0.000000
v 0.400000 -0.200000 0.000000
v 0.400000 -0.100000 0.000000
v 0.400000 0.000000 0.000000
v 0.500000 -0.400000 0.000000
v 0.500000 -0.200000 0.000000
v 0.500000 -0.100000 0.000000
v 0.500000 0.000000 0.000000
v 0.500000 0.100000 -0.000000
v -0.300000 -0.400000 -0.100000
v -0.300000 -0.300000 -0.100000
v -0.300000 -0.200000 -0.100000
v -0.300000 -0.100000 -0.100000
v -0.300000 -0.000000 -0.100000
v -0.300000 0.100000 -0.100000
v -0.300000 0.500000 -0.100000
v -0.200000 -0.100000 -0.100000
v -0.200000 -0.000000 -0.100000
v -0.200000 0.100000 -0.100000
v -0.200000 0.300000 -0.100000
v -0.200000 0.400000 -0.100000
v -0.100000 -0.300000 -0.100000
v -0.100000 -0.200000 -0.100000
v -0.100000 -0.000000 -0.100000
v -0.100000 0.300000 -0.100000
v -0.100000 0.400000 -0.100000
v 0.000000 -0.300000 -0.100000
v 0.000000 -0.200000 -0.100000
v 0.100000 -0.300000 -0.100000
v 0.100000 -0.100000 -0.100000
v 0.100000 -0.000000 -0.100000
v 0.100000 0.100000 -0.100000
v 0.200000 -0.300000 -0.100000
v 0.200000 -0.100000 -0.100000
v 0.200000 -0.000000 -0.100000
v 0.200000 0.100000 -0.100000
v 0.200000 0.400000 -0.100000
v 0.200000 0.500000 -0.100000
v 0.300000 -0.400000 -0.100000
v 0.300000 -0.300000 -0.100000
v 0.300000 -0.100000 -0.100000
v 0.300000 -0.000000 -0.100000
v 0.300000 0.400000 -0.100000
v 0.300000 0.500000 -0.100000
v -0.200000 -0.900000 0.100000
v -0.100000 -0.900000 0.100000
v 0.100000 -0.900000 0.100000
v 0.200000 -0.900000 0.100000
v -0.200000 -0.900000 0.000000
v -0.100000 -0.900000 0.000000
v 0.100000 -0.900000 0.000000
v 0.200000 -0.900000 0.000000
v -0.300000 -0.400000 0.200000
v 0.100000 -0.400000 0.200000
v 0.200000 -0.400000 0.200000
v 0.300000 -0.400000 0.200000
v -0.200000 -0.400000 0.100000
v -0.100000 -0.400000 0.100000
v 0.100000 -0.400000 0.100000
v 0.200000 -0.400000 0.100000
v 0.400000 -0.400000 0.100000
v 0.500000 -0.400000 0.100000
v -0.200000 -0.400000 0.000000
v -0.100000 -0.400000 0.000000
v 0.100000 -0.400000 0.000000
v 0.200000 -0.400000 0.000000
v 0.400000 -0.400000 0.000000
v 0.500000 -0.400000 0.000000
v -0.300000 -0.400000 -0.100000
v 0.300000 -0.400000 -0.100000
v -0.600000 0.000000 0.100000
v -0.500000 0.000000 0.100000
v -0.300000 0.000000 0.100000
v 0.300000 0.000000 0.100000
v 0.400000 0.000000 0.100000
v -0.600000 0.000000 0.000000
v -0.500000 0.000000 0.000000
v -0.300000 0.000000 0.000000
v 0.300000 0.000000 0.000000
v 0.400000 0.000000 0.000000
v -0.200000 0.200000 0.200000
v 0.300000 0.200000 0.200000
v -0.200000 0.200000 0.100000
v 0.300000 0.200000 0.100000
v -0.500000 0.400000 0.100000
v -0.400000 0.400000 0.100000
v -0.500000 0.400000 -0.000000
v -0.400000 0.400000 -0.000000
v -0.300000 0.600000 0.200000
v -0.200000 0.600000 0.200000
v -0.100000 0.600000 0.200000
v 0.000000 0.600000 0.200000
v 0.100000 0.600000 0.200000
v 0.200000 0.600000 0.200000
v 0.300000 0.600000 0.200000
v -0.300000 0.600000 0.100000
v -0.200000 0.600000 0.100000
v -0.100000 0.600000 0.100000
v 0.000000 0.600000 0.100000
v 0.100000 0.600000 0.100000
v 0.200000 0.600000 0.100000
v 0.300000 0.600000 0.100000
v -0.300000 0.600000 -0.000000
v -0.200000 0.600000 -0.000000
v 0.000000 0.600000 -0.000000
v 0.100000 0.600000 -0.000000
v 0.200000 0.600000 -0.000000
v 0.300000 0.600000 -0.000000
v -0.200000 0.100000 0.200000
v 0.300000 0.100000 0.200000
v -0.500000 0.100000 0.100000
v -0.300000 0.100000 0.100000
v -0.200000 0.100000 0.100000
v 0.300000 0.100000 0.100000
v 0.500000 0.100000 0.100000
v -0.500000 0.100000 -0.000000
v -0.300000 0.100000 -0.000000
v 0.300000 0.100000 -0.000000
v 0.500000 0.100000 -0.000000
v -0.300000 0.500000 0.200000
v -0.200000 0.500000 0.200000
v -0.100000 0.500000 0.200000
v 0.100000 0.500000 0.200000
v 0.300000 0.500000 0.200000
v -0.300000 0.500000 0.100000
v -0.200000 0.500000 0.100000
v -0.100000 0.500000 0.100000
v 0.100000 0.500000 0.100000
v 0.200000 0.500000 0.100000
v -0.200000 0.500000 -0.000000
v -0.100000 0.500000 -0.000000
v 0.100000 0.500000 -0.000000
v 0.200000 0.500000 -0.000000
v 0.300000 0.500000 -0.000000
v -0.300000 0.500000 -0.100000
v 0.200000 0.500000 -0.100000
v 0.300000 0.500000 -0.100000
v -0.600000 0.600000 0.100000
v -0.500000 0.600000 0.100000
v -0.600000 0.600000 -0.000000
v -0.500000 0.600000 -0.000000
v -0.500000 0.700000 0.100000
v -0.400000 0.700000 0.100000
v -0.500000 0.700000 -0.000000
v -0.400000 0.700000 -0.000000
v -0.300000 0.900000 0.200000
v -0.100000 0.900000 0.200000
v -0.300000 0.900000 -0.000000
v -0.100000 0.900000 -0.000000
v 0.000000 1.000000 0.200000
v 0.200000 1.000000 0.200000
v 0.300000 1.000000 0.200000
v 0.200000 1.000000 0.100000
v 0.300000 1.000000 0.100000
v 0.000000 1.000000 -0.000000
v 0.300000 1.000000 -0.000000
vn 1.0000 -0.0000 -0.0000
vn -1.0000 -0.0000 -0.0000
vn -0.0000 1.0000 -0.0000
vn -0.0000 -0.0000 1.0000
vn -0.0000 -1.0000 -0.0000
vn -0.0000 -0.0000 -1.0000
vt 0.974609 0.500000
vt 0.947266 0.500000
vt 0.990234 0.500000
vt 0.955078 0.500000
s 0
usemtl palette.006
f 139/1/1 142/1/1 141/1/1 138/1/1
f 76/1/2 74/1/2 73/1/2 75/1/2
f 457/2/3 459/2/3 458/2/3 456/2/3
f 197/1/4 183/1/4 182/1/4 196/1/4
f 8/2/2 6/2/2 5/2/2 7/2/2
f 266/2/4 262/2/4 261/2/4 265/2/4
f 29/2/2 26/2/2 25/2/2 32/2/2 33/2/2 35/2/2 36/2/2 31/2/2 30/2/2
f 412/3/5 405/3/5 404/3/5 411/3/5
f 124/3/1 128/3/1 127/3/1 123/3/1
f 252/2/4 247/2/4 246/2/4 251/2/4
f 324/4/6 328/4/6 327/4/6 323/4/6
f 408/4/5 401/4/5 400/4/5 407/4/5
f 420/2/3 424/2/3 423/2/3 419/2/3
f 431/1/3 436/1/3 435/1/3 430/1/3
f 330/2/6 335/2/6 341/2/6 334/2/6 328/2/6 329/2/6 325/2/6 326/2/6
f 322/4/6 333/4/6 332/4/6 321/4/6
f 209/2/4 201/2/4 200/2/4 208/2/4
f 462/1/3 464/1/3 463/1/3 461/1/3
f 214/3/4 175/3/4 174/3/4 213/3/4
f 328/3/6 334/3/6 333/3/6 322/3/6 323/3/6 327/3/6
f 147/1/1 149/1/1 148/1/1 146/1/1
f 104/4/1 106/4/1 105/4/1 103/4/1
f 60/2/2 56/2/2 55/2/2 58/2/2 57/2/2 59/2/2
f 425/4/3 429/4/3 428/4/3 424/4/3
f 41/3/2 38/3/2 37/3/2 40/3/2
f 325/1/6 329/1/6 328/1/6 324/1/6
f 152/2/1 154/2/1 153/2/1 151/2/1
f 177/1/4 167/1/4 166/1/4 176/1/4
f 369/2/5 364/2/5 367/2/5 368/2/5 374/2/5 375/2/5
f 433/1/3 438/1/3 437/1/3 432/1/3
f 80/2/1 82/2/1 81/2/1 79/2/1
f 98/1/1 100/1/1 99/1/1 97/1/1
f 179/3/4 169/3/4 168/3/4 178/3/4
f 273/4/6 282/4/6 281/4/6 272/4/6
f 170/2/4 169/2/4 179/2/4 185/2/4 186/2/4
f 106/2/1 104/2/1 101/2/1 102/2/1 108/2/1 107/2/1 105/2/1
f 362/2/5 358/2/5 357/2/5 361/2/5
f 35/1/2 33/1/2 32/1/2 34/1/2
f 12/1/2 10/1/2 9/1/2 11/1/2
f 453/1/3 455/1/3 454/1/3 452/1/3
f 24/3/2 20/3/2 19/3/2 23/3/2
f 195/3/4 188/3/4 187/3/4 194/3/4
f 145/2/1 150/2/1 149/2/1 147/2/1 144/2/1
f 128/2/1 132/2/1 131/2/1 127/2/1
f 242/2/4 235/2/4 234/2/4 241/2/4
f 345/3/6 352/3/6 351/3/6 344/3/6
f 443/2/3 439/2/3 438/2/3 433/2/3 434/2/3 444/2/3
f 407/3/5 400/3/5 399/3/5 406/3/5
f 205/4/4 199/4/4 198/4/4 204/4/4
f 110/2/1 112/2/1 111/2/1 109/2/1
f 156/2/1 158/2/1 157/2/1 155/2/1
f 388/4/5 383/4/5 382/4/5 387/4/5
f 74/2/2 72/2/2 71/2/2 73/2/2
f 226/1/4 221/1/4 220/1/4 225/1/4
f 78/2/2 76/2/2 75/2/2 77/2/2
f 70/2/2 68/2/2 67/2/2 69/2/2
f 410/3/5 403/3/5 402/3/5 409/3/5
f 273/2/6 272/2/6 268/2/6 269/2/6 274/2/6
f 394/3/5 392/3/5 391/3/5 393/3/5
f 267/4/4 257/4/4 256/4/4 262/4/4 266/4/4
f 218/1/4 207/1/4 206/1/4 217/1/4
f 233/4/4 224/4/4 223/4/4 232/4/4
f 432/2/3 437/2/3 436/2/3 431/2/3
f 444/1/3 447/1/3 446/1/3 443/1/3
f 378/2/5 372/2/5 371/2/5 377/2/5
f 195/4/4 194/4/4 201/4/4 209/4/4 210/4/4 202/4/4 203/4/4 189/4/4 188/4/4
f 96/2/1 98/2/1 97/2/1 95/2/1
f 313/1/6 317/1/6 316/1/6 312/1/6
f 201/1/4 194/1/4 193/1/4 200/1/4
f 92/2/1 94/2/1 93/2/1 91/2/1
f 398/2/5 396/2/5 395/2/5 397/2/5
f 243/1/4 236/1/4 235/1/4 242/1/4
f 64/2/2 62/2/2 61/2/2 63/2/2
f 387/2/5 382/2/5 381/2/5 386/2/5
f 66/1/2 64/1/2 63/1/2 65/1/2
f 20/4/2 16/4/2 15/4/2 17/4/2 18/4/2 22/4/2 21/4/2 25/4/2 26/4/2 27/4/2 28/4/2 24/4/2 23/4/2 19/4/2
f 4/2/2 2/2/2 1/2/2 3/2/2
f 347/2/6 353/2/6 352/2/6 345/2/6 346/2/6 342/2/6 341/2/6 335/2/6 336/2/6 331/2/6 330/2/6 326/2/6 348/2/6
f 215/2/4 197/2/4 196/2/4 182/2/4 183/2/4 177/2/4 176/2/4 166/2/4 165/2/4 181/2/4 189/2/4 203/2/4 211/2/4 212/2/4 173/2/4 174/2/4 175/2/4 214/2/4
f 230/2/4 227/2/4 222/2/4 221/2/4 226/2/4 229/2/4
f 211/3/4 203/3/4 202/3/4 210/3/4
f 22/3/2 18/3/2 17/3/2 21/3/2
f 207/2/4 192/2/4 191/2/4 206/2/4
f 231/1/4 228/1/4 227/1/4 230/1/4
f 245/2/4 240/2/4 239/2/4 244/2/4
f 47/2/2 45/2/2 44/2/2 46/2/2
f 43/2/2 39/2/2 38/2/2 41/2/2 40/2/2 42/2/2
f 286/2/6 291/2/6 290/2/6 285/2/6
f 411/4/5 404/4/5 403/4/5 410/4/5
f 264/2/4 260/2/4 259/2/4 263/2/4
f 124/4/1 123/4/1 121/4/1 122/4/1 126/4/1 125/4/1 129/4/1 128/4/1
f 276/2/6 279/2/6 278/2/6 275/2/6 270/2/6 271/2/6
f 185/4/4 179/4/4 178/4/4 184/4/4
f 144/3/1 147/3/1 146/3/1 143/3/1
f 255/2/4 250/2/4 249/2/4 254/2/4
f 360/2/5 356/2/5 355/2/5 359/2/5
f 390/4/5 385/4/5 384/4/5 389/4/5
f 172/3/4 164/3/4 163/3/4 171/3/4
f 82/1/1 84/1/1 83/1/1 81/1/1
f 296/2/6 310/2/6 309/2/6 306/2/6 305/2/6 300/2/6 301/2/6 295/2/6
f 344/4/6 351/4/6 350/4/6 343/4/6
f 414/2/5 407/2/5 406/2/5 413/2/5
f 340/4/6 339/4/6 337/4/6 338/4/6 333/4/6 334/4/6 341/4/6 345/4/6 344/4/6
f 189/3/4 181/3/4 180/3/4 188/3/4
f 138/2/1 141/2/1 140/2/1 136/2/1 137/2/1 135/2/1 132/2/1 133/2/1 129/2/1 130/2/1 139/2/1
f 265/1/4 261/1/4 260/1/4 264/1/4
f 270/1/6 275/1/6 274/1/6 269/1/6
f 58/3/2 55/3/2 54/3/2 57/3/2
f 49/1/2 47/1/2 46/1/2 48/1/2
f 418/2/5 412/2/5 411/2/5 417/2/5
f 277/1/6 280/1/6 279/1/6 276/1/6
f 154/1/1 156/1/1 155/1/1 153/1/1
f 299/1/6 304/1/6 303/1/6 298/1/6
f 294/2/6 293/2/6 288/2/6 289/2/6 283/2/6 284/2/6
f 312/2/6 316/2/6 315/2/6 311/2/6
f 31/1/2 28/1/2 27/1/2 30/1/2
f 308/4/6 319/4/6 318/4/6 314/4/6 307/4/6
f 287/1/6 292/1/6 291/1/6 286/1/6
f 220/2/4 219/2/4 223/2/4 224/2/4 225/2/4
f 416/2/5 410/2/5 409/2/5 415/2/5
f 314/2/6 318/2/6 317/2/6 313/2/6
f 88/1/1 90/1/1 89/1/1 87/1/1
f 298/2/6 303/2/6 302/2/6 297/2/6
f 53/2/2 51/2/2 50/2/2 52/2/2
f 348/1/6 354/1/6 353/1/6 347/1/6
f 16/2/2 14/2/2 13/2/2 15/2/2
f 449/2/3 451/2/3 450/2/3 448/2/3
f 120/2/1 122/2/1 121/2/1 119/2/1
f 376/2/5 375/2/5 374/2/5 373/2/5 367/2/5 364/2/5 363/2/5 379/2/5 380/2/5 366/2/5 365/2/5 370/2/5
f 342/1/6 346/1/6 345/1/6 341/1/6
f 258/2/4 238/2/4 237/2/4 257/2/4
f 194/2/4 187/2/4 162/2/4 161/2/4 193/2/4
f 126/3/1 130/3/1 129/3/1 125/3/1
f 116/2/1 118/2/1 117/2/1 115/2/1
f 135/3/1 137/3/1 136/3/1 134/3/1
f 191/3/4 190/3/4 198/3/4 199/3/4 205/3/4 204/3/4 216/3/4 217/3/4 206/3/4
f 333/3/6 338/3/6 337/3/6 332/3/6
f 370/1/5 365/1/5 364/1/5 369/1/5
f 112/1/1 114/1/1 113/1/1 111/1/1
f 6/1/2 4/1/2 3/1/2 5/1/2
f 86/2/1 88/2/1 87/2/1 85/2/1
f 340/3/6 344/3/6 343/3/6 339/3/6
f 331/1/6 336/1/6 335/1/6 330/1/6
f 158/4/1 160/4/1 159/4/1 157/4/1
f 463/2/3 464/2/3 466/2/3 465/2/3 460/2/3 461/2/3
f 443/2/3 446/2/3 445/2/3 435/2/3 436/2/3 440/2/3 441/2/3 437/2/3 438/2/3 442/2/3
f 422/4/3 427/4/3 426/4/3 421/4/3
f 180/4/4 181/4/4 165/4/4 164/4/4 172/4/4 171/4/4 163/4/4 162/4/4 187/4/4 188/4/4
f 337/2/6 339/2/6 343/2/6 350/2/6 349/2/6 320/2/6 321/2/6 332/2/6
f 253/1/4 248/1/4 247/1/4 252/1/4
